<?xml version="1.0" standalone="no"?>
<!DOCTYPE svg PUBLIC "-//W3C//DTD SVG 1.1//EN" "http://www.w3.org/Graphics/SVG/1.1/DTD/svg11.dtd" >
<svg xmlns="http://www.w3.org/2000/svg" xmlns:xlink="http://www.w3.org/1999/xlink" version="1.1">
<metadata></metadata>
<defs>
<font id="transatbold_oblique" horiz-adv-x="1017" >
<font-face units-per-em="2048" ascent="1485" descent="-563" />
<missing-glyph horiz-adv-x="501" />
<glyph unicode="&#xfb01;" horiz-adv-x="1122" d="M82 649v25l70 178h88l36 260q13 88 47.5 156.5t80.5 108t99 64t107 31t99.5 2.5t81.5 -16l-43 -219q-74 21 -140.5 -19.5t-79.5 -138.5l-30 -229h194l-28 -203h-195l-92 -649h-258l92 649h-129zM711 0l120 852h259l-119 -852h-260zM840 1212q6 69 57.5 118.5t120.5 49.5 q70 0 119 -54.5t41 -123.5q-6 -73 -57 -119.5t-122 -46.5q-70 0 -118 52t-41 124z" />
<glyph unicode="&#xfb02;" horiz-adv-x="1138" d="M82 649v25l70 178h88l36 260q13 88 47.5 156.5t80.5 108t99 64t107 31t99.5 2.5t81.5 -16l-43 -219q-74 21 -140.5 -19.5t-79.5 -138.5l-30 -229h194l-28 -203h-195l-92 -649h-258l92 649h-129zM729 0l203 1438l242 24h22l-207 -1462h-260z" />
<glyph unicode="&#xfb03;" horiz-adv-x="1701" d="M82 649v25l70 178h88l28 203q16 106 62 182.5t104 114.5t125 55t124 14t101 -18l-45 -219q-74 21 -140 -19.5t-79 -138.5l-22 -174h321l37 260q13 88 47.5 156.5t80.5 108t99 64t107 31t100 2.5t82 -16l-45 -219q-73 21 -139.5 -20t-77.5 -138l-33 -229h195l-29 -203 h-194l-93 -649h-258l93 649h-322l-92 -649h-258l92 649h-129zM1290 0l121 852h258l-119 -852h-260zM1419 1212q6 69 57.5 118.5t120.5 49.5q70 0 119 -54.5t41 -123.5q-6 -73 -56.5 -119.5t-121.5 -46.5q-70 0 -118.5 52t-41.5 124z" />
<glyph unicode="&#xfb04;" horiz-adv-x="1720" d="M82 649v25l70 178h88l28 203q16 106 62 182.5t104 114.5t125 55t124 14t101 -18l-45 -219q-74 21 -140 -19.5t-79 -138.5l-22 -174h321l37 260q13 88 47.5 156.5t80.5 108t99 64t107 31t100 2.5t82 -16l-45 -219q-73 21 -139.5 -20t-77.5 -138l-33 -229h195l-29 -203 h-194l-93 -649h-258l93 649h-322l-92 -649h-258l92 649h-129zM1311 0l202 1438l242 24h23l-207 -1462h-260z" />
<glyph horiz-adv-x="0" />
<glyph horiz-adv-x="682" />
<glyph unicode=" "  horiz-adv-x="501" />
<glyph unicode="&#x09;" horiz-adv-x="501" />
<glyph unicode="&#xa0;" horiz-adv-x="501" />
<glyph unicode="!" horiz-adv-x="659" d="M115 156q6 71 57 119.5t121 48.5q72 0 120 -54t42 -125q-7 -73 -58 -119t-123 -46q-71 0 -118 51t-41 125zM254 455l10 878h393l-260 -878h-143z" />
<glyph unicode="&#x22;" horiz-adv-x="888" d="M205 1438h325l-215 -690h-98zM614 1438h326l-215 -690h-98z" />
<glyph unicode="#" horiz-adv-x="1259" d="M51 297q2 76 2 229h234l34 93.5t39 110t33 93.5h-166q0 38 1 115t1 115h246l103 280h227l-98 -280h182l100 280h230l-101 -280h152q-2 -76 -2 -230h-230l-104 -297h160q0 -153 -2 -229h-238q-50 -150 -102 -297h-240q103 287 106 297h-176q-25 -76 -104 -297h-240 l109 297h-156zM522 526h178q18 49 53 148.5t54 148.5h-180z" />
<glyph unicode="$" horiz-adv-x="980" d="M43 84l100 211q162 -90 281 -90q85 0 137 34t60 91q7 60 -36 112.5t-149 130.5q-42 32 -76.5 62.5t-70.5 75t-58.5 89t-33 102.5t-0.5 118q19 114 102.5 204.5t224.5 116.5l37 271h223l-36 -269q64 -9 131 -30.5t100 -44.5l-88 -219q-47 30 -113 49.5t-127 19.5 q-77 0 -127 -34.5t-59 -92.5q-7 -48 34.5 -96.5t135.5 -114.5q167 -116 224 -230.5t36 -248.5q-23 -135 -123.5 -217t-218.5 -104l-37 -256h-221l37 251q-99 12 -162.5 39t-126.5 70z" />
<glyph unicode="%" horiz-adv-x="1437" d="M61 102l1252 1254l129 -129l-1252 -1262zM127 1040q12 143 111.5 230.5t236.5 87.5q133 0 224.5 -91t78.5 -227q-12 -142 -110.5 -231.5t-229.5 -89.5q-133 0 -228.5 92.5t-82.5 228.5zM348 1040q-9 -62 18.5 -104.5t73.5 -42.5q47 0 80 41.5t41 105.5q9 64 -16.5 105 t-71.5 41q-49 0 -82.5 -40t-42.5 -106zM743 299q13 143 113.5 231t235.5 88q133 0 224.5 -91t78.5 -228q-12 -140 -111 -229.5t-229 -89.5q-85 0 -159.5 40t-118 114.5t-34.5 164.5zM965 299q-9 -62 18 -103.5t74 -41.5t80.5 40.5t42.5 104.5q7 64 -18.5 105.5t-71.5 41.5 q-49 0 -82.5 -40.5t-42.5 -106.5z" />
<glyph unicode="&#x26;" horiz-adv-x="1284" d="M51 331.5q-3 99.5 43 186.5t133 156l142 98l-21 37q-57 111 -51 223q7 144 114 236t253 92q137 0 234 -77t138 -210l-209 -90q-24 61 -62.5 100t-86.5 39t-78.5 -27.5t-38.5 -72.5q-7 -32 3 -68t23.5 -60t39.5 -65l223 -366l256 192l127 -180l-260 -194l178 -281h-307 l-80 129l-111 -78q-38 -31 -107 -49.5t-148 -17.5t-158.5 40t-126.5 113q-59 95 -62 194.5zM297.5 387q-12.5 -55 21.5 -113q34 -54 105 -59t129 41l88 63l-156 254l-123 -90q-52 -41 -64.5 -96z" />
<glyph unicode="'" horiz-adv-x="479" d="M205 1438h325l-215 -690h-98z" />
<glyph unicode="(" horiz-adv-x="858" d="M137 643q38 272 204 499t433 369l141 -188q-429 -273 -489 -705q-10 -57 -8 -115t7 -107.5t20 -100.5t31 -93.5t39.5 -86.5t45 -79.5t48.5 -72.5t50.5 -65.5t49.5 -57.5l-185 -168q-213 191 -318.5 447.5t-68.5 523.5z" />
<glyph unicode=")" horiz-adv-x="858" d="M-18 -139q429 273 489 704q10 57 8 115t-7 107.5t-20 100.5t-31 93.5t-39.5 86.5t-45 79.5t-48.5 72.5t-50.5 65.5t-49.5 57.5l185 168q213 -191 318.5 -447t68.5 -523q-39 -272 -204.5 -499.5t-432.5 -369.5z" />
<glyph unicode="*" horiz-adv-x="847" d="M137 1001l230 91q-116 61 -197 102l109 152l167 -140q5 190 5 232h186q-25 -109 -57 -230l196 129q11 -20 38.5 -75t43.5 -84l-229 -93q130 -65 198 -96l-108 -158l-170 144q-2 -39 -4 -117t-4 -117h-187l60 234l-189 -135q-40 75 -88 161z" />
<glyph unicode="+" horiz-adv-x="972" d="M90 588l31 229h301l45 313h231l-45 -313h299l-30 -229h-299l-43 -314h-232l43 314h-301z" />
<glyph unicode="," horiz-adv-x="544" d="M-53 -326l164 637h313v-35l-395 -624z" />
<glyph unicode="-" horiz-adv-x="733" d="M63 285l33 250l566 102l-35 -252z" />
<glyph unicode="." horiz-adv-x="544" d="M57 156q8 71 59 119.5t120 48.5q71 0 119 -54t42 -125q-6 -73 -56.5 -119t-123.5 -46q-70 0 -118 51t-42 125z" />
<glyph unicode="/" horiz-adv-x="966" d="M-135 -264l995 1812l189 -112l-998 -1815z" />
<glyph unicode="0" horiz-adv-x="1234" d="M102 670q24 200 110.5 357.5t221.5 246t295 88.5t276.5 -89t168.5 -247.5t28 -357.5q-24 -198 -111 -356.5t-222 -249.5t-294 -91t-276 91t-169 251t-28 357zM393 670q-30 -221 22 -344t171 -123t205 123t116 344q32 222 -19.5 342.5t-170.5 120.5t-205.5 -120.5 t-118.5 -342.5z" />
<glyph unicode="1" horiz-adv-x="749" d="M127 1090l543 258h41l-187 -1348h-278l139 950l-158 -76z" />
<glyph unicode="2" horiz-adv-x="1087" d="M-8 41q344 310 439 402q227 221 286 353q21 45 26 85q18 120 -33.5 183.5t-140.5 63.5q-118 0 -219 -118h-31l-141 153q56 76 171.5 136.5t258.5 60.5q83 0 161 -31t140.5 -87.5t95.5 -148.5t21 -202q-6 -60 -27 -117t-51.5 -109.5t-91 -123.5t-122 -136.5t-167.5 -171.5 h385l-32 -233h-918z" />
<glyph unicode="3" horiz-adv-x="1046" d="M20 63l82 207l33 2q40 -28 110 -52.5t148 -24.5q112 0 197 59.5t88 173.5q1 62 -30 111t-83.5 74.5t-119.5 32.5t-138 -15l-24 45l342 424h-414l33 233h813l12 -35l-399 -503q30 -3 68 -18.5t79 -48t74 -75t53 -105t17 -132.5q-7 -140 -80 -242.5t-188 -152.5t-259 -50 q-149 0 -240 23.5t-174 68.5z" />
<glyph unicode="4" horiz-adv-x="1193" d="M-8 270l977 1080l114 -21l-129 -921h174l-34 -220h-170l-27 -188h-274l26 188h-616zM422 408h262l53 358z" />
<glyph unicode="5" horiz-adv-x="1062" d="M20 63l82 207l33 2q39 -28 108.5 -51.5t149.5 -23.5q71 0 134.5 26.5t107 83.5t43.5 133q0 99 -65.5 158t-166.5 59q-37 0 -68 -5.5t-56.5 -18t-40 -21t-38 -26.5t-30.5 -23l-57 17l176 753h712l-34 -233h-475l-62 -275q44 11 127.5 8.5t138.5 -24.5q40 -16 77 -43.5 t72 -69.5t55.5 -105t19.5 -138q-3 -213 -154 -347.5t-403 -134.5q-257 0 -386 92z" />
<glyph unicode="6" horiz-adv-x="1120" d="M98 535q19 123 62.5 231t101.5 189t131.5 147.5t150 111.5t158.5 77t155.5 48.5t143.5 20.5l48 -209l-27 -29q-201 -21 -354.5 -127.5t-221.5 -259.5q85 90 265 90q68 0 132 -28.5t113 -79t76.5 -127.5t20.5 -166q-13 -202 -151.5 -327.5t-346.5 -125.5 q-146 0 -256.5 68.5t-165 198t-35.5 297.5zM373 418q-8 -91 43 -156t139 -65q90 0 148 59.5t67 155.5t-41.5 160.5t-134.5 64.5q-89 0 -150.5 -61.5t-70.5 -157.5z" />
<glyph unicode="7" horiz-adv-x="1038" d="M84 0l633 1100h-512l31 233h878l16 -37l-718 -1296h-328z" />
<glyph unicode="8" horiz-adv-x="1134" d="M66 422q15 118 93.5 209.5t176.5 113.5q-46 30 -79 103t-19 168q21 153 139 248.5t309 95.5q122 -1 215 -54t135.5 -139.5t30.5 -185.5q-13 -95 -57.5 -158.5t-102.5 -91.5q70 -33 122.5 -125.5t41.5 -206.5q-19 -196 -159.5 -312t-383.5 -116q-111 1 -203.5 37 t-152.5 97t-88.5 143.5t-17.5 173.5zM346 410q-10 -92 50.5 -149.5t150.5 -59.5q94 0 166.5 56t81.5 151t-49.5 151.5t-149.5 56.5q-97 0 -168.5 -54.5t-81.5 -151.5zM483 973q-6 -70 36.5 -118t107.5 -50q68 0 125 47.5t63 118.5q4 72 -39 117t-106 47q-69 0 -126 -45.5 t-61 -116.5z" />
<glyph unicode="9" horiz-adv-x="1120" d="M133 907q13 201 152 327t346 126q109 0 200 -40t152.5 -112t89.5 -178.5t14 -232.5q-26 -171 -99 -311.5t-167.5 -231t-210 -154.5t-221 -93.5t-205.5 -35.5l-47 209l29 29q199 20 352 127t223 260q-85 -90 -266 -90q-143 0 -248 112.5t-94 288.5zM416 920 q-9 -96 41.5 -161t134.5 -65q89 0 150.5 61.5t70.5 155.5q9 92 -41.5 158t-138.5 66q-91 0 -149.5 -60t-67.5 -155z" />
<glyph unicode=":" horiz-adv-x="548" d="M57 156q8 71 59 119.5t120 48.5q71 0 119 -54t42 -125q-6 -73 -56.5 -119t-123.5 -46q-70 0 -118 51t-42 125zM133 711q8 71 58.5 119.5t119.5 48.5q72 0 120 -54t42 -125q-6 -73 -56.5 -119t-123.5 -46q-70 0 -118 51t-42 125z" />
<glyph unicode=";" horiz-adv-x="548" d="M-53 -326l164 637h313v-35l-395 -624zM135 711q8 71 58.5 119.5t119.5 48.5q72 0 120 -54t42 -125q-6 -73 -56.5 -119t-123.5 -46q-70 0 -118 51t-42 125z" />
<glyph unicode="&#x3c;" horiz-adv-x="1050" d="M70 670l6 49l958 467l-39 -281l-454 -219l393 -219l-39 -264z" />
<glyph unicode="=" horiz-adv-x="1011" d="M78 399l31 228h835l-33 -228h-833zM131 776l31 230h835l-32 -230h-834z" />
<glyph unicode="&#x3e;" horiz-adv-x="1050" d="M68 205l38 280l455 220l-393 219l39 264l825 -467l-6 -49z" />
<glyph unicode="?" horiz-adv-x="872" d="M143 1225q48 45 147.5 90t221.5 45q53 0 108 -12t110 -39.5t96 -67.5t63.5 -101.5t15.5 -135.5q-5 -59 -29 -109t-58.5 -86.5t-74.5 -69.5t-80 -63.5t-73.5 -62t-56.5 -72.5t-27 -88h-207q-12 72 -2 124.5t37.5 98t63 78t73.5 64.5t70 58t52.5 57.5t20.5 63.5 q0 50 -43.5 83.5t-107.5 33.5q-99 0 -197 -76zM195 139v17q6 69 57.5 118.5t120.5 49.5q67 0 114.5 -48.5t47.5 -115.5q0 -78 -52.5 -129t-128.5 -51q-68 0 -113.5 45t-45.5 114z" />
<glyph unicode="@" horiz-adv-x="1689" d="M90 670q23 172 101 320t194 252t269.5 163t324.5 59q162 0 304 -62.5t236 -165.5t139.5 -241t24.5 -284q-31 -215 -152 -346.5t-284 -131.5q-75 0 -138.5 46t-68.5 98q-32 -57 -98 -100t-151 -44q-149 -3 -239 112t-60 296q18 103 69 186t136 135.5t190 55.5 q79 1 144 -38t89 -95l88 94h119l-135 -418q-27 -72 -8 -123t90 -51q87 0 164 87.5t98 236.5q13 88 -5.5 177.5t-66 168t-117 139t-165.5 96t-205 35.5q-277 0 -481 -183t-250 -474q-21 -138 12.5 -269t109 -230.5t196.5 -159.5t265 -60q131 0 234.5 28t208.5 87l63 -115 q-234 -137 -499 -137q-147 0 -275.5 46.5t-221.5 128.5t-156 189.5t-87 234t-6 257.5zM700 631q-17 -83 18 -142t101 -57q67 0 117.5 54t71.5 141q19 80 -15 140t-100 60q-69 -2 -121 -53t-72 -143z" />
<glyph unicode="A" horiz-adv-x="1314" d="M-80 0l858 1452h47l445 -1452h-289l-66 233h-548l-136 -233h-311zM481 461h371l-123 440z" />
<glyph unicode="B" horiz-adv-x="1153" d="M82 8l201 1422q71 14 145 22q65 7 134 7h19q79 -1 149.5 -12.5t134.5 -39t109.5 -69t71.5 -105.5q24 -59 23 -134v-12q-3 -109 -68.5 -193.5t-123.5 -111.5q32 -10 68.5 -37t72.5 -69q36 -44 58 -110q17 -54 17 -112q0 -14 -1 -28q-8 -97 -47 -174.5t-116 -139t-194 -93 t-279 -37.5q-27 -1 -55 -2q-143 0 -319 28zM387 233q48 -11 98 -12q22 0 44 3q73 7 133.5 28t103.5 71t51 119q2 15 2 29q1 67 -39 117q-48 60 -110 74h-224zM477 874h176q55 13 97.5 57t48.5 109q1 11 1 22q0 38 -14 68q-18 38 -48.5 57t-69.5 29q-32 8 -63 7h-13 q-37 -2 -68 -11z" />
<glyph unicode="C" horiz-adv-x="1384" d="M90 750q14 167 85 304t179 226t244.5 137.5t284.5 48.5q100 0 198 -26t169 -65.5t120.5 -77.5t75.5 -70l-164 -195q-185 185 -395 185q-197 0 -345 -136.5t-165 -353.5q-1 -18 -1 -35q0 -77 25 -151q31 -91 90.5 -161.5t150.5 -113.5t198 -43q188 0 340 111l129 -203 q-188 -160 -506 -160q-144 0 -279 58.5t-236 159.5t-156 249q-44 119 -44 250q0 30 2 62z" />
<glyph unicode="D" horiz-adv-x="1370" d="M82 0l201 1430q154 30 282 30q25 0 49 -1q147 -7 260.5 -39.5t197 -93t139 -132t87.5 -155.5q32 -83 43 -163q7 -51 7 -102q0 -27 -2 -55q-5 -61 -18 -120t-39 -125t-62.5 -124.5t-92.5 -116t-125 -103t-163.5 -80.5t-205.5 -53.5t-253.5 -18.5t-304.5 22zM391 236 q48 -6 95 -6q70 0 138 14q112 22 206 79.5t156.5 160t78.5 237.5q4 33 4 64q1 79 -23 149q-32 98 -102 166q-70 67 -178 96q-63 17 -133 17q-51 0 -105 -9z" />
<glyph unicode="E" horiz-adv-x="1067" d="M82 0l201 1438h809l-33 -234h-533l-41 -289h430l-32 -233h-430l-62 -449h553l-33 -233h-829z" />
<glyph unicode="F" horiz-adv-x="1015" d="M82 0l201 1438h792l-31 -234h-518l-41 -289h414l-33 -233h-413l-97 -682h-274z" />
<glyph unicode="G" horiz-adv-x="1480" d="M86 686q0 144 43.5 269.5t119.5 218t177 159t217.5 100t239.5 33.5q97 0 192 -25t166.5 -64t121 -75t79.5 -69l-164 -199q-183 183 -389 183q-99 0 -191.5 -38t-164.5 -104.5t-115 -165.5t-43 -213q0 -124 56 -231.5t164.5 -175.5t246.5 -68q149 0 278 70l29 194h-219 l33 232h473l-72 -561q-124 -101 -257.5 -143t-297.5 -42q-140 0 -271.5 53.5t-231.5 146.5t-160 227.5t-60 287.5z" />
<glyph unicode="H" horiz-adv-x="1304" d="M82 0l201 1438h276l-72 -523h465l72 523h276l-200 -1438h-279l99 682h-465l-97 -682h-276z" />
<glyph unicode="I" horiz-adv-x="567" d="M82 0l201 1438h276l-201 -1438h-276z" />
<glyph unicode="J" horiz-adv-x="854" d="M43 -4l31 231q29 -4 56 -4q106 0 181 56q94 70 117 225l131 934h277l-134 -942q-39 -285 -200 -414q-121 -96 -320 -96q-66 0 -139 10z" />
<glyph unicode="K" horiz-adv-x="1257" d="M86 0l201 1438h278l-82 -586l539 586h330l-617 -676l459 -762h-336l-399 692l-94 -692h-279z" />
<glyph unicode="L" horiz-adv-x="989" d="M82 0l201 1438h274l-168 -1205h524l-32 -233h-799z" />
<glyph unicode="M" horiz-adv-x="1515" d="M82 0l201 1442l41 10l495 -545l654 545l38 -10l-202 -1442h-273l129 893l-383 -324h-20l-281 324l-127 -893h-272z" />
<glyph unicode="N" horiz-adv-x="1331" d="M82 0l201 1440l39 12l661 -545l74 531h270l-201 -1438h-270l82 580l-455 370l-133 -950h-268z" />
<glyph unicode="O" horiz-adv-x="1587" d="M96 725q9 157 70.5 293.5t161.5 235.5t238.5 155.5t295.5 56.5q153 0 287.5 -59.5t228.5 -160.5q94 -102 144 -242q42 -117 42 -244q0 -25 -1 -51q-10 -156 -71 -292t-161 -234.5t-239 -155t-299 -56.5q-152 0 -286 59t-227 160q-94 100 -144 240q-42 116 -42 244 q0 25 2 51zM379 717l-2 -40q1 -189 115 -315q126 -138 313 -139q190 0 325 133t150 361q1 21 1 41q-1 188 -111 318q-122 144 -308 143q-191 0 -329.5 -137t-153.5 -365z" />
<glyph unicode="P" horiz-adv-x="1103" d="M86 0l201 1427q133 33 251 32q52 1 100 -5q160 -20 276 -87t176 -179q52 -97 52 -212q0 -19 -1 -38q-12 -175 -112.5 -304t-259.5 -191q-137 -53 -297 -53q-26 0 -52 1l-58 -391h-276zM453 637q21 -1 41 -1q154 0 250 76q109 86 122 220q1 11 1 22q-1 44 -17 88 q-20 54 -61 95t-109 59q-40 11 -85 11q-31 0 -65 -5z" />
<glyph unicode="Q" horiz-adv-x="1587" d="M96 725q9 157 70.5 293.5t161.5 235.5t238.5 155.5t295.5 56.5q153 0 287.5 -59.5t228.5 -160.5t144 -242q43 -117 43 -244q0 -25 -2 -51q-12 -181 -88.5 -331.5t-206.5 -250.5l102 -150l-201 -145l-122 178q-122 -39 -254 -39q-152 0 -286 59t-227.5 160t-143.5 240 q-42 117 -42 244q0 25 2 51zM379 717q-1 -20 -1 -40q0 -190 114 -315q125 -139 313 -139q51 0 90 8l-117 172l199 148l141 -207q147 138 162 373q1 21 1 41q0 188 -111 318q-122 143 -308 143q-191 0 -329.5 -137t-153.5 -365z" />
<glyph unicode="R" horiz-adv-x="1189" d="M86 0l201 1427q115 27 223 31q21 1 41 1q85 0 161 -14q92 -17 169 -57t131 -97.5t84 -137t30 -174.5q0 -144 -77.5 -265.5t-214.5 -193.5q58 -98 165 -275t148 -245h-324l-243 436q-35 -3 -69 -3q-45 0 -87 5l-62 -438h-276zM459 688q28 -4 56 -4q39 0 79 8 q68 13 126 45.5t94 92.5t36 139q0 83 -46 141q-48 58 -120 80q-46 14 -95 15q-29 0 -59 -5z" />
<glyph unicode="S" horiz-adv-x="1052" d="M29 104l110 222q172 -109 318 -109q95 0 152.5 41.5t62.5 108.5q2 31 -7 59t-21 48t-42 47t-50.5 43t-66.5 49q-14 10 -22 16q-67 49 -112.5 91t-86.5 96q-42 54 -60 118q-15 52 -15 111q0 13 1 26q2 56 21.5 111t59 106.5t94.5 91t135.5 63t175.5 23.5q110 0 214 -27 t161 -61l-97 -237q-138 76 -276 76q-91 -1 -147 -45q-58 -46 -58 -109q0 -57 48 -108q49 -52 149 -117q92 -57 153.5 -117.5t91 -121.5t38.5 -118q5 -34 5 -71q0 -24 -2 -50q-20 -187 -158 -289q-135 -100 -350 -100h-8q-133 1 -242.5 41.5t-168.5 91.5z" />
<glyph unicode="T" horiz-adv-x="1024" d="M139 1204l31 234h956l-32 -234h-340l-170 -1204h-277l172 1204h-340z" />
<glyph unicode="U" horiz-adv-x="1275" d="M113 512l131 926h280l-131 -932q-5 -30 -5 -57q0 -89 47 -151q61 -82 173 -81q110 0 187.5 79t97.5 210l131 932h281l-131 -926q-16 -113 -58.5 -208.5t-112 -171t-174 -118.5t-233.5 -43t-229.5 43.5t-160.5 117.5t-84 172q-15 61 -15 126q0 40 6 82z" />
<glyph unicode="V" horiz-adv-x="1327" d="M143 1438h289l246 -867l489 867h299l-845 -1452h-48z" />
<glyph unicode="W" horiz-adv-x="1912" d="M141 1438h293l191 -805l440 819h47l221 -831l430 817h289l-774 -1452h-51l-223 848l-451 -848h-51z" />
<glyph unicode="X" horiz-adv-x="1226" d="M-20 0l524 723l-326 715h311l205 -451l330 451h301l-514 -707l336 -731h-309l-217 467l-338 -467h-303z" />
<glyph unicode="Y" horiz-adv-x="1206" d="M135 1438h301l236 -496l372 496h310l-580 -789l-92 -649h-276l90 649z" />
<glyph unicode="Z" horiz-adv-x="1124" d="M-14 39l782 1165h-543l31 234h940l14 -39l-780 -1166h582l-33 -233h-979z" />
<glyph unicode="[" horiz-adv-x="815" d="M43 -270l242 1708h555l-31 -221l-279 -3l-180 -1263h281l-33 -221h-555z" />
<glyph unicode="\" horiz-adv-x="966" d="M209 1446l221 61l455 -1777l-219 -64z" />
<glyph unicode="]" horiz-adv-x="815" d="M4 -270l31 221l278 2l181 1264h-281l33 221h555l-242 -1708h-555z" />
<glyph unicode="^" horiz-adv-x="874" d="M90 1004l455 434h26l324 -461l-174 -129l-193 280l-295 -280z" />
<glyph unicode="_" horiz-adv-x="1376" d="M0 -188h1376v-197h-1376v197z" />
<glyph unicode="`" horiz-adv-x="540" d="M125 1225v35h317l125 -287h-205z" />
<glyph unicode="a" horiz-adv-x="956" d="M149.5 463q92.5 82 231.5 82q80 0 164 -34.5t117 -74.5l4 29q3 16 3 32q0 62 -42 111q-52 62 -152 62q-92 0 -182 -37l-55 196q134 50 282 50q86 -1 161 -30.5t131 -84.5q56 -54 82 -140q18 -57 18 -124q0 -32 -5 -66l-63 -434h-137l-84 80q-35 -46 -102 -77.5 t-161 -31.5q-132 -1 -218 77q-85 77 -85 197q0 136 92.5 218zM303 268v-8q0 -39 36 -68q40 -32 97 -32q73 0 131.5 39.5t71.5 89.5l2 8q-29 31 -83 53q-52 22 -109 21h-5q-62 0 -98.5 -28.5t-42.5 -74.5z" />
<glyph unicode="b" horiz-adv-x="1073" d="M55 0l203 1438l242 24h22q-47 -325 -96 -682q109 101 258 101q150 0 253 -114.5t103 -299.5q0 -218 -121.5 -356t-302.5 -138q-97 0 -173.5 43.5t-118.5 124.5l-131 -141h-138zM373 391q0 -97 56 -154t132 -57q90 0 157.5 74.5t67.5 200.5q0 103 -55.5 161t-134.5 58 q-37 0 -74 -16t-71.5 -48t-56 -89t-21.5 -130z" />
<glyph unicode="c" horiz-adv-x="868" d="M68 424q13 209 153.5 333t343.5 124q97 0 187 -39.5t139 -98.5l-146 -161q-27 34 -76.5 62t-103.5 28q-98 0 -169.5 -68t-78.5 -180q-1 -9 -1 -18q0 -94 57 -155q62 -67 149 -67q101 0 189 72l116 -158q-116 -127 -335 -127q-104 0 -188.5 39.5t-136.5 104.5t-78 145 q-22 67 -22 137q0 13 1 27z" />
<glyph unicode="d" horiz-adv-x="1073" d="M66 387q0 216 123 355t303 139q91 0 164.5 -41t119.5 -115l98 713l242 24h23l-207 -1462h-131q-14 12 -29 26.5t-33 31.5t-28 26q-99 -111 -271 -111q-161 0 -267.5 114t-106.5 300zM319 397q0 -101 57 -160t136 -59q38 0 75.5 16.5t71.5 49t55 88.5t21 127 q0 99 -55.5 156t-132.5 57q-91 0 -159.5 -75t-68.5 -200z" />
<glyph unicode="e" horiz-adv-x="964" d="M68 408q0 103 39.5 192.5t106 150.5t152.5 95.5t179 34.5q76 0 145.5 -26.5t123.5 -75t86 -124t32 -166.5q0 -49 -12 -108h-605v-7q1 -82 67 -140q70 -60 175 -60q119 0 217 74l111 -156q-68 -62 -153 -90.5t-208 -28.5q-199 0 -327.5 124.5t-128.5 310.5zM346 537h340 q0 58 -43.5 100.5t-107.5 42.5q-68 0 -123 -45t-66 -98z" />
<glyph unicode="f" horiz-adv-x="673" d="M82 649v25l70 178h88l36 260q13 88 47.5 156.5t80.5 108t99 64t107 31.5q33 4 64 4q18 0 36 -2q45 -4 81 -16l-43 -219q-25 7 -50 7q-47 0 -90 -26q-67 -41 -80 -139l-30 -229h194l-28 -203h-195l-92 -649h-258l92 649h-129z" />
<glyph unicode="g" horiz-adv-x="1013" d="M-17 -86q72 70 167 94q-39 10 -68 48q-24 30 -24 70q0 9 1 19q10 59 66 99q44 30 99 30q16 0 32 -2q-68 32 -108 116q-36 73 -36 139q0 10 1 20q4 45 20.5 90.5t49.5 89.5t78.5 78t111.5 55t143 21q86 0 172 -32t121 -79l225 82h37l-31 -223h-172q13 -23 9 -62 q-11 -158 -113 -251t-291 -99q-136 0 -145 -63q-6 -29 26.5 -47t83.5 -21q452 -30 455 -287v-6q0 -100 -66 -176q-68 -78 -187.5 -118t-272.5 -40q-197 0 -327 78q-130 77 -130 207q0 98 73 170zM164 -248q0 -30 28 -51q30 -22 71 -30.5t87 -8.5q128 0 206 32q77 31 77 88v1 q-1 29 -26 50t-65 31t-80 14q-31 3 -63 3h-16q-86 -3 -152 -36q-67 -34 -67 -93zM354 545q-1 -8 -1 -16q0 -45 34 -81q40 -42 100 -42q59 0 99.5 40.5t48.5 98.5q1 8 1 15q0 48 -34 84q-40 40 -100 40q-61 0 -101.5 -39.5t-46.5 -99.5z" />
<glyph unicode="h" horiz-adv-x="1021" d="M53 0l121 852l84 586l242 24h22l-98 -690q36 46 98.5 77.5t136.5 31.5q94 0 170 -47q75 -46 115 -132q29 -62 29 -134q0 -27 -4 -56l-70 -512h-262l70 492q2 15 2 29q1 55 -33 96q-42 51 -117 51q-56 0 -102.5 -37.5t-65.5 -98.5l-76 -532h-262z" />
<glyph unicode="i" horiz-adv-x="473" d="M61 0l121 852h258l-118 -852h-261zM190 1212q6 69 58 118.5t121 49.5q71 0 119 -54q42 -47 41 -105q0 -9 -1 -19q-6 -73 -56.5 -119.5t-121.5 -46.5q-70 0 -118 52q-42 45 -43 106q0 9 1 18z" />
<glyph unicode="j" horiz-adv-x="473" d="M-217 -506l43 219q22 -4 43 -4q54 0 99 29q64 41 75 133l137 981h258l-141 -1012q-12 -87 -46 -155t-80 -107.5t-98.5 -64t-106.5 -31.5q-38 -4 -71 -4q-15 0 -30 1q-46 3 -82 15zM193 1212q6 70 57 119t121 49t117 -54q43 -48 43 -109q0 -7 -1 -15q-6 -73 -57 -119.5 t-123 -46.5q-69 0 -116 52q-42 45 -42 106q0 9 1 18z" />
<glyph unicode="k" horiz-adv-x="962" d="M55 0l203 1438l242 24h22l-131 -919l318 309h311l-410 -412l299 -440h-301l-239 365l-54 -365h-260z" />
<glyph unicode="l" horiz-adv-x="462" d="M55 0l203 1438l242 24h22l-207 -1462h-260z" />
<glyph unicode="m" horiz-adv-x="1449" d="M53 0l121 852h137l97 -82q32 46 90 78.5t125 32.5q89 0 152 -43t91 -109q40 74 114.5 113t152.5 39q136 0 213 -102q60 -79 60 -186q0 -30 -5 -63l-72 -530h-264l72 508q3 19 3 35q0 49 -22 79q-30 40 -86 40q-48 0 -85 -40t-52 -108l-74 -514h-260l72 504q2 16 2 31 q0 51 -24 84q-31 43 -89 43q-53 0 -89.5 -45t-47.5 -121l-70 -496h-262z" />
<glyph unicode="n" d="M53 0l121 852h137l97 -86q33 46 102.5 80.5t148.5 34.5q94 0 170 -47q75 -46 115 -132q29 -62 29 -134q0 -27 -4 -56l-70 -512h-262l70 492q2 15 2 29q1 55 -33 96q-42 51 -117 51q-65 0 -116 -49t-60 -125l-70 -494h-260z" />
<glyph unicode="o" d="M68 428q13 202 150.5 327.5t332.5 125.5q126 0 227.5 -55.5t157.5 -159.5q49 -92 50 -205q0 -16 -1 -33q-12 -201 -150.5 -329t-334.5 -128q-93 0 -175 33.5t-141 92.5q-58 59 -90 145q-26 72 -27 154q0 16 1 32zM319 428q-1 -13 -1 -25q0 -95 50 -155q56 -68 138 -68 q85 0 151.5 67.5t73.5 180.5q1 15 1 30q0 93 -50 150q-58 66 -141.5 66t-148 -65.5t-73.5 -180.5z" />
<glyph unicode="p" horiz-adv-x="1075" d="M-14 -506q123 886 192 1356h131q61 -64 90 -100q115 129 279 129q156 0 260 -114.5t104 -301.5q0 -216 -125 -354t-307 -138q-191 0 -276 140q-12 -84 -86 -590l-242 -27h-20zM375 389q0 -97 56 -154t132 -57q90 0 157.5 75t67.5 200q0 103 -55.5 161t-134.5 58 q-37 0 -74 -16t-71.5 -47.5t-56 -88.5t-21.5 -131z" />
<glyph unicode="q" horiz-adv-x="1075" d="M68 391q0 213 121.5 349.5t297.5 136.5q217 0 299 -150q107 102 132 125h137l-189 -1331l-241 -27h-23l82 559q-100 -80 -256 -80q-152 0 -256 116t-104 302zM322 397q0 -101 57 -160t135 -59q38 0 76 17t71 49.5t53.5 89.5t20.5 129q0 98 -54.5 153.5t-131.5 55.5 q-91 0 -159 -75t-68 -200z" />
<glyph unicode="r" horiz-adv-x="669" d="M53 0l121 852h143l97 -82q27 46 78 77.5t106 31.5q66 0 113 -35q-3 -9 -22.5 -76.5t-37 -114.5t-28.5 -47q-46 23 -93 23q-76 0 -137 -68q-17 -107 -44.5 -306.5t-35.5 -254.5h-260z" />
<glyph unicode="s" horiz-adv-x="849" d="M29 57l71 201q38 -21 126.5 -48.5t168.5 -27.5q130 0 135 58q1 16 -6.5 27.5t-29 21.5t-40 16t-57.5 17q-143 40 -215 116q-61 64 -61 152q0 16 2 33q10 68 47.5 120t92.5 81t115.5 43t125.5 14q81 0 167.5 -20t149.5 -46l-65 -209q-54 25 -131.5 43.5t-137.5 18.5 q-111 0 -116 -62q-3 -27 30 -45t95 -31q159 -35 226 -118q56 -70 56 -155q0 -17 -2 -34q-9 -68 -45.5 -119t-92 -79t-117.5 -41t-132 -13q-105 0 -208.5 28.5t-151.5 57.5z" />
<glyph unicode="t" horiz-adv-x="665" d="M68 647l4 27l67 178h97l38 285l242 28h21l-43 -313h186l-29 -205h-186l-53 -360q-1 -10 -1 -19q0 -33 20 -50q26 -21 67 -21q19 0 55 8l16 -205q-65 -12 -123 -12q-70 0 -126.5 17.5t-97.5 52.5q-42 34 -60 94q-12 37 -12 82q0 26 4 55l53 358h-139z" />
<glyph unicode="u" horiz-adv-x="1015" d="M88 340l70 512h262l-70 -492q-2 -15 -2 -29q0 -55 34 -96q42 -51 116 -51q64 0 115 48.5t61 125.5l69 494h261l-121 -852h-138l-96 88q-35 -47 -105 -82t-147 -35q-70 0 -132 28t-105 75.5t-63 117.5q-13 45 -13 94q0 26 4 54z" />
<glyph unicode="v" horiz-adv-x="954" d="M74 852h276l142 -397l260 397h282l-575 -866h-53z" />
<glyph unicode="w" horiz-adv-x="1376" d="M74 852h266l125 -387l266 403h53l154 -403l240 387h278l-538 -866h-70l-148 444l-282 -444h-53z" />
<glyph unicode="x" horiz-adv-x="974" d="M-12 0q243 278 374 424l-260 428h297q33 -51 140 -225l202 225h299q-243 -278 -378 -430l260 -422h-295l-142 219l-196 -219h-301z" />
<glyph unicode="y" horiz-adv-x="960" d="M-18 -492l354 605l-252 739h272l146 -453l266 453h272l-784 -1364h-258z" />
<glyph unicode="z" horiz-adv-x="886" d="M2 45l487 604h-364l27 203h753l6 -47l-467 -598h361l-29 -207h-760z" />
<glyph unicode="{" horiz-adv-x="942" d="M78 477l28 209h48q50 0 87 15t59 36.5t37 56.5t21 63t11 67l20 147q11 79 39 146t75 123t121 88t167 32q84 0 182 -26q-10 -43 -32.5 -121t-29.5 -105q-56 9 -65 9q-81 0 -125.5 -45t-54.5 -115l-27 -180q-15 -116 -83 -199t-167 -105q88 -25 135.5 -89.5t36.5 -170.5 l-24 -217q0 -29 3.5 -50.5t14 -45.5t35 -37.5t61.5 -13.5q15 0 45 6q3 -40 19 -114.5t20 -110.5q-89 -25 -155 -25q-159 0 -254.5 112.5t-73.5 262.5l31 205q13 89 -31.5 140.5t-124.5 51.5h-49z" />
<glyph unicode="|" horiz-adv-x="593" d="M205 -268v1732h246v-1732h-246z" />
<glyph unicode="}" horiz-adv-x="942" d="M-6 -268q10 44 32.5 122t28.5 103q50 -8 66 -8q81 0 125.5 45t54.5 115l27 180q15 116 83 198.5t167 104.5q-88 25 -135.5 89.5t-36.5 170.5l24 217q0 29 -3.5 51t-14.5 46t-35.5 37.5t-61.5 13.5q-10 0 -45 -7q-3 40 -19 115t-20 111q85 24 156 24q159 0 254.5 -112.5 t73.5 -262.5l-31 -204q-13 -89 31.5 -141t124.5 -52h49l-29 -209h-47q-50 0 -87 -15t-59 -36.5t-37 -56t-21 -62.5t-11 -67l-20 -148q-11 -79 -39 -146t-75 -123t-121 -88t-167 -32q-80 0 -182 27z" />
<glyph unicode="~" horiz-adv-x="942" d="M59 367q0 70 18.5 125t46 87.5t64.5 53t70.5 28t67.5 7.5q58 0 165 -36t148 -36q89 0 139 57l92 -4q3 -64 -14 -117t-45.5 -86.5t-65.5 -56.5t-72 -33t-67 -10q-60 0 -165 36t-146 36q-99 0 -145 -56z" />
<glyph unicode="&#xa1;" horiz-adv-x="659" d="M0 -457l260 879h143l-10 -879h-393zM203 731q7 73 57.5 119.5t122.5 46.5q71 0 118.5 -51t41.5 -125q-6 -71 -57 -119.5t-121 -48.5q-72 0 -120 53.5t-42 124.5z" />
<glyph unicode="&#xa2;" horiz-adv-x="866" d="M61 666q0 189 107 315.5t276 159.5l33 254h219l-34 -252q71 -15 131.5 -49t91.5 -76q-25 -27 -75.5 -81t-74.5 -81q-27 36 -75 63t-103 27q-99 0 -172.5 -71t-73.5 -185q0 -105 61.5 -169t149.5 -64q101 0 185 65q113 -150 114 -151q-57 -56 -136 -88.5t-148 -32.5 l-35 -250h-219l39 274q-122 46 -191.5 155t-69.5 237z" />
<glyph unicode="&#xa3;" horiz-adv-x="1112" d="M12 0l15 211q83 -4 147.5 16.5t98 56t47 76t4.5 78.5h-201l33 230h133q-25 57 -38 90.5t-26.5 98.5t-7.5 120q9 93 50.5 167.5t104.5 120.5t140.5 70.5t161.5 24.5q134 0 249.5 -75t153.5 -202l-215 -98q-17 60 -73 102.5t-117 42.5q-72 0 -127.5 -42.5t-65.5 -120.5 q-8 -56 6 -110t43 -113t35 -76h228l-33 -230h-160q0 -106 -43 -172q5 -4 17.5 -13.5t18.5 -13.5t19 -11t24.5 -10.5t29 -6t38.5 -2.5q128 0 209 94l156 -153q-43 -65 -112 -107.5t-131.5 -57t-123.5 -14.5q-110 0 -185.5 29t-113.5 72q-50 -39 -112.5 -60t-122 -21.5t-93 2 t-61.5 7.5z" />
<glyph unicode="&#xa4;" horiz-adv-x="1290" d="M68 299l174 160q-56 106 -56 223q0 178 105 328q-37 47 -115 141q177 148 182 152l111 -134q123 68 254 68q145 0 268 -86q108 103 162 152l150 -164l-173 -160q54 -108 54 -229q0 -176 -103 -328l113 -135l-182 -154l-109 131q-116 -61 -252 -61q-148 0 -264 86 l-170 -156zM414 692q0 -105 71.5 -185.5t178.5 -80.5q127 0 210.5 94.5t83.5 218.5q0 107 -70 190t-181 83q-120 0 -201 -87.5t-90 -205.5q-2 -8 -2 -27z" />
<glyph unicode="&#xa5;" horiz-adv-x="1271" d="M135 279l31 213h338l18 129h-338l29 213h217l-278 499h297l247 -438l367 438h309l-420 -499h215l-30 -213h-338l-17 -129h336l-28 -213h-338l-39 -279h-277l39 279h-340z" />
<glyph unicode="&#xa6;" horiz-adv-x="593" d="M205 -268v714h246v-714h-246zM205 750v714h246v-714h-246z" />
<glyph unicode="&#xa7;" horiz-adv-x="1009" d="M-6 -199l88 224q72 -37 161.5 -61.5t170.5 -24.5q65 0 106 26.5t45 73.5q9 80 -135 137q-174 56 -260.5 143.5t-75.5 225.5q6 73 55 143t119 98q-39 39 -62 97t-16 129q5 72 33.5 131.5t72.5 98.5t100 66.5t114 39.5t117 12q93 0 192 -22.5t162 -59.5l-86 -225 q-154 77 -279 77q-68 0 -112.5 -31t-50.5 -77q-4 -39 29.5 -73.5t92.5 -55.5q215 -67 296 -161.5t63 -237.5q-9 -69 -56.5 -132t-111.5 -94q41 -36 63 -99t15 -132q-12 -106 -81.5 -183.5t-167.5 -114t-212 -36.5t-230.5 31t-158.5 67zM369 551q-10 -88 137 -141 q51 -5 100.5 21t52.5 79q7 100 -143 152q-43 7 -91.5 -23t-55.5 -88z" />
<glyph unicode="&#xa8;" horiz-adv-x="677" d="M129 1126q5 53 42.5 89t88.5 36q53 0 89 -39.5t32 -91.5q-4 -55 -42 -90t-91 -35t-89 38t-30 93zM463 1126q6 53 43.5 89t89.5 36q53 0 89 -39.5t32 -91.5q-6 -56 -43.5 -90.5t-91.5 -34.5q-52 0 -87.5 38t-31.5 93z" />
<glyph unicode="&#xa9;" horiz-adv-x="1576" d="M86 717q0 151 57 288t155 236.5t235 158t290 58.5t290.5 -58.5t235 -158t155 -236.5t57.5 -288t-57.5 -287t-155 -235t-235 -157t-290.5 -58t-290 58t-235 157t-155 235t-57 287zM240 717q0 -168 77 -308t212 -221.5t298 -81.5q162 0 298 81.5t214 222t78 307.5 q0 126 -46 239t-125 193.5t-188 128t-231 47.5q-163 0 -298 -80t-212 -219.5t-77 -308.5zM465 721q0 157 107 268t270 111q91 0 176.5 -43t130.5 -105l-113 -114q-82 94 -176 94q-80 0 -138 -59.5t-58 -155.5q0 -95 63.5 -153t140.5 -58q103 0 181 82q22 -19 60.5 -57 t47.5 -46q-54 -76 -141 -110.5t-164 -34.5q-170 0 -278.5 112t-108.5 269z" />
<glyph unicode="&#xaa;" horiz-adv-x="733" d="M125 1137q10 94 81.5 151.5t172.5 57.5q34 0 63 -4t53.5 -12.5t37.5 -14t34.5 -17.5t24.5 -14l6 23q10 52 -30.5 102.5t-110.5 50.5q-83 0 -154 -33l-57 138q125 53 241 51q60 -1 115 -22.5t99.5 -61.5t66 -105.5t10.5 -146.5l-51 -373h-102l-70 66q-25 -34 -75 -58 t-122 -24q-106 0 -174 72.5t-59 173.5zM311 1128q-6 -42 28 -64t79 -22q50 0 96 27.5t53 52.5l8 41q-6 3 -21.5 10t-25 11t-24.5 9t-32.5 7t-37.5 2q-47 0 -82.5 -17.5t-40.5 -56.5z" />
<glyph unicode="&#xab;" horiz-adv-x="1193" d="M55 385l6 43l463 492l158 -154l-356 -369l245 -288l-168 -140zM530 385l7 43l462 492l158 -154l-356 -369l246 -288l-168 -140z" />
<glyph unicode="&#xac;" horiz-adv-x="997" d="M74 391q6 38 16 114.5t16 115.5q137 0 411.5 1t410.5 1q0 -2 2 -2l-58 -396h-231l23 166h-590z" />
<glyph unicode="&#xad;" horiz-adv-x="733" d="M63 285l33 250l566 102l-35 -252z" />
<glyph unicode="&#xae;" horiz-adv-x="1576" d="M86 717q0 151 57 288t155 236.5t235 158t290 58.5t290.5 -58.5t235 -158t155 -236.5t57.5 -288t-57.5 -287t-155 -235t-235 -157t-290.5 -58t-290 58t-235 157t-155 235t-57 287zM240 717q0 -168 77 -308t212 -221.5t298 -81.5q162 0 298 81.5t214 222t78 307.5 q0 126 -46 239t-125 193.5t-188 128t-231 47.5q-163 0 -298 -80t-212 -219.5t-77 -308.5zM573 1071q119 29 201 29q166 0 261 -80t95 -193q0 -61 -30.5 -111.5t-73.5 -82.5l148 -271h-201l-107 211q-30 -6 -71 -6q-7 0 -21 1t-18 1v-207h-181q0 118 -1 354.5t-1 354.5z M756 719q14 -2 39 -2q70 0 107.5 31t37.5 79q0 47 -36 75t-95 28q-26 0 -53 -6v-205z" />
<glyph unicode="&#xaf;" horiz-adv-x="686" d="M127 1030l25 182h567l-27 -182h-565z" />
<glyph unicode="&#xb0;" horiz-adv-x="763" d="M117 1108q12 154 124 256t253 102q137 0 235 -102.5t88 -255.5q-10 -154 -118 -254t-259 -100q-147 0 -241 100.5t-82 253.5zM313 1108q-6 -69 34 -118.5t104 -49.5q68 0 116 49t54 119t-33.5 119t-106.5 49q-65 0 -112.5 -49t-55.5 -119z" />
<glyph unicode="&#xb1;" horiz-adv-x="1013" d="M53 233l31 211h829l-28 -211h-832zM125 735l31 215h301q7 60 28 201h232q-26 -179 -29 -201h301l-31 -215h-301l-26 -186h-232l27 186h-301z" />
<glyph unicode="&#xb2;" horiz-adv-x="706" d="M106 897q25 21 74 60q215 173 281 240q90 91 92 151q4 62 -41.5 93.5t-104.5 16.5t-92 -72h-22l-94 87q33 56 87 91.5t113 47t119.5 1t108 -40.5t76 -83.5t26.5 -122.5q-1 -30 -7 -57.5t-20.5 -54.5t-26.5 -46.5t-38 -48.5t-40.5 -44.5t-49.5 -50t-51 -50.5h217l-21 -152 h-575z" />
<glyph unicode="&#xb3;" horiz-adv-x="706" d="M125 911l57 133h27q81 -47 162 -47q34 0 66.5 10t59.5 36t31 63q7 62 -53 99.5t-166 8.5l-22 29l192 213h-252l21 143h512l8 -34l-215 -248q66 -12 115 -67t43 -148q-6 -115 -101 -187.5t-231 -72.5q-81 0 -147.5 21t-106.5 48z" />
<glyph unicode="&#xb4;" horiz-adv-x="540" d="M125 973l131 287h317v-35l-243 -252h-205z" />
<glyph unicode="&#xb5;" horiz-adv-x="1036" d="M-14 -506l192 1358h262l-69 -492q-9 -68 27.5 -122t119.5 -54q64 0 114 48.5t62 125.5q61 435 70 494h260l-121 -852h-137l-96 86q-31 -53 -94.5 -83t-126.5 -30q-99 0 -130 31l-71 -483l-242 -27h-20z" />
<glyph unicode="&#xb6;" horiz-adv-x="1161" d="M145 1036q26 188 173 294t370 106h531l-33 -234h-121l-209 -1470h-215l209 1470h-80l-211 -1470h-213l121 858q-59 11 -119.5 48.5t-111.5 93.5t-77 136.5t-14 167.5z" />
<glyph unicode="&#xb7;" horiz-adv-x="548" d="M117 569q8 71 58.5 119.5t119.5 48.5q72 0 120 -53.5t42 -124.5q-6 -73 -57 -119.5t-124 -46.5q-70 0 -117.5 51t-41.5 125z" />
<glyph unicode="&#xb8;" horiz-adv-x="495" d="M-53 -395l30 205q69 -12 125.5 8t63.5 73q3 27 -3.5 47.5t-15 31t-28.5 30.5l4 25l70 26q71 -3 128 -72.5t50 -148.5q-5 -57 -33.5 -103t-71.5 -73.5t-97 -45t-110.5 -16.5t-111.5 13z" />
<glyph unicode="&#xb9;" horiz-adv-x="548" d="M193 1479l327 139h31l-105 -756h-172l74 533l-100 -45z" />
<glyph unicode="&#xba;" horiz-adv-x="745" d="M145 1251q14 161 114 264t247 103q146 0 231.5 -105.5t71.5 -261.5q-14 -158 -114.5 -260t-245.5 -102q-146 0 -231 104.5t-73 257.5zM328 1251q-7 -81 26.5 -142.5t102.5 -61.5q72 0 115 60.5t53 143.5q8 86 -24 148.5t-105 62.5q-72 0 -116 -62.5t-52 -148.5z" />
<glyph unicode="&#xbb;" horiz-adv-x="1193" d="M23 121l356 368l-246 289l168 140l348 -416l-6 -43l-463 -492zM500 121l356 368l-246 289l168 140l348 -416l-6 -43l-463 -492z" />
<glyph unicode="&#xbc;" horiz-adv-x="1544" d="M172 57l1208 1368l101 -94l-1209 -1364zM174 1274l328 139h30l-104 -756h-172l74 533l-101 -45zM735 168l582 596l65 -27l-69 -489h94l-21 -144h-92l-14 -104h-172l16 104h-358zM1004 248h139l26 180z" />
<glyph unicode="&#xbd;" horiz-adv-x="1665" d="M172 57l1208 1368l101 -94l-1209 -1364zM172 1274l328 139h30l-104 -756h-172l74 533l-101 -45zM913 35q240 194 280 229q146 128 164 200q3 11 3 21q4 62 -41.5 93.5t-104.5 17t-92 -71.5h-22l-94 86q33 56 87 92t113 47t119.5 1t108 -40t76 -83.5t26.5 -122.5 q-1 -30 -7 -57.5t-20.5 -54.5t-26.5 -46.5t-38 -48.5t-40.5 -44.5t-49.5 -50t-51 -50.5h217l-21 -152h-575z" />
<glyph unicode="&#xbe;" horiz-adv-x="1640" d="M111 707l57 133h27q81 -47 161 -47q55 0 104 27t54 81q7 62 -53 100t-166 9l-23 28l193 213h-252l20 144h512l9 -35l-215 -248q66 -12 114.5 -67t42.5 -148q-6 -115 -100.5 -187.5t-230.5 -72.5q-80 0 -147 21.5t-107 48.5zM270 57l1209 1368l100 -94l-1208 -1364z M831 168l582 596l66 -27l-70 -489h94l-20 -144h-92l-15 -104h-172l17 104h-359zM1100 248h139l27 180z" />
<glyph unicode="&#xbf;" horiz-adv-x="759" d="M-59 -127q5 59 29 109t58.5 86.5t74.5 69.5t80 63.5t73.5 62t56.5 72.5t27 88h207q12 -72 2 -124.5t-37.5 -98t-63 -78.5t-74 -65t-70.5 -58t-52.5 -57.5t-20.5 -63.5q0 -50 44 -83.5t108 -33.5q99 0 197 76l122 -186q-48 -46 -147 -90.5t-221 -44.5q-53 0 -108 12 t-110 39.5t-96 67.5t-63.5 101.5t-15.5 135.5zM311 717q0 78 52.5 129t128.5 51q68 0 113.5 -45.5t45.5 -114.5v-16q-6 -69 -57.5 -118.5t-120.5 -49.5q-67 0 -114.5 48.5t-47.5 115.5z" />
<glyph unicode="&#xc0;" horiz-adv-x="1316" d="M-80 0l858 1452h47l445 -1452h-289l-66 233h-548l-136 -233h-311zM463 1796v35h317l125 -287h-205zM481 461h371l-123 440z" />
<glyph unicode="&#xc1;" horiz-adv-x="1316" d="M-80 0l858 1452h47l445 -1452h-289l-66 233h-548l-136 -233h-311zM481 461h371l-123 440zM713 1544l131 287h317v-35l-243 -252h-205z" />
<glyph unicode="&#xc2;" horiz-adv-x="1316" d="M-80 0l858 1452h47l445 -1452h-289l-66 233h-548l-136 -233h-311zM481 461h371l-123 440zM506 1544q36 47 106.5 143.5t106.5 143.5h262q94 -206 133 -287h-199q-10 12 -41 50.5t-49 58.5l-112 -109h-207z" />
<glyph unicode="&#xc3;" horiz-adv-x="1316" d="M-80 0l858 1452h47l445 -1452h-289l-66 233h-548l-136 -233h-311zM481 461h371l-123 440zM518 1597q2 62 20 107t46 69t59 35t66 11q52 0 123 -27t98 -27q34 0 51.5 13t30.5 37l94 -25q-7 -112 -67.5 -167.5t-137.5 -55.5q-44 0 -116 27.5t-91 27.5q-37 0 -52.5 -11.5 t-27.5 -37.5z" />
<glyph unicode="&#xc4;" horiz-adv-x="1316" d="M-80 0l858 1452h47l445 -1452h-289l-66 233h-548l-136 -233h-311zM481 461h371l-123 440zM530 1698q5 53 43 89t89 36q53 0 88.5 -39.5t31.5 -91.5q-4 -55 -42 -90t-91 -35t-89 38t-30 93zM864 1698q6 53 43.5 89t89.5 36q53 0 89 -39.5t32 -91.5q-6 -56 -43.5 -90.5 t-91.5 -34.5q-52 0 -87.5 38t-31.5 93z" />
<glyph unicode="&#xc5;" horiz-adv-x="1316" d="M-80 0l774 1341q-66 30 -102.5 92.5t-30.5 143.5q10 112 91.5 186t183.5 74t174 -74.5t63 -185.5q-6 -87 -59.5 -153t-132.5 -93l389 -1331h-289l-66 233h-548l-136 -233h-311zM481 461h371l-123 448zM709 1577q-5 -48 23 -83.5t73 -35.5q47 0 82.5 35.5t40.5 83.5 q3 50 -25.5 84.5t-75.5 34.5q-45 0 -79 -34.5t-39 -84.5z" />
<glyph unicode="&#xc6;" horiz-adv-x="1880" d="M-104 0l1173 1438h838l-33 -234h-533l-41 -284h431l-35 -236h-428l-64 -451h555l-35 -233h-827l31 231h-502l-193 -231h-337zM612 467h349l81 547z" />
<glyph unicode="&#xc7;" horiz-adv-x="1384" d="M90 748q16 166 86.5 303t178 227t244 139t286.5 49q102 0 197 -23.5t164.5 -61t118 -75t81.5 -75.5l-160 -197q-193 185 -397 185q-128 0 -238 -55.5t-185 -166t-91 -258.5q-9 -93 18.5 -184.5t84.5 -165.5t149.5 -120t203.5 -46q193 0 343 109l129 -207 q-171 -142 -453 -152q51 -67 45 -143q-5 -57 -33.5 -103t-71.5 -73.5t-97 -45t-110.5 -16.5t-111.5 13l31 205q69 -12 125 8t63 73q5 57 -33 95q-127 25 -236.5 90.5t-188.5 162t-118 229t-24 280.5z" />
<glyph unicode="&#xc8;" horiz-adv-x="1067" d="M82 0l201 1438h809l-33 -234h-533l-41 -289h430l-32 -233h-430l-62 -449h553l-33 -233h-829zM418 1796v35h317l125 -287h-205z" />
<glyph unicode="&#xc9;" horiz-adv-x="1067" d="M82 0l201 1438h809l-33 -234h-533l-41 -289h430l-32 -233h-430l-62 -449h553l-33 -233h-829zM539 1544l131 287h317v-35l-244 -252h-204z" />
<glyph unicode="&#xca;" horiz-adv-x="1067" d="M82 0l201 1438h809l-33 -234h-533l-41 -289h430l-32 -233h-430l-62 -449h553l-33 -233h-829zM395 1544q36 47 106.5 143.5t106.5 143.5h262q73 -159 134 -287h-199q-10 12 -41 50.5t-49 58.5l-113 -109h-207z" />
<glyph unicode="&#xcb;" horiz-adv-x="1067" d="M82 0l201 1438h809l-33 -234h-533l-41 -289h430l-32 -233h-430l-62 -449h553l-33 -233h-829zM430 1698q5 53 42.5 89t88.5 36q53 0 89 -39.5t32 -91.5q-4 -55 -42 -90t-91 -35t-89 38t-30 93zM764 1698q6 53 43.5 89t89.5 36q53 0 89 -39.5t32 -91.5q-6 -56 -43.5 -90.5 t-91.5 -34.5q-52 0 -87.5 38t-31.5 93z" />
<glyph unicode="&#xcc;" horiz-adv-x="567" d="M82 0l201 1438h276l-201 -1438h-276zM86 1796v35h317l125 -287h-204z" />
<glyph unicode="&#xcd;" horiz-adv-x="567" d="M82 0l201 1438h276l-201 -1438h-276zM326 1544l131 287h317v-35l-244 -252h-204z" />
<glyph unicode="&#xce;" horiz-adv-x="567" d="M82 0l201 1438h276l-201 -1438h-276zM123 1544q36 47 106.5 143.5t106.5 143.5h262q94 -206 133 -287h-199q-10 12 -41 50.5t-49 58.5l-112 -109h-207z" />
<glyph unicode="&#xcf;" horiz-adv-x="567" d="M82 0l201 1438h276l-201 -1438h-276zM158 1698q5 53 42.5 89t88.5 36q53 0 89 -39.5t32 -91.5q-4 -55 -42.5 -90t-91.5 -35t-88.5 38t-29.5 93zM492 1698q6 53 43.5 89t89.5 36q53 0 88.5 -39.5t31.5 -91.5q-6 -56 -43.5 -90.5t-91.5 -34.5q-52 0 -87 38t-31 93z" />
<glyph unicode="&#xd0;" horiz-adv-x="1425" d="M43 598l31 229h178l86 603q184 36 331 29t260.5 -39.5t197 -93t139 -132t87.5 -155.5t43 -163.5t5 -156.5q-5 -61 -17.5 -120t-38.5 -125t-62.5 -124.5t-92.5 -116t-125 -103t-164 -80.5t-206 -53.5t-253.5 -18.5t-304.5 22l84 598h-178zM446 236q97 -9 188 -0.5 t174.5 47t148 95.5t108 145.5t55.5 197.5q17 154 -43 274t-190 178.5t-303 30.5l-54 -377h324l-31 -229h-325z" />
<glyph unicode="&#xd1;" horiz-adv-x="1337" d="M82 0l201 1440l39 12l661 -545l74 531h270l-201 -1438h-270l82 580l-455 370l-133 -950h-268zM514 1597q2 62 20 107t46 69t59 35t66 11q52 0 123 -27t98 -27q34 0 51.5 13t30.5 37l94 -25q-7 -112 -67.5 -167.5t-137.5 -55.5q-44 0 -116 27.5t-91 27.5 q-37 0 -52.5 -11.5t-27.5 -37.5z" />
<glyph unicode="&#xd2;" horiz-adv-x="1581" d="M106 725q9 157 70.5 293.5t161.5 235.5t238.5 155.5t295.5 56.5q153 0 287.5 -59.5t228.5 -160.5t144.5 -241.5t40.5 -295.5q-10 -156 -71 -292t-161 -234.5t-239 -155t-299 -56.5q-152 0 -286 59t-227.5 160t-143.5 240.5t-40 294.5zM389 717q-13 -217 112.5 -355.5 t313.5 -138.5q190 0 325 133t150 361q13 215 -109.5 358.5t-308.5 143.5q-191 0 -329.5 -137t-153.5 -365zM551 1796v35h317l125 -287h-205z" />
<glyph unicode="&#xd3;" horiz-adv-x="1581" d="M106 725q9 157 70.5 293.5t161.5 235.5t238.5 155.5t295.5 56.5q153 0 287.5 -59.5t228.5 -160.5t144.5 -241.5t40.5 -295.5q-10 -156 -71 -292t-161 -234.5t-239 -155t-299 -56.5q-152 0 -286 59t-227.5 160t-143.5 240.5t-40 294.5zM389 717q-13 -217 112.5 -355.5 t313.5 -138.5q190 0 325 133t150 361q13 215 -109.5 358.5t-308.5 143.5q-191 0 -329.5 -137t-153.5 -365zM788 1544l132 287h317v-35l-244 -252h-205z" />
<glyph unicode="&#xd4;" horiz-adv-x="1581" d="M106 725q9 157 70.5 293.5t161.5 235.5t238.5 155.5t295.5 56.5q153 0 287.5 -59.5t228.5 -160.5t144.5 -241.5t40.5 -295.5q-10 -156 -71 -292t-161 -234.5t-239 -155t-299 -56.5q-152 0 -286 59t-227.5 160t-143.5 240.5t-40 294.5zM389 717q-13 -217 112.5 -355.5 t313.5 -138.5q190 0 325 133t150 361q13 215 -109.5 358.5t-308.5 143.5q-191 0 -329.5 -137t-153.5 -365zM602 1544q36 47 106.5 143.5t106.5 143.5h262q94 -206 133 -287h-198q-10 12 -41 50.5t-49 58.5l-113 -109h-207z" />
<glyph unicode="&#xd5;" horiz-adv-x="1581" d="M106 725q9 157 70.5 293.5t161.5 235.5t238.5 155.5t295.5 56.5q153 0 287.5 -59.5t228.5 -160.5t144.5 -241.5t40.5 -295.5q-10 -156 -71 -292t-161 -234.5t-239 -155t-299 -56.5q-152 0 -286 59t-227.5 160t-143.5 240.5t-40 294.5zM389 717q-13 -217 112.5 -355.5 t313.5 -138.5q190 0 325 133t150 361q13 215 -109.5 358.5t-308.5 143.5q-191 0 -329.5 -137t-153.5 -365zM635 1597q2 62 19.5 107t46 69t59 35t65.5 11q52 0 123.5 -27t98.5 -27q24 0 41 8t24 17t16 25l95 -25q-7 -112 -67.5 -167.5t-137.5 -55.5q-44 0 -116 27.5 t-91 27.5q-37 0 -52.5 -11.5t-27.5 -37.5z" />
<glyph unicode="&#xd6;" horiz-adv-x="1581" d="M106 725q9 157 70.5 293.5t161.5 235.5t238.5 155.5t295.5 56.5q153 0 287.5 -59.5t228.5 -160.5t144.5 -241.5t40.5 -295.5q-10 -156 -71 -292t-161 -234.5t-239 -155t-299 -56.5q-152 0 -286 59t-227.5 160t-143.5 240.5t-40 294.5zM389 717q-13 -217 112.5 -355.5 t313.5 -138.5q190 0 325 133t150 361q13 215 -109.5 358.5t-308.5 143.5q-191 0 -329.5 -137t-153.5 -365zM635 1698q5 53 42.5 89t88.5 36q53 0 89 -39.5t32 -91.5q-4 -55 -42 -90t-91 -35t-89 38t-30 93zM969 1698q6 53 43.5 89t89.5 36q53 0 89 -39.5t32 -91.5 q-6 -55 -44 -90t-92 -35q-52 0 -87 38t-31 93z" />
<glyph unicode="&#xd7;" horiz-adv-x="972" d="M90 430l289 262l-221 262l174 148l211 -258l278 258l133 -150l-284 -262l223 -264l-172 -152l-215 263l-281 -258z" />
<glyph unicode="&#xd8;" horiz-adv-x="1587" d="M96 725q12 157 74.5 293.5t162.5 235.5t239 155.5t298 56.5q174 0 320 -73l147 217l158 -101l-152 -223q115 -104 173.5 -254t46.5 -323q-12 -156 -73.5 -292t-162 -234.5t-240.5 -155t-301 -56.5q-158 0 -290 60l-170 -252l-152 100l166 248q-128 105 -193.5 261 t-50.5 337zM379 717q-10 -109 21 -201t94 -158l550 816q-88 45 -184 45q-185 0 -323 -137t-158 -365zM645 254q81 -31 154 -31q118 0 222 57t175.5 171.5t83.5 265.5q15 195 -96 332z" />
<glyph unicode="&#xd9;" horiz-adv-x="1275" d="M113 512l131 926h280l-131 -932q-19 -126 42 -207.5t173 -81.5q110 0 187.5 79t97.5 210l131 932h281l-131 -926q-16 -113 -58.5 -208.5t-112 -171t-174 -118.5t-233.5 -43t-229.5 43.5t-160 117.5t-84 172t-9.5 208zM446 1796v35h318l125 -287h-205z" />
<glyph unicode="&#xda;" horiz-adv-x="1275" d="M113 512l131 926h280l-131 -932q-19 -126 42 -207.5t173 -81.5q110 0 187.5 79t97.5 210l131 932h281l-131 -926q-16 -113 -58.5 -208.5t-112 -171t-174 -118.5t-233.5 -43t-229.5 43.5t-160 117.5t-84 172t-9.5 208zM655 1544l131 287h318v-35l-244 -252h-205z" />
<glyph unicode="&#xdb;" horiz-adv-x="1275" d="M113 512l131 926h280l-131 -932q-19 -126 42 -207.5t173 -81.5q110 0 187.5 79t97.5 210l131 932h281l-131 -926q-16 -113 -58.5 -208.5t-112 -171t-174 -118.5t-233.5 -43t-229.5 43.5t-160 117.5t-84 172t-9.5 208zM467 1544q36 47 106.5 143.5t106.5 143.5h262 q94 -206 133 -287h-198q-5 6 -39 47t-52 62l-112 -109h-207z" />
<glyph unicode="&#xdc;" horiz-adv-x="1275" d="M113 512l131 926h280l-131 -932q-19 -126 42 -207.5t173 -81.5q110 0 187.5 79t97.5 210l131 932h281l-131 -926q-16 -113 -58.5 -208.5t-112 -171t-174 -118.5t-233.5 -43t-229.5 43.5t-160 117.5t-84 172t-9.5 208zM508 1698q5 53 42.5 89t88.5 36q53 0 89 -39.5 t32 -91.5q-4 -55 -42 -90t-91 -35t-89 38t-30 93zM842 1698q6 53 43.5 89t89.5 36q53 0 89 -39.5t32 -91.5q-6 -56 -43.5 -90.5t-91.5 -34.5q-52 0 -87.5 38t-31.5 93z" />
<glyph unicode="&#xdd;" horiz-adv-x="1206" d="M135 1438h301l236 -496l372 496h310l-580 -789l-92 -649h-276l90 649zM621 1544l131 287h317v-35l-244 -252h-204z" />
<glyph unicode="&#xde;" horiz-adv-x="1114" d="M86 0l201 1438h274l-24 -195q158 0 286 -54.5t206.5 -167t78.5 -265.5q0 -138 -50.5 -248t-141.5 -181t-214.5 -108t-271.5 -37q-7 0 -21.5 1t-21.5 1l-25 -184h-276zM424 432q14 -2 45 -2q172 0 274.5 83t102.5 214q0 115 -75.5 191.5t-225.5 76.5q-7 0 -21.5 -1 t-21.5 -1q-40 -279 -78 -561z" />
<glyph unicode="&#xdf;" horiz-adv-x="1003" d="M51 0l152 1073q59 404 411 404q77 0 141.5 -24.5t106 -63t69.5 -87t39.5 -94t10.5 -86.5l-205 -362q35 -8 72 -35.5t70.5 -72.5t51.5 -115.5t11 -151.5q-15 -177 -137.5 -291t-306.5 -114q-108 0 -160 18l59 205q27 -8 76 -8q80 0 141 64t64 163q3 97 -56 161.5 t-155 61.5l-25 43l228 414q5 56 -25.5 94.5t-87.5 38.5q-59 0 -91.5 -45t-41.5 -111l-154 -1079h-258z" />
<glyph unicode="&#xe0;" horiz-adv-x="956" d="M57 248q0 133 92.5 215t231.5 82q80 0 164 -34.5t117 -74.5l4 29q13 81 -39 143t-152 62q-92 0 -182 -37l-55 196q134 50 282 50q86 -1 161 -30.5t130.5 -84.5t82 -140.5t13.5 -189.5l-63 -434h-137l-84 80q-35 -46 -102 -77.5t-161 -31.5q-132 0 -218 77.5t-85 199.5z M256 1225v35h317l125 -287h-204zM303 268q-4 -44 36 -76t97 -32q73 0 131.5 39.5t71.5 89.5l2 8q-28 30 -82.5 52.5t-114.5 21.5q-62 0 -98.5 -28.5t-42.5 -74.5z" />
<glyph unicode="&#xe1;" horiz-adv-x="956" d="M57 248q0 133 92.5 215t231.5 82q80 0 164 -34.5t117 -74.5l4 29q13 81 -39 143t-152 62q-92 0 -182 -37l-55 196q134 50 282 50q86 -1 161 -30.5t130.5 -84.5t82 -140.5t13.5 -189.5l-63 -434h-137l-84 80q-35 -46 -102 -77.5t-161 -31.5q-132 0 -218 77.5t-85 199.5z M303 268q-4 -44 36 -76t97 -32q73 0 131.5 39.5t71.5 89.5l2 8q-28 30 -82.5 52.5t-114.5 21.5q-62 0 -98.5 -28.5t-42.5 -74.5zM393 973l131 287h318v-35l-244 -252h-205z" />
<glyph unicode="&#xe2;" horiz-adv-x="956" d="M57 248q0 133 92.5 215t231.5 82q80 0 164 -34.5t117 -74.5l4 29q13 81 -39 143t-152 62q-92 0 -182 -37l-55 196q134 50 282 50q86 -1 161 -30.5t130.5 -84.5t82 -140.5t13.5 -189.5l-63 -434h-137l-84 80q-35 -46 -102 -77.5t-161 -31.5q-132 0 -218 77.5t-85 199.5z M260 973q36 47 106.5 143.5t106.5 143.5h262q94 -206 133 -287h-198q-6 7 -39 47t-51 61l-113 -108h-207zM303 268q-4 -44 36 -76t97 -32q73 0 131.5 39.5t71.5 89.5l2 8q-28 30 -82.5 52.5t-114.5 21.5q-62 0 -98.5 -28.5t-42.5 -74.5z" />
<glyph unicode="&#xe3;" horiz-adv-x="956" d="M57 248q0 133 92.5 215t231.5 82q80 0 164 -34.5t117 -74.5l4 29q13 81 -39 143t-152 62q-92 0 -182 -37l-55 196q134 50 282 50q86 -1 161 -30.5t130.5 -84.5t82 -140.5t13.5 -189.5l-63 -434h-137l-84 80q-35 -46 -102 -77.5t-161 -31.5q-132 0 -218 77.5t-85 199.5z M295 1026q2 62 19.5 107t46 68.5t59 34.5t65.5 11q52 0 123.5 -26.5t98.5 -26.5q34 0 51 12.5t30 36.5l95 -24q-7 -112 -67.5 -168t-137.5 -56q-44 0 -116 28t-91 28q-37 0 -52.5 -11.5t-27.5 -38.5zM303 268q-4 -44 36 -76t97 -32q73 0 131.5 39.5t71.5 89.5l2 8 q-28 30 -82.5 52.5t-114.5 21.5q-62 0 -98.5 -28.5t-42.5 -74.5z" />
<glyph unicode="&#xe4;" horiz-adv-x="956" d="M57 248q0 133 92.5 215t231.5 82q80 0 164 -34.5t117 -74.5l4 29q13 81 -39 143t-152 62q-92 0 -182 -37l-55 196q134 50 282 50q86 -1 161 -30.5t130.5 -84.5t82 -140.5t13.5 -189.5l-63 -434h-137l-84 80q-35 -46 -102 -77.5t-161 -31.5q-132 0 -218 77.5t-85 199.5z M291 1126q5 53 42.5 89t88.5 36q53 0 89 -39.5t32 -91.5q-4 -55 -42 -90t-91 -35t-89 38t-30 93zM303 268q-4 -44 36 -76t97 -32q73 0 131.5 39.5t71.5 89.5l2 8q-28 30 -82.5 52.5t-114.5 21.5q-62 0 -98.5 -28.5t-42.5 -74.5zM625 1126q6 53 43.5 89t89.5 36 q53 0 89 -39.5t32 -91.5q-6 -55 -44 -90t-92 -35q-52 0 -87 38t-31 93z" />
<glyph unicode="&#xe5;" horiz-adv-x="956" d="M57 248q0 133 92.5 215t231.5 82q80 0 164 -34.5t117 -74.5l4 29q13 81 -39 143t-152 62q-92 0 -182 -37l-55 196q53 19 110 31q-35 63 -29 146q9 111 90 185.5t183 74.5t174 -74.5t63 -185.5q-9 -114 -88 -187q91 -55 137 -154t29 -231l-63 -434h-137l-84 80 q-35 -46 -102 -77.5t-161 -31.5q-132 0 -218 77.5t-85 199.5zM303 268q-4 -44 36 -76t97 -32q73 0 131.5 39.5t71.5 89.5l2 8q-28 30 -82.5 52.5t-114.5 21.5q-62 0 -98.5 -28.5t-42.5 -74.5zM465 1006q-5 -48 23 -84.5t73 -36.5q48 0 83 36t40 85q3 48 -25.5 82t-74.5 34 q-45 0 -79.5 -34t-39.5 -82z" />
<glyph unicode="&#xe6;" horiz-adv-x="1558" d="M57 248q0 133 92.5 215t231.5 82q80 0 164 -34.5t117 -74.5l4 29q13 81 -39 143t-152 62q-92 0 -182 -37l-55 196q134 50 282 50q185 -3 297 -121q136 123 324 123q76 0 145.5 -26.5t123.5 -75t86 -124t32 -166.5q0 -49 -12 -108h-605q-3 -86 66.5 -146.5t175.5 -60.5 q119 0 217 74l111 -156q-68 -62 -153 -90.5t-208 -28.5q-119 0 -214.5 46t-157.5 128q-73 -98 -164 -137t-203 -39q-146 0 -236 77t-88 200zM303 268q-4 -44 36 -76t97 -32q73 0 131.5 39.5t71.5 89.5l2 8q-28 30 -82.5 52.5t-114.5 21.5q-62 0 -98.5 -28.5t-42.5 -74.5z M942 537h340q0 58 -44 100.5t-108 42.5q-68 0 -122.5 -45t-65.5 -98z" />
<glyph unicode="&#xe7;" horiz-adv-x="868" d="M68 424q13 209 153.5 333t343.5 124q97 0 187 -39.5t139 -98.5l-146 -161q-27 34 -76.5 62t-103.5 28q-98 0 -169.5 -68t-78.5 -180q-6 -106 56 -173t149 -67q101 0 189 72l116 -158q-85 -94 -235 -118q54 -75 49 -150q-5 -57 -33.5 -103t-71.5 -73.5t-97 -45 t-110.5 -16.5t-111.5 13l31 205q69 -12 125 8t63 73q5 52 -28 89q-166 28 -257.5 157.5t-82.5 286.5z" />
<glyph unicode="&#xe8;" horiz-adv-x="964" d="M68 408q0 103 39.5 192.5t106 150.5t152.5 95.5t179 34.5q76 0 145.5 -26.5t123.5 -75t86 -124t32 -166.5q0 -49 -12 -108h-605q-3 -86 66.5 -146.5t175.5 -60.5q119 0 217 74l111 -156q-68 -62 -153 -90.5t-208 -28.5q-199 0 -327.5 124.5t-128.5 310.5zM244 1225v35 h317l125 -287h-205zM346 537h340q0 58 -43.5 100.5t-107.5 42.5q-68 0 -123 -45t-66 -98z" />
<glyph unicode="&#xe9;" horiz-adv-x="964" d="M68 408q0 103 39.5 192.5t106 150.5t152.5 95.5t179 34.5q76 0 145.5 -26.5t123.5 -75t86 -124t32 -166.5q0 -49 -12 -108h-605q-3 -86 66.5 -146.5t175.5 -60.5q119 0 217 74l111 -156q-68 -62 -153 -90.5t-208 -28.5q-199 0 -327.5 124.5t-128.5 310.5zM346 537h340 q0 58 -43.5 100.5t-107.5 42.5q-68 0 -123 -45t-66 -98zM418 973l131 287h317v-35l-243 -252h-205z" />
<glyph unicode="&#xea;" horiz-adv-x="964" d="M68 408q0 103 39.5 192.5t106 150.5t152.5 95.5t179 34.5q76 0 145.5 -26.5t123.5 -75t86 -124t32 -166.5q0 -49 -12 -108h-605q-3 -86 66.5 -146.5t175.5 -60.5q119 0 217 74l111 -156q-68 -62 -153 -90.5t-208 -28.5q-199 0 -327.5 124.5t-128.5 310.5zM252 973 q36 47 106.5 143.5t106.5 143.5h262q94 -206 133 -287h-198q-82 97 -91 108l-112 -108h-207zM346 537h340q0 58 -43.5 100.5t-107.5 42.5q-68 0 -123 -45t-66 -98z" />
<glyph unicode="&#xeb;" horiz-adv-x="964" d="M68 408q0 103 39.5 192.5t106 150.5t152.5 95.5t179 34.5q76 0 145.5 -26.5t123.5 -75t86 -124t32 -166.5q0 -49 -12 -108h-605q-3 -86 66.5 -146.5t175.5 -60.5q119 0 217 74l111 -156q-68 -62 -153 -90.5t-208 -28.5q-199 0 -327.5 124.5t-128.5 310.5zM287 1126 q5 53 42.5 89t88.5 36q53 0 89 -39.5t32 -91.5q-4 -55 -42 -90t-91 -35t-89 38t-30 93zM346 537h340q0 58 -43.5 100.5t-107.5 42.5q-68 0 -123 -45t-66 -98zM621 1126q6 53 43.5 89t89.5 36q53 0 88.5 -39.5t31.5 -91.5q-6 -56 -43.5 -90.5t-91.5 -34.5q-52 0 -87 38 t-31 93z" />
<glyph unicode="&#xec;" horiz-adv-x="473" d="M2 1225v35h317l125 -287h-204zM61 0l121 852h258l-118 -852h-261z" />
<glyph unicode="&#xed;" horiz-adv-x="473" d="M61 0l121 852h258l-118 -852h-261zM201 973l131 287h317v-35l-243 -252h-205z" />
<glyph unicode="&#xee;" horiz-adv-x="473" d="M20 973q36 47 106.5 143.5t106.5 143.5h263q94 -206 133 -287h-199q-6 7 -39 47t-51 61l-113 -108h-207zM61 0l121 852h258l-118 -852h-261z" />
<glyph unicode="&#xef;" horiz-adv-x="473" d="M55 1126q5 53 42.5 89t88.5 36q53 0 89 -39.5t32 -91.5q-4 -55 -42 -90t-91 -35t-89 38t-30 93zM61 0l121 852h258l-118 -852h-261zM389 1126q6 53 43.5 89t89.5 36q53 0 89 -39.5t32 -91.5q-6 -56 -43.5 -90.5t-91.5 -34.5q-52 0 -87.5 38t-31.5 93z" />
<glyph unicode="&#xf0;" horiz-adv-x="1013" d="M68 426q13 201 149 328t332 127q50 0 82.5 -12.5t66.5 -47.5q-6 139 -112 248l-80 -92l-135 100l82 94q-79 53 -195 82l-18 31l94 178q156 -44 266 -114l115 133l133 -109l-111 -127q160 -148 224 -361t26 -462q-36 -227 -166 -339t-329 -112q-89 0 -169.5 34t-138.5 93 t-90 144.5t-26 183.5zM313 426q-11 -104 52 -175t147 -71q81 0 145 66.5t74 179.5q11 111 -46.5 179.5t-139.5 68.5q-89 0 -154 -65t-78 -183z" />
<glyph unicode="&#xf1;" horiz-adv-x="1024" d="M53 0l121 852h137l97 -86q33 46 102.5 80.5t148.5 34.5q94 0 170 -46.5t115.5 -132.5t24.5 -190l-70 -512h-262l70 492q11 74 -31.5 125t-116.5 51q-65 0 -116 -49t-60 -125l-70 -494h-260zM334 1026q2 62 19.5 107t46 68.5t59 34.5t65.5 11q52 0 123 -26.5t98 -26.5 q34 0 51.5 12.5t30.5 36.5l95 -24q-7 -112 -67.5 -168t-137.5 -56q-44 0 -116 28t-91 28q-37 0 -52.5 -11.5t-27.5 -38.5z" />
<glyph unicode="&#xf2;" d="M68 428q13 202 150.5 327.5t332.5 125.5q126 0 227.5 -55.5t158 -160t48.5 -237.5q-12 -201 -150.5 -329t-334.5 -128q-93 0 -175 33.5t-141 92.5t-90.5 145t-25.5 186zM246 1225v35h317l125 -287h-205zM319 428q-7 -113 48.5 -180.5t138.5 -67.5q85 0 151.5 67.5 t73.5 180.5q9 114 -48.5 180t-141.5 66t-148.5 -65.5t-73.5 -180.5z" />
<glyph unicode="&#xf3;" d="M68 428q13 202 150.5 327.5t332.5 125.5q126 0 227.5 -55.5t158 -160t48.5 -237.5q-12 -201 -150.5 -329t-334.5 -128q-93 0 -175 33.5t-141 92.5t-90.5 145t-25.5 186zM319 428q-7 -113 48.5 -180.5t138.5 -67.5q85 0 151.5 67.5t73.5 180.5q9 114 -48.5 180t-141.5 66 t-148.5 -65.5t-73.5 -180.5zM444 973l131 287h318v-35l-244 -252h-205z" />
<glyph unicode="&#xf4;" d="M68 428q13 202 150.5 327.5t332.5 125.5q126 0 227.5 -55.5t158 -160t48.5 -237.5q-12 -201 -150.5 -329t-334.5 -128q-93 0 -175 33.5t-141 92.5t-90.5 145t-25.5 186zM274 973q36 47 106.5 143.5t106.5 143.5h263q94 -206 133 -287h-199q-6 7 -39 47t-51 61l-113 -108 h-207zM319 428q-7 -113 48.5 -180.5t138.5 -67.5q85 0 151.5 67.5t73.5 180.5q9 114 -48.5 180t-141.5 66t-148.5 -65.5t-73.5 -180.5z" />
<glyph unicode="&#xf5;" d="M68 428q13 202 150.5 327.5t332.5 125.5q126 0 227.5 -55.5t158 -160t48.5 -237.5q-12 -201 -150.5 -329t-334.5 -128q-93 0 -175 33.5t-141 92.5t-90.5 145t-25.5 186zM299 1026q2 62 19.5 107t46 68.5t59 34.5t65.5 11q52 0 123.5 -26.5t98.5 -26.5q34 0 51.5 12.5 t30.5 36.5l94 -24q-7 -112 -67.5 -168t-137.5 -56q-44 0 -116 28t-91 28q-37 0 -52.5 -11.5t-27.5 -38.5zM319 428q-7 -113 48.5 -180.5t138.5 -67.5q85 0 151.5 67.5t73.5 180.5q9 114 -48.5 180t-141.5 66t-148.5 -65.5t-73.5 -180.5z" />
<glyph unicode="&#xf6;" d="M68 428q13 202 150.5 327.5t332.5 125.5q126 0 227.5 -55.5t158 -160t48.5 -237.5q-12 -201 -150.5 -329t-334.5 -128q-93 0 -175 33.5t-141 92.5t-90.5 145t-25.5 186zM289 1126q5 53 42.5 89t88.5 36q53 0 89 -39.5t32 -91.5q-4 -55 -42 -90t-91 -35t-89 38t-30 93z M319 428q-7 -113 48.5 -180.5t138.5 -67.5q85 0 151.5 67.5t73.5 180.5q9 114 -48.5 180t-141.5 66t-148.5 -65.5t-73.5 -180.5zM623 1126q6 53 43.5 89t89.5 36q53 0 89 -39.5t32 -91.5q-6 -55 -44 -90t-92 -35q-52 0 -87 38t-31 93z" />
<glyph unicode="&#xf7;" horiz-adv-x="970" d="M86 588l33 229h833l-30 -229h-836zM352 369q5 51 41.5 85.5t87.5 34.5q52 0 87 -38t32 -89q-6 -55 -42 -88.5t-89 -33.5t-88 37t-29 92zM446 1053q5 51 41.5 87t87.5 36q52 0 87 -38.5t32 -90.5q-6 -55 -42 -89t-89 -34t-88 37t-29 92z" />
<glyph unicode="&#xf8;" d="M68 428q13 202 150.5 327.5t332.5 125.5q96 0 180 -35l109 164l112 -64l-110 -168q73 -60 111 -150t32 -200q-12 -201 -150.5 -329t-334.5 -128q-78 0 -166 31l-119 -182l-109 67l117 176q-80 62 -121 155.5t-34 209.5zM319 428q-6 -97 37 -158l256 389q-43 15 -71 15 q-84 0 -148.5 -65.5t-73.5 -180.5zM455 190q17 -10 51 -10q85 0 151.5 67.5t73.5 180.5q5 73 -29 133z" />
<glyph unicode="&#xf9;" horiz-adv-x="1015" d="M84 324l74 528h262l-68 -492q-12 -74 29.5 -125t116.5 -51q65 0 116 49t60 125l71 494h259l-121 -852h-138l-94 88q-110 -117 -268 -117q-70 0 -130 25.5t-101.5 70.5t-60 111.5t-7.5 145.5zM258 1225v35h317l125 -287h-204z" />
<glyph unicode="&#xfa;" horiz-adv-x="1015" d="M84 324l74 528h262l-68 -492q-12 -74 29.5 -125t116.5 -51q65 0 116 49t60 125l71 494h259l-121 -852h-138l-94 88q-110 -117 -268 -117q-70 0 -130 25.5t-101.5 70.5t-60 111.5t-7.5 145.5zM461 973l133 287h315v-35l-243 -252h-205z" />
<glyph unicode="&#xfb;" horiz-adv-x="1015" d="M88 340l70 512h262l-70 -492q-11 -74 31.5 -125t116.5 -51q64 0 115 48.5t61 125.5l69 494h261l-121 -852h-138l-96 88q-35 -47 -105 -82t-147 -35q-70 0 -132 28t-105 75.5t-63 117.5t-9 148zM287 973q36 47 106.5 143.5t106.5 143.5h262q94 -206 133 -287h-199 q-6 7 -39 47t-51 61l-112 -108h-207z" />
<glyph unicode="&#xfc;" horiz-adv-x="1015" d="M84 324l74 528h262l-68 -492q-12 -74 29.5 -125t116.5 -51q65 0 116 49t60 125l71 494h259l-121 -852h-138l-94 88q-110 -117 -268 -117q-70 0 -130 25.5t-101.5 70.5t-60 111.5t-7.5 145.5zM313 1126q6 53 43.5 89t89.5 36q53 0 89 -39.5t32 -91.5q-6 -56 -43.5 -90.5 t-91.5 -34.5q-52 0 -87.5 38t-31.5 93zM649 1126q5 53 42.5 89t88.5 36q53 0 89 -39.5t32 -91.5q-4 -55 -42 -90t-91 -35t-89 38t-30 93z" />
<glyph unicode="&#xfd;" horiz-adv-x="960" d="M-18 -492l354 605l-252 739h272l146 -453l266 453h272l-784 -1364h-258zM436 973l131 287h318v-35l-244 -252h-205z" />
<glyph unicode="&#xfe;" horiz-adv-x="1073" d="M-16 -506l274 1944l242 24h22l-102 -704q92 121 256 121q155 0 259.5 -115t104.5 -301q0 -216 -125 -354t-307 -138q-191 0 -276 140q-12 -84 -86 -590l-242 -27h-20zM373 389q0 -97 56 -154t132 -57q90 0 157.5 75t67.5 200q0 103 -55.5 161t-134.5 58q-37 0 -74 -16 t-71.5 -47.5t-56 -88.5t-21.5 -131z" />
<glyph unicode="&#xff;" horiz-adv-x="960" d="M-18 -492l354 605l-252 739h272l146 -453l266 453h272l-784 -1364h-258zM301 1126q5 53 42.5 89t88.5 36q53 0 89 -39.5t32 -91.5q-4 -55 -42 -90t-91 -35t-89 38t-30 93zM635 1126q6 53 43.5 89t89.5 36q53 0 89 -39.5t32 -91.5q-6 -56 -43.5 -90.5t-91.5 -34.5 q-52 0 -87.5 38t-31.5 93z" />
<glyph unicode="&#x152;" horiz-adv-x="1843" d="M92 670q0 69 12 139.5t42.5 149.5t77.5 149.5t121.5 136t169 112.5t227 75t288.5 28q152 0 305 -22h533l-31 -236h-532q-36 -246 -41 -287h428q-11 -90 -33 -235h-428l-64 -447h553q-19 -150 -32 -233h-605q-120 -20 -231 -20q-118 0 -220 22.5t-178 61.5t-138 93 t-103 115t-69 129.5t-40 135t-12 133.5zM371 659q0 -187 119 -310.5t305 -123.5q50 0 94 8l137 969q-46 6 -90 6q-82 0 -161.5 -20.5t-153 -64.5t-129 -107t-88.5 -155t-33 -202z" />
<glyph unicode="&#x153;" horiz-adv-x="1628" d="M68 428q13 202 150.5 327.5t332.5 125.5q199 0 326 -133q66 63 153 98t180 35q76 0 145.5 -26.5t123.5 -75t86 -124t32 -166.5q0 -49 -12 -108h-604q-3 -86 66.5 -146.5t175.5 -60.5q119 0 217 74l110 -156q-68 -62 -152.5 -90.5t-207.5 -28.5q-104 0 -192.5 36.5 t-149.5 101.5q-67 -67 -157.5 -103.5t-190.5 -36.5q-93 0 -175 33.5t-141 92.5t-90.5 145t-25.5 186zM319 428q-7 -113 48.5 -180.5t138.5 -67.5q85 0 151.5 67.5t73.5 180.5q9 114 -48.5 180t-141.5 66t-148.5 -65.5t-73.5 -180.5zM1012 537h340q0 58 -44 100.5t-108 42.5 q-68 0 -122.5 -45t-65.5 -98z" />
<glyph unicode="&#x178;" horiz-adv-x="1206" d="M135 1438h301l236 -496l372 496h310l-580 -789l-92 -649h-276l90 649zM471 1698q5 53 42.5 89t88.5 36q53 0 89 -39.5t32 -91.5q-4 -55 -42 -90t-91 -35t-89 38t-30 93zM805 1698q6 53 43.5 89t89.5 36q53 0 89 -39.5t32 -91.5q-6 -56 -43.5 -90.5t-91.5 -34.5 q-52 0 -87.5 38t-31.5 93z" />
<glyph unicode="&#x2c6;" horiz-adv-x="692" d="M98 973q36 47 106.5 143.5t106.5 143.5h262q73 -159 134 -287h-199q-6 7 -39 47t-51 61l-113 -108h-207z" />
<glyph unicode="&#x2dc;" horiz-adv-x="684" d="M129 1026q2 62 19.5 107t46 68.5t59 34.5t65.5 11q52 0 123.5 -26.5t98.5 -26.5q34 0 51.5 12.5t30.5 36.5l94 -24q-7 -112 -67.5 -168t-137.5 -56q-44 0 -116 28t-91 28q-37 0 -52.5 -11.5t-27.5 -38.5z" />
<glyph unicode="&#x2000;" horiz-adv-x="918" />
<glyph unicode="&#x2001;" horiz-adv-x="1837" />
<glyph unicode="&#x2002;" horiz-adv-x="918" />
<glyph unicode="&#x2003;" horiz-adv-x="1837" />
<glyph unicode="&#x2004;" horiz-adv-x="612" />
<glyph unicode="&#x2005;" horiz-adv-x="459" />
<glyph unicode="&#x2006;" horiz-adv-x="306" />
<glyph unicode="&#x2007;" horiz-adv-x="306" />
<glyph unicode="&#x2008;" horiz-adv-x="229" />
<glyph unicode="&#x2009;" horiz-adv-x="367" />
<glyph unicode="&#x200a;" horiz-adv-x="102" />
<glyph unicode="&#x2010;" horiz-adv-x="733" d="M63 285l33 250l566 102l-35 -252z" />
<glyph unicode="&#x2011;" horiz-adv-x="733" d="M63 285l33 250l566 102l-35 -252z" />
<glyph unicode="&#x2012;" horiz-adv-x="733" d="M63 285l33 250l566 102l-35 -252z" />
<glyph unicode="&#x2013;" horiz-adv-x="1007" d="M72 391l32 230h840l-35 -230h-837z" />
<glyph unicode="&#x2014;" horiz-adv-x="1579" d="M72 391l32 230h1412l-35 -230h-1409z" />
<glyph unicode="&#x2018;" horiz-adv-x="550" d="M133 801v35l395 624l82 -22l-164 -637h-313z" />
<glyph unicode="&#x2019;" horiz-adv-x="550" d="M133 799l164 637h313v-35l-395 -625z" />
<glyph unicode="&#x201a;" horiz-adv-x="544" d="M-51 -326l164 637h313v-35l-395 -624z" />
<glyph unicode="&#x201c;" horiz-adv-x="989" d="M133 801v35l395 624l82 -22l-164 -637h-313zM563 801v35l395 624l82 -22l-163 -637h-314z" />
<glyph unicode="&#x201d;" horiz-adv-x="989" d="M133 799l164 637h313v-35l-395 -625zM565 799l164 637h313v-35l-395 -625z" />
<glyph unicode="&#x201e;" horiz-adv-x="983" d="M-51 -326l164 637h313v-35l-395 -624zM387 -326l164 637h313v-35l-395 -624z" />
<glyph unicode="&#x2022;" horiz-adv-x="763" d="M141 508q9 104 84 175t176 71q104 0 175.5 -77.5t62.5 -180.5q-10 -110 -83.5 -178t-178.5 -68q-104 0 -174.5 75.5t-61.5 182.5z" />
<glyph unicode="&#x2026;" horiz-adv-x="1638" d="M66 156q8 71 58.5 119.5t119.5 48.5q72 0 120 -54t42 -125q-6 -73 -57 -119t-124 -46q-70 0 -117.5 51t-41.5 125zM612 156q8 71 59 119.5t120 48.5q71 0 119 -54t42 -125q-6 -73 -56.5 -119t-123.5 -46q-70 0 -118 51t-42 125zM1159 156q8 71 58.5 119.5t119.5 48.5 q72 0 120 -54t42 -125q-6 -73 -56.5 -119t-123.5 -46q-70 0 -118 51t-42 125z" />
<glyph unicode="&#x202f;" horiz-adv-x="367" />
<glyph unicode="&#x2039;" horiz-adv-x="716" d="M55 385l6 43l463 492l158 -154l-356 -369l245 -288l-168 -140z" />
<glyph unicode="&#x203a;" horiz-adv-x="716" d="M23 121l356 368l-246 289l168 140l348 -416l-6 -43l-463 -492z" />
<glyph unicode="&#x205f;" horiz-adv-x="459" />
<glyph unicode="&#x20ac;" horiz-adv-x="1388" d="M-31 432v27l58 139h172q-4 27 -3.5 41t4.5 43.5t5 44.5h-139v25l55 143h125q54 150 161 256.5t242 158.5t289 52q85 0 170 -22t149.5 -55.5t110 -66t72.5 -61.5l-166 -182q-21 20 -49 41t-72 47t-100 42.5t-113 16.5q-124 0 -228 -57t-161 -170h547v-25l-56 -143h-555 q-1 -5 -4 -24t-4 -28t-2.5 -24t-0.5 -28t3 -25h525v-25l-58 -141h-416q48 -105 148 -168t223 -63q100 0 167.5 22.5t127.5 61.5q12 -20 117 -197q-143 -117 -451 -117q-135 0 -264 57t-228 163t-141 241h-260z" />
<glyph unicode="&#x2122;" horiz-adv-x="1601" d="M152 1276l22 162h637l-23 -162h-227l-88 -631h-184l88 631h-225zM805 645l113 793l36 8l283 -326l375 326l37 -8l-113 -793h-178l65 434l-206 -178h-17l-153 184l-64 -440h-178z" />
<glyph unicode="&#x25fc;" horiz-adv-x="849" d="M0 0v850h850v-850h-850z" />
</font>
</defs>
</svg>
