<?xml version="1.0" encoding="UTF-8" standalone="no"?>
<svg
   xmlns:sketch="http://www.bohemiancoding.com/sketch/ns"
   xmlns:dc="http://purl.org/dc/elements/1.1/"
   xmlns:cc="http://creativecommons.org/ns#"
   xmlns:rdf="http://www.w3.org/1999/02/22-rdf-syntax-ns#"
   xmlns:svg="http://www.w3.org/2000/svg"
   xmlns="http://www.w3.org/2000/svg"
   xmlns:sodipodi="http://sodipodi.sourceforge.net/DTD/sodipodi-0.dtd"
   xmlns:inkscape="http://www.inkscape.org/namespaces/inkscape"
   width="128px"
   height="100px"
   viewBox="0 0 128 100"
   version="1.1"
   id="svg2"
   inkscape:version="0.91 r13725"
   sodipodi:docname="maker.svg">
  <metadata
     id="metadata19">
    <rdf:RDF>
      <cc:Work
         rdf:about="">
        <dc:format>image/svg+xml</dc:format>
        <dc:type
           rdf:resource="http://purl.org/dc/dcmitype/StillImage" />
      </cc:Work>
    </rdf:RDF>
  </metadata>
  <sodipodi:namedview
     pagecolor="#ffffff"
     bordercolor="#666666"
     borderopacity="1"
     objecttolerance="10"
     gridtolerance="10"
     guidetolerance="10"
     inkscape:pageopacity="0"
     inkscape:pageshadow="2"
     inkscape:window-width="640"
     inkscape:window-height="480"
     id="namedview17"
     showgrid="false"
     inkscape:zoom="2.36"
     inkscape:cx="64"
     inkscape:cy="50"
     inkscape:window-x="24"
     inkscape:window-y="43"
     inkscape:window-maximized="0"
     inkscape:current-layer="svg2" />
  <!-- Generator: Sketch 3.3.2 (12043) - http://www.bohemiancoding.com/sketch -->
  <title
     id="title4">128</title>
  <desc
     id="desc6">Created with Sketch.</desc>
  <defs
     id="defs8" />
  <g
     id="Page-1"
     sketch:type="MSPage"
     transform="matrix(1.1846824,0,0,1.1767378,-10.213782,-7.6085619)"
     style="fill:none;fill-rule:evenodd;stroke:none;stroke-width:1">
    <g
       id="128"
       sketch:type="MSArtboardGroup">
      <g
         id="logo-maker"
         sketch:type="MSLayerGroup"
         transform="translate(23,9)">
        <g
           id="Path-3-Copy-4-+-Path-3-Copy-5-Copy"
           transform="translate(2.187028,0)"
           sketch:type="MSShapeGroup"
           style="stroke-width:3.82537484;stroke-linecap:round;stroke-linejoin:round">
          <path
             d="m 33.401879,53.812499 0,-28.729938 L 0,0 0,53.8125"
             id="Path-3-Copy-4"
             inkscape:connector-curvature="0"
             style="stroke:#1abc9c" />
          <path
             d="m 77.08126,53.812499 0,-28.729938 L 43.679381,0 l 0,53.8125"
             id="Path-3-Copy-5"
             transform="matrix(-1,0,0,1,120.76064,0)"
             inkscape:connector-curvature="0"
             style="stroke:#546979" />
        </g>
        <path
           d="m 1.5271199,68.971039 6.0633745,9.988495 c 0,0 0.00376,0.0038 0.011291,0.01126 l 0,0.01126 c 0.015055,0.01501 0.03011,0.03378 0.045165,0.0563 0.015055,0.01501 0.03011,0.03003 0.045165,0.04504 0.015055,0.01502 0.03011,0.03003 0.045165,0.04505 0.022582,0.01501 0.041401,0.03003 0.056456,0.04504 0.037638,0.02252 0.045165,0.02628 0.022582,0.01126 0.00753,0 0.011291,0.0038 0.011291,0.01126 l 0.022582,0 c 0.022583,0.01501 0.045165,0.02628 0.067747,0.03378 0.015055,0.0075 0.033873,0.01501 0.056456,0.02252 0.022583,0.0075 0.045165,0.01126 0.067747,0.01126 0.015055,0.0075 0.033874,0.01126 0.056456,0.01126 0.022583,0.0075 0.045165,0.01126 0.067747,0.01126 0.022583,0 0.045165,-0.0038 0.067747,-0.01126 0.022583,0 0.041401,-0.0038 0.056456,-0.01126 0.022583,0 0.045165,-0.0038 0.067747,-0.01126 0.022583,-0.0075 0.041401,-0.01501 0.056456,-0.02252 0.022583,-0.0075 0.045165,-0.01877 0.067747,-0.03378 0.03011,-0.01501 0.041401,-0.01877 0.033874,-0.01126 -0.022583,0.01502 -0.015055,0.01126 0.022582,-0.01126 0.015055,-0.01501 0.033873,-0.03003 0.056456,-0.04504 0.015055,-0.01502 0.03011,-0.03003 0.045165,-0.04505 0.00753,-0.0075 0.022582,-0.02252 0.045165,-0.04504 0.015055,-0.02252 0.03011,-0.04129 0.045165,-0.0563 l 0,-0.01126 c 0.00753,-0.0075 0.011291,-0.01126 0.011291,-0.01126 l 6.0633746,-9.988495 0,12.353302 c 0,0.187684 0.06398,0.34909 0.191951,0.484222 C 15.133017,81.936188 15.291092,82 15.471752,82 c 0.188188,0 0.346263,-0.06381 0.474231,-0.191437 0.135495,-0.135132 0.203241,-0.296538 0.203241,-0.484222 l 0,-14.763153 c 0,-0.337832 -0.165602,-0.551788 -0.496813,-0.641876 -0.323682,-0.09009 -0.57585,0.01126 -0.75651,0.304046 L 8.1663456,77.31543 1.4367903,66.223358 C 1.2561302,65.930571 1.0039626,65.829223 0.68027988,65.919312 0.34906968,66.0094 0.18346707,66.223356 0.18346707,66.561188 l 0,14.763153 c 0,0.187684 0.0639828,0.34909 0.1919504,0.484222 C 0.51091255,81.936188 0.67275147,82 0.86093908,82 1.0415992,82 1.1996744,81.936188 1.3351695,81.808563 1.4631371,81.673431 1.5271199,81.512025 1.5271199,81.324341 l 0,-12.353302 z m 23.2942481,7.905212 3.568019,-8.580871 3.568019,8.580871 -7.136038,0 z M 22.246974,82 c 0.3011,0 0.508104,-0.138884 0.621016,-0.416657 l 1.400109,-3.355773 8.242576,0 1.400109,3.355773 C 34.023697,81.861116 34.2307,82 34.5318,82 c 0.09033,0 0.176895,-0.01877 0.259698,-0.0563 0.173132,-0.06757 0.293571,-0.187682 0.361318,-0.360352 0.07527,-0.172669 0.07527,-0.345336 0,-0.518005 l -1.569477,-3.77243 0,-0.01126 -4.572936,-11.001984 c -0.01506,-0.03754 -0.03387,-0.07883 -0.05646,-0.123871 0,0.0075 -0.01506,-0.0075 -0.04517,-0.04504 -0.02258,-0.03003 -0.03764,-0.0488 -0.04516,-0.0563 -0.0075,0 -0.02635,-0.01501 -0.05646,-0.04504 -0.03011,-0.02252 -0.04517,-0.03378 -0.04517,-0.03378 -0.07528,-0.05255 -0.158077,-0.08633 -0.248407,-0.101348 0.0075,0 -0.01129,0 -0.05646,0 -0.03764,-0.0075 -0.06022,-0.01126 -0.06775,-0.01126 -0.0075,0 -0.03387,0.0038 -0.07904,0.01126 l -0.05646,0 c -0.0828,0.01501 -0.16184,0.0488 -0.237116,0.101348 0.0075,-0.0075 -0.0075,0.0038 -0.04516,0.03378 -0.03011,0.02252 -0.04893,0.03754 -0.05646,0.04504 -0.0075,0.0075 -0.02258,0.02628 -0.04517,0.0563 -0.03011,0.03003 -0.04517,0.04504 -0.04517,0.04504 -0.02258,0.04504 -0.0414,0.08633 -0.05646,0.123871 l -4.572936,11.001984 0,0.01126 -1.569477,3.77243 c -0.07528,0.172669 -0.07528,0.345336 0,0.518005 0.06775,0.17267 0.188186,0.292786 0.361319,0.360352 0.0828,0.03754 0.169367,0.0563 0.259697,0.0563 l 0,0 z m 19.071339,-0.315308 c 0.135495,-0.127625 0.203242,-0.285277 0.203242,-0.472961 l 0,-4.301697 2.009833,-2.117065 6.6731,7.004333 C 50.339983,81.932435 50.501822,82 50.69001,82 c 0.18066,0 0.334971,-0.06006 0.462939,-0.180176 0.135495,-0.127625 0.207005,-0.285277 0.214532,-0.472961 0,-0.187684 -0.06398,-0.345337 -0.19195,-0.472962 l -6.718264,-7.049377 6.49244,-6.801636 c 0.127968,-0.135132 0.188187,-0.296538 0.180659,-0.484222 0,-0.180177 -0.06775,-0.334076 -0.203241,-0.461701 -0.135495,-0.127625 -0.297334,-0.191436 -0.485522,-0.191436 -0.18066,0.0075 -0.334972,0.07883 -0.462939,0.213958 l -8.457109,8.873658 0,-8.479523 c 0,-0.180177 -0.06775,-0.337829 -0.203242,-0.472962 -0.127967,-0.127625 -0.286042,-0.191436 -0.47423,-0.191436 -0.18066,0 -0.338735,0.06381 -0.474231,0.191436 -0.127967,0.135133 -0.19195,0.292785 -0.19195,0.472962 l 0,14.718109 c 0,0.187684 0.06398,0.345336 0.19195,0.472961 0.135496,0.135133 0.293571,0.202698 0.474231,0.202698 0.188188,0 0.346263,-0.06757 0.47423,-0.202698 l 0,0 z M 66.193329,82 c 0.188188,0 0.346263,-0.06757 0.474231,-0.202698 0.135495,-0.127625 0.203241,-0.285277 0.203241,-0.472961 0,-0.187684 -0.06775,-0.345336 -0.203241,-0.472962 -0.127968,-0.135132 -0.286043,-0.202697 -0.474231,-0.202697 l -8.287741,0 0,-6.058411 6.198869,0 c 0.188188,0 0.346263,-0.06757 0.474231,-0.202698 0.135495,-0.127625 0.203241,-0.285277 0.203241,-0.472961 0,-0.187684 -0.06775,-0.345336 -0.203241,-0.472962 -0.127968,-0.135132 -0.286043,-0.202697 -0.474231,-0.202697 l -6.198869,0 0,-6.058411 8.287741,0.02252 c 0.188188,0 0.346263,-0.06381 0.474231,-0.191437 0.135495,-0.135132 0.203241,-0.296538 0.203241,-0.484222 0,-0.180177 -0.06775,-0.337829 -0.203241,-0.472962 -0.127968,-0.135132 -0.286043,-0.202697 -0.474231,-0.202697 l -8.965213,-0.02252 c -0.18066,-0.0075 -0.338735,0.06006 -0.47423,0.202697 -0.135495,0.127626 -0.203242,0.285278 -0.203242,0.472962 l 0,14.819458 c 0,0.187684 0.06775,0.345336 0.203242,0.472961 C 56.881853,81.932435 57.039929,82 57.228116,82 l 8.965213,0 z m 14.28387,-9.673187 c -0.639837,0.585574 -1.418922,0.885864 -2.337278,0.900879 l -4.51648,0 0,-6.024628 4.437442,0 c 0.93341,0 1.731314,0.296536 2.393734,0.889618 0.66242,0.585574 0.993626,1.295009 0.993626,2.128326 0,0.818303 -0.323678,1.52023 -0.971044,2.105805 l 0,0 z m -7.53123,-6.452545 c -0.18066,0 -0.338735,0.06381 -0.474231,0.191436 -0.127967,0.127626 -0.19195,0.285278 -0.19195,0.472962 l 0,14.684326 c 0,0.180177 0.06398,0.337829 0.19195,0.472961 0.135496,0.127625 0.293571,0.191437 0.474231,0.191437 0.188188,0 0.346263,-0.06381 0.47423,-0.191437 0.135495,-0.135132 0.203242,-0.292784 0.203242,-0.472961 l 0,-6.655243 3.771261,0 3.488981,7.060639 C 81.004123,81.87613 81.203599,82 81.482116,82 c 0.105385,0 0.203241,-0.02252 0.293572,-0.06757 0.165605,-0.08258 0.278515,-0.210204 0.338735,-0.382874 0.06022,-0.172669 0.04893,-0.341582 -0.03387,-0.506744 l -3.217992,-6.542633 c 1.121598,-0.172669 2.051231,-0.66064 2.788926,-1.463928 0.752751,-0.810795 1.12912,-1.749201 1.12912,-2.815247 0,-1.201178 -0.459171,-2.225917 -1.377526,-3.074249 -0.925883,-0.848332 -2.039937,-1.272491 -3.342195,-1.272491 l -5.114914,0 z"
           id="Maker"
           sketch:type="MSShapeGroup"
           inkscape:connector-curvature="0"
           style="fill:#546979" />
      </g>
    </g>
  </g>
</svg>
