<?xml version="1.0" standalone="no"?>
<!DOCTYPE svg PUBLIC "-//W3C//DTD SVG 1.1//EN" "http://www.w3.org/Graphics/SVG/1.1/DTD/svg11.dtd" >
<svg xmlns="http://www.w3.org/2000/svg" xmlns:xlink="http://www.w3.org/1999/xlink" version="1.1">
<metadata></metadata>
<defs>
<font id="transatblack_oblique" horiz-adv-x="1036" >
<font-face units-per-em="2048" ascent="1485" descent="-563" />
<missing-glyph horiz-adv-x="512" />
<glyph unicode="&#xfb01;" horiz-adv-x="1173" d="M61 621l5 30l79 217h78l33 222q13 87 45 156t74 111.5t92.5 71t101 40t99.5 13.5t87.5 -4t65.5 -16l-53 -268q-43 11 -86 0.5t-77 -48.5t-42 -99l-24 -179h184l-35 -247h-184l-88 -621h-316l88 621h-127zM721 0l123 868h315l-121 -868h-317zM856 1239q8 81 67 138t140 57 q82 0 138 -63.5t48 -143.5q-7 -86 -66 -140.5t-143 -54.5q-81 0 -137 61t-47 146z" />
<glyph unicode="&#xfb02;" horiz-adv-x="1193" d="M61 621l5 30l79 217h78l33 222q13 87 45 156t74 111.5t92.5 71t101 40t99.5 13.5t87.5 -4t65.5 -16l-53 -268q-43 11 -86 0.5t-77 -48.5t-42 -99l-24 -179h184l-35 -247h-184l-88 -621h-316l88 621h-127zM741 0l203 1438l295 24h27l-207 -1462h-318z" />
<glyph unicode="&#xfb03;" horiz-adv-x="1781" d="M61 621l5 30l79 217h78l25 160q13 87 45 156t74 111.5t92.5 71t101 40t99.5 14t87.5 -3.5t65.5 -16l-53 -268q-43 11 -86 0.5t-77 -49t-42 -99.5l-16 -117h292l33 222q13 87 45 156t74 111.5t93 71t101 40t99.5 13.5t88 -4t65.5 -16l-54 -268q-43 11 -86 0.5t-77 -48.5 t-42 -99l-24 -179h184l-35 -247h-184l-88 -621h-315l88 621h-293l-88 -621h-316l88 621h-127zM1329 0l123 868h315l-120 -868h-318zM1464 1239q8 81 67 138t140 57q82 0 138.5 -63.5t48.5 -143.5q-7 -86 -66 -140.5t-143 -54.5q-81 0 -137.5 61t-47.5 146z" />
<glyph unicode="&#xfb04;" horiz-adv-x="1802" d="M61 621l5 30l79 217h78l25 160q13 87 45 156t74 111.5t92.5 71t101 40t99.5 14t87.5 -3.5t65.5 -16l-53 -268q-43 11 -86 0.5t-77 -49t-42 -99.5l-16 -117h292l33 222q13 87 45 156t74 111.5t93 71t101 40t99.5 13.5t88 -4t65.5 -16l-54 -268q-43 11 -86 0.5t-77 -48.5 t-42 -99l-24 -179h184l-35 -247h-184l-88 -621h-315l88 621h-293l-88 -621h-316l88 621h-127zM1350 0l202 1438l295 24h27l-207 -1462h-317z" />
<glyph horiz-adv-x="0" />
<glyph horiz-adv-x="682" />
<glyph unicode=" "  horiz-adv-x="512" />
<glyph unicode="&#x09;" horiz-adv-x="512" />
<glyph unicode="&#xa0;" horiz-adv-x="512" />
<glyph unicode="!" horiz-adv-x="700" d="M115 180q8 79 65.5 134t134.5 55q81 0 136 -61t47 -140q-7 -84 -64 -136t-139 -52q-79 0 -133 58.5t-47 141.5zM240 1333h485l-289 -846h-178z" />
<glyph unicode="&#x22;" horiz-adv-x="985" d="M205 1438h385l-248 -754h-117zM662 1438h385l-248 -754h-117z" />
<glyph unicode="#" horiz-adv-x="1300" d="M41 264v283h235l91 260h-156v283h254l86 243h274l-82 -243h158l86 243h275l-82 -243h135v-283h-232l-86 -260h148v-283h-244l-88 -264h-291l92 264h-149l-88 -264h-291l92 264h-137zM561 547h152l90 260h-156z" />
<glyph unicode="$" horiz-adv-x="1005" d="M31 76l112 266q57 -33 140 -59.5t147 -26.5q152 0 164 88q6 49 -33 89.5t-143 113.5q-277 195 -234 454q19 114 104 209.5t228 126.5l37 275h266l-37 -273q65 -9 134.5 -29.5t99.5 -39.5l-103 -266q-43 26 -114.5 43.5t-128.5 17.5q-64 0 -108 -26.5t-50 -69.5 q-6 -37 27.5 -72.5t128.5 -99.5q94 -64 153.5 -126t84.5 -119.5t31 -118.5t-7 -122q-11 -67 -47.5 -126t-86 -99t-103 -66.5t-105.5 -37.5l-37 -258h-266l39 253q-164 21 -293 99z" />
<glyph unicode="%" horiz-adv-x="1429" d="M41 137l1253 1213l156 -158l-1253 -1221zM106 1038q12 144 113.5 234t243.5 90q89 0 164.5 -42t118 -117.5t34.5 -164.5q-12 -141 -112.5 -233t-235.5 -92q-88 0 -165.5 42t-123 118t-37.5 165zM375 1038q-7 -53 9.5 -84.5t47.5 -31.5t55 31t31 85q7 55 -9.5 86t-47.5 31 q-33 0 -56 -30.5t-30 -86.5zM731 305q12 144 113 234t243 90q89 0 164.5 -42t118.5 -117.5t35 -164.5q-12 -141 -113 -233t-235 -92q-88 0 -165.5 42t-123 118t-37.5 165zM999 305q-7 -53 10 -85t48 -32t55 31t31 86t-10 86t-48 31q-33 0 -56 -30.5t-30 -86.5z" />
<glyph unicode="&#x26;" horiz-adv-x="1312" d="M35 345q-2 101 44 187.5t132 155.5l131 84l-12 25q0 1 -4.5 8.5t-7.5 14t-8.5 19t-9.5 24t-9 28t-8 32.5t-5 36t-2 40q0 151 114.5 256t268.5 105q150 0 256.5 -80t153.5 -231l-252 -111q-59 129 -133 129q-35 0 -57.5 -22t-28.5 -56q-4 -23 4.5 -51.5t20 -48.5t37.5 -62 q2 -3 3 -5t3 -5l4 -6l182 -291l266 193l154 -219l-271 -195l189 -299h-371l-76 119l-112 -76q-26 -21 -74.5 -36.5t-111.5 -19t-126 7.5t-124 50t-99 102q-59 97 -61 198zM332 389q-8 -40 16 -80q23 -35 71.5 -41t92.5 25l84 57l-113 182l-106 -73q-37 -30 -45 -70z" />
<glyph unicode="'" horiz-adv-x="528" d="M205 1438h385l-248 -754h-117z" />
<glyph unicode="(" horiz-adv-x="901" d="M115 655q39 279 214.5 507t467.5 366l176 -238q-71 -38 -133 -82t-125.5 -105.5t-111.5 -130t-84 -158.5t-50 -189q-7 -51 -7.5 -100.5t6 -95t17 -88.5t26.5 -84t34 -78t41 -72.5t45 -66t47.5 -61.5t48 -55.5t47.5 -50.5l-229 -211q-235 195 -351.5 457.5t-78.5 535.5z " />
<glyph unicode=")" horiz-adv-x="901" d="M-41 -100q71 38 133 82t125.5 105.5t111.5 130t84 158.5t50 189q7 51 7.5 100.5t-6 95t-17 88.5t-26.5 84t-34 78t-41 72.5t-45 66t-47.5 61.5t-48 55.5t-47.5 50.5l229 211q235 -195 351.5 -457.5t78.5 -535.5q-39 -279 -214.5 -507t-467.5 -366z" />
<glyph unicode="*" horiz-adv-x="882" d="M123 985l223 88l-190 101l129 176l161 -140v228h222l-60 -226l189 127l96 -186l-225 -90l194 -92l-127 -185l-166 144l-4 -232h-221l62 232l-179 -133z" />
<glyph unicode="+" horiz-adv-x="993" d="M72 565l39 281h297l45 313h280l-45 -313h295l-39 -281h-295l-43 -313h-280l43 313h-297z" />
<glyph unicode="," horiz-adv-x="583" d="M-72 -334l174 690h363v-41l-440 -675z" />
<glyph unicode="-" horiz-adv-x="757" d="M51 236l39 305l596 114l-41 -305z" />
<glyph unicode="." horiz-adv-x="583" d="M53 180q8 79 66 134t135 55q81 0 135.5 -61t46.5 -140q-7 -84 -64 -136t-139 -52q-79 0 -133 58.5t-47 141.5z" />
<glyph unicode="/" horiz-adv-x="1060" d="M-137 -268l1048 1843l226 -137l-1053 -1846z" />
<glyph unicode="0" horiz-adv-x="1271" d="M90 670q23 201 113.5 359t230.5 245.5t305 87.5q124 0 226 -51t169 -141.5t96.5 -220t12.5 -279.5q-23 -201 -113.5 -360.5t-230.5 -249t-305 -89.5t-288.5 89.5t-181 249.5t-34.5 360zM449 670q-30 -209 14 -312.5t145 -103.5t173 103t102 313t-13.5 309.5t-144.5 99.5 q-102 0 -174 -100t-102 -309z" />
<glyph unicode="1" horiz-adv-x="798" d="M92 1049l639 299h47l-186 -1348h-338l127 864l-168 -78z" />
<glyph unicode="2" horiz-adv-x="1116" d="M-20 49q360 331 461 432q213 213 258 329q11 27 14 52q14 105 -28.5 160t-119.5 55q-63 0 -108 -30.5t-86 -79.5h-37l-172 190q58 77 179 140t275 63q87 0 170 -33t149 -92.5t101.5 -154t24.5 -206.5q-7 -68 -30 -128t-78.5 -136.5t-109.5 -139.5t-165 -183h313l-41 -287 h-960z" />
<glyph unicode="3" horiz-adv-x="1071" d="M10 61l99 252l36 2q128 -69 246 -69q66 0 121.5 20t92.5 65t38 109q1 57 -31 99.5t-84 62t-117 22.5t-130 -20l-29 55l315 390h-370l41 284h860l14 -39l-393 -495q27 -5 61 -21t72.5 -47.5t69.5 -73t50.5 -102.5t16.5 -129q-4 -109 -49.5 -196.5t-120 -143.5t-170 -85.5 t-203.5 -29.5q-155 0 -251.5 22t-184.5 68z" />
<glyph unicode="4" horiz-adv-x="1241" d="M-20 260l1011 1088l146 -27l-123 -893h155l-41 -266h-153l-23 -162h-336l23 162h-610zM514 428h166l35 223z" />
<glyph unicode="5" horiz-adv-x="1091" d="M10 61l99 254h36q40 -25 107 -46t141 -21q101 0 176 54.5t74 146.5q-1 81 -61 132.5t-150 51.5q-42 0 -78 -10t-53.5 -19.5t-45.5 -30t-38 -26.5l-72 20l179 766h757l-41 -284h-469l-45 -205q59 6 133 -0.5t123 -30.5q37 -18 69 -43t66 -66t54 -102.5t20 -136.5 q0 -216 -156.5 -355t-420.5 -139q-259 0 -404 90z" />
<glyph unicode="6" horiz-adv-x="1142" d="M88 545q19 124 65 232.5t107 188.5t138 145.5t157 109.5t165 75t159 45.5t143 18.5l59 -254l-30 -35q-189 -18 -332.5 -105t-208.5 -210q73 73 246 73q62 0 123.5 -27.5t111 -76.5t77.5 -125t22 -164q-14 -202 -159 -333.5t-360 -131.5q-114 0 -209.5 41t-161 115 t-96 182t-16.5 236zM428 420q-7 -76 32.5 -125t108.5 -49q70 0 116.5 48t55.5 126q9 79 -31.5 130.5t-109.5 51.5q-71 0 -117.5 -51t-54.5 -131z" />
<glyph unicode="7" horiz-adv-x="1083" d="M61 0l615 1049h-473l39 284h925l19 -41l-721 -1292h-404z" />
<glyph unicode="8" horiz-adv-x="1165" d="M55 430q17 114 91 199t163 106q-41 33 -71 104t-17 165q23 159 147 257.5t332 98.5q99 0 182.5 -33.5t136 -88.5t77.5 -127t14 -148q-24 -172 -145 -242q60 -34 109 -121t38 -194q-21 -199 -165.5 -317t-403.5 -118q-118 0 -216.5 37.5t-161.5 100.5t-92.5 146.5 t-17.5 174.5zM399 416q-7 -77 43.5 -120.5t122.5 -43.5q76 0 138 42t69 122q7 78 -43.5 121t-122.5 43q-78 0 -139 -41.5t-68 -122.5zM520 948q-3 -62 34 -100.5t89 -38.5q56 0 106.5 37.5t53.5 101.5q3 65 -36 100t-89 35q-57 0 -106 -35t-52 -100z" />
<glyph unicode="9" horiz-adv-x="1142" d="M115 895q14 202 158.5 333.5t359.5 131.5q114 0 209.5 -41t161 -115t96 -182t16.5 -236q-19 -124 -65 -232.5t-107 -188.5t-138 -145.5t-157 -109.5t-165 -75t-159 -45.5t-143 -18.5l-59 254l31 35q189 18 331.5 105t208.5 210q-73 -73 -245 -73q-62 0 -123.5 27.5 t-111 76.5t-77.5 125t-22 164zM463 911q-9 -79 31.5 -130.5t109.5 -51.5q71 0 117.5 51t54.5 131q7 76 -32.5 125t-108.5 49q-70 0 -116.5 -48t-55.5 -126z" />
<glyph unicode=":" horiz-adv-x="583" d="M53 180q8 79 66 134t135 55q81 0 135.5 -61t46.5 -140q-7 -84 -64 -136t-139 -52q-79 0 -133 58.5t-47 141.5zM127 709q8 79 65.5 133.5t135.5 54.5q81 0 135.5 -61t46.5 -140q-7 -84 -64 -136t-139 -52q-79 0 -133 58.5t-47 142.5z" />
<glyph unicode=";" horiz-adv-x="583" d="M-72 -334l174 690h363v-41l-440 -675zM129 709q8 79 65.5 133.5t135.5 54.5q81 0 135.5 -61t46.5 -140q-7 -84 -64 -136t-139 -52q-79 0 -133 58.5t-47 142.5z" />
<glyph unicode="&#x3c;" horiz-adv-x="1046" d="M53 666l8 57l979 489l-47 -344l-364 -182l313 -184l-47 -324z" />
<glyph unicode="=" horiz-adv-x="1021" d="M61 365l39 278h854l-39 -278h-854zM119 766l39 281h854l-39 -281h-854z" />
<glyph unicode="&#x3e;" horiz-adv-x="1046" d="M53 178l47 344l365 183l-313 184l47 323l841 -487l-8 -57z" />
<glyph unicode="?" horiz-adv-x="884" d="M123 1231q62 57 160.5 93t220.5 36q88 0 168 -26.5t139.5 -74t90.5 -119t20 -155.5q-11 -90 -52.5 -154.5t-93.5 -101t-104 -68t-93.5 -74.5t-52.5 -100h-254q-14 64 -0.5 119.5t41 95.5t64.5 76.5t71 62.5t59.5 54t29.5 51q7 44 -28 72.5t-91 28.5q-22 0 -42.5 -6 t-29 -10.5t-32.5 -20.5t-29 -19zM168 180q8 79 66 134t135 55q81 0 135.5 -61t46.5 -140q-7 -84 -64 -136t-139 -52q-79 0 -133 58.5t-47 141.5z" />
<glyph unicode="@" horiz-adv-x="1660" d="M80 664q31 232 153.5 415t312.5 285t415 102q160 0 301 -62.5t235.5 -165.5t140.5 -241.5t25 -283.5q-31 -217 -154.5 -357.5t-294.5 -140.5q-73 0 -137 46.5t-69 94.5q-27 -52 -93.5 -96t-152.5 -45q-74 -1 -137 29.5t-105.5 85.5t-59.5 137t-1 178q13 78 46 147 t83.5 123.5t122 87.5t155.5 35q77 1 141 -36.5t87 -90.5l98 95h141l-145 -443q-13 -39 -17.5 -67.5t-1 -53t22.5 -37t53 -12.5q82 0 155 90t93 230q12 84 -6 170.5t-64 162t-112.5 135t-158 94t-194.5 34.5q-265 0 -460.5 -180t-241.5 -465q-28 -178 32.5 -337.5t198 -258.5 t318.5 -99q128 0 224 26t196 83l73 -131q-233 -135 -483 -135q-145 0 -272 46t-218.5 128t-153.5 188.5t-85.5 233t-5.5 256.5zM707 637q-17 -74 10.5 -128t85.5 -54q57 0 98 45.5t62 124.5q19 70 -7 127t-82 57q-60 0 -103.5 -43t-63.5 -129z" />
<glyph unicode="A" horiz-adv-x="1329" d="M-92 0l842 1450h106l432 -1450h-354l-49 174h-494l-102 -174h-381zM530 453h279l-94 338z" />
<glyph unicode="B" horiz-adv-x="1173" d="M72 10l200 1417q76 16 153 24.5t160.5 8.5t158.5 -10.5t142.5 -37.5t116.5 -67.5t78 -105.5t29 -147q0 -61 -23 -120t-56 -99t-61 -65.5t-46 -33.5q20 -9 48.5 -32.5t63.5 -64.5t57 -107q18 -53 18 -111q0 -13 -1 -27q-4 -63 -20.5 -118t-52.5 -109t-89 -95t-134 -72 q-82 -32 -186 -46q-84 -12 -192 -11q-26 1 -54 1q-142 4 -310 28zM444 287q49 -9 95 -9q29 0 57 4q72 10 122.5 56t57.5 119q1 10 1 19q-1 48 -23 88q-26 46 -60 65h-202zM528 889h166q81 53 88 133q1 8 1 15q1 33 -11 58q-14 31 -38.5 47t-55 23.5t-60 5.5t-53.5 -10z" />
<glyph unicode="C" horiz-adv-x="1370" d="M86 760q12 134 61 249t124 198t172.5 142t208 88t227.5 29q100 0 199 -27t170.5 -67t120.5 -77t73 -66l-199 -240q-170 170 -358 170q-175 0 -305.5 -118t-145.5 -312q-1 -15 -1 -31q0 -66 21 -130q26 -80 77.5 -144t134 -103.5t180.5 -39.5q159 0 295 90l155 -250 q-179 -150 -495 -150q-94 0 -186.5 26t-175.5 74t-152.5 119t-117.5 156q-49 86 -71 193q-16 74 -15 152q0 34 3 69z" />
<glyph unicode="D" horiz-adv-x="1376" d="M72 0l200 1427q163 34 297 34q16 0 32 -1q147 -4 262 -35.5t200.5 -90t144.5 -130t93.5 -155.5t46.5 -166q8 -53 9 -104q0 -29 -3 -58q-5 -65 -18.5 -126t-39.5 -128t-63.5 -126t-94 -116t-126.5 -101.5t-166 -78.5q-96 -33 -208 -51q-106 -17 -242 -17h-16 q-144 1 -308 23zM449 291q37 -5 74 -5q35 0 71 4q72 8 143 39t127.5 81.5t97 131.5t52.5 183q4 31 4 61q0 104 -44 188q-56 108 -164 156q-72 32 -154 31q-41 0 -85 -8z" />
<glyph unicode="E" horiz-adv-x="1073" d="M72 0l200 1438h838l-39 -287h-502l-30 -221h403l-41 -287h-403l-49 -356h516l-41 -287h-852z" />
<glyph unicode="F" horiz-adv-x="1026" d="M72 0l200 1438h818l-39 -287h-482l-30 -221h383l-41 -287h-383l-90 -643h-336z" />
<glyph unicode="G" horiz-adv-x="1476" d="M86 760q12 134 61 249t124 198t172.5 142t208 88t227.5 29q100 0 199 -27t170.5 -67t120.5 -77t73 -66l-199 -240q-170 170 -358 170q-175 0 -305.5 -118t-145.5 -312q-1 -15 -1 -31q0 -66 21 -130q26 -80 77.5 -144t134 -103.5t180.5 -39.5q121 0 229 53l23 145h-207 l39 285h516l-76 -594q-132 -111 -264 -155t-305 -44q-94 0 -186.5 26t-175.5 74t-152.5 119t-117.5 156.5t-71 192.5q-15 74 -15 152q0 34 3 69z" />
<glyph unicode="H" horiz-adv-x="1323" d="M72 0l200 1438h338l-69 -508h374l70 508h338l-201 -1438h-340l92 643h-374l-90 -643h-338z" />
<glyph unicode="I" horiz-adv-x="610" d="M72 0l200 1438h338l-200 -1438h-338z" />
<glyph unicode="J" horiz-adv-x="872" d="M27 0l39 281q28 -3 54 -3q102 0 176 50q93 62 114 207l127 903h335l-129 -914q-43 -310 -218 -440q-129 -96 -339 -96q-75 0 -159 12z" />
<glyph unicode="K" horiz-adv-x="1296" d="M72 0l200 1438h338l-78 -559l478 559h399l-573 -668l409 -770h-405l-336 688l-94 -688h-338z" />
<glyph unicode="L" horiz-adv-x="1009" d="M72 0l200 1438h334l-160 -1151h504l-41 -287h-837z" />
<glyph unicode="M" horiz-adv-x="1525" d="M72 0l200 1440l50 10l509 -512l650 512l45 -10l-201 -1440h-332l111 784l-322 -254h-22l-244 254l-110 -784h-334z" />
<glyph unicode="N" horiz-adv-x="1357" d="M72 0l200 1440l45 10l641 -510l70 498h330l-201 -1438h-330l76 541l-387 301l-117 -842h-327z" />
<glyph unicode="O" horiz-adv-x="1570" d="M84 727q9 157 69.5 293.5t159.5 234.5t236.5 154.5t294.5 56.5q153 0 288 -60t229 -162t145 -242q43 -119 43 -249q0 -23 -1 -46q-9 -156 -69 -291.5t-158.5 -233.5t-238 -154.5t-300.5 -56.5q-152 0 -286 60t-227.5 161.5t-143.5 241.5q-42 119 -42 247q0 23 1 46z M428 717q-1 -17 -1 -34q0 -79 23 -147q28 -83 80 -138t122.5 -86t148.5 -31q163 0 276.5 114t126.5 322q1 18 1 36q-1 106 -41 194q-48 103 -132.5 159.5t-187.5 56.5q-79 0 -150.5 -29.5t-128.5 -84t-93.5 -140.5t-43.5 -192z" />
<glyph unicode="P" horiz-adv-x="1130" d="M72 0l200 1427q149 33 281 33h19q140 -2 253 -45t193 -111q80 -70 122 -166q37 -86 36 -184v-24q-9 -175 -108 -307q-100 -131 -258 -197q-147 -61 -322 -61h-27l-53 -365h-336zM502 664q13 -1 25 0q135 0 217 70q88 78 96 188v10q0 39 -14 77q-16 43 -47.5 78.5 t-86.5 52.5q-35 11 -74 11q-23 0 -49 -4z" />
<glyph unicode="Q" horiz-adv-x="1570" d="M84 727q9 157 69.5 293.5t159.5 234.5t236.5 154.5t294.5 56.5q153 0 288 -60t229 -161.5t145 -242.5q43 -119 43 -249q0 -23 -1 -46q-10 -165 -74.5 -305t-175.5 -240l103 -146l-244 -176l-119 170q-125 -39 -256 -39q-152 0 -286 60t-227.5 161.5t-143.5 241.5 q-42 119 -42 247q0 23 1 46zM428 717q-1 -17 -1 -34q0 -79 23 -147q28 -83 80 -138t122.5 -86t148.5 -31q33 0 49 2l-109 157l240 181l129 -187q82 109 94 283q1 18 1 36q0 106 -41 194q-47 103 -132 159.5t-188 56.5q-79 0 -150.5 -29.5t-128.5 -84t-93.5 -140.5 t-43.5 -192z" />
<glyph unicode="R" horiz-adv-x="1216" d="M72 0l200 1427q157 32 288 32q109 0 199 -22q199 -49 302 -181q95 -121 94 -287v-29q-14 -281 -270 -426l291 -514h-385l-213 412q-73 -4 -102 -4h-9l-59 -408h-336zM508 709q14 -1 27 -1q124 0 197 59q81 65 87 171v16q0 93 -64 151q-52 47 -131 47q-26 0 -55 -5z" />
<glyph unicode="S" horiz-adv-x="1079" d="M20 84l125 291q185 -103 320 -103q83 0 128.5 30.5t47.5 84.5q0 16 -4 31t-9 27t-18 26t-22.5 23.5t-30 25.5t-32.5 25t-39 27.5t-42 29.5q-64 45 -109.5 87.5t-86.5 96.5q-40 56 -60 122q-17 58 -16 123v20q3 74 35.5 145.5t92.5 133t160.5 99t225.5 37.5q119 0 229 -26 t164 -58l-114 -292q-138 69 -275 69q-76 0 -124 -36t-48 -81q0 -43 43.5 -87t138.5 -101q78 -47 135 -97.5t87.5 -97.5t48.5 -96t19 -94v-30q0 -30 -1 -62q-19 -191 -163 -299q-142 -107 -378 -107h-4q-133 1 -248 37.5t-176 75.5z" />
<glyph unicode="T" horiz-adv-x="1042" d="M123 1151l39 287h983l-39 -287h-324l-164 -1151h-335l163 1151h-323z" />
<glyph unicode="U" horiz-adv-x="1284" d="M98 512l131 926h342l-133 -934q-3 -20 -2 -39q0 -74 40 -127q51 -66 140 -66q90 0 154.5 63.5t79.5 168.5l133 934h342l-131 -926q-13 -90 -42.5 -169t-79.5 -148t-116.5 -118.5t-157 -77.5t-196.5 -28q-132 0 -236 43.5t-167 117.5t-89 172q-17 63 -17 130q0 38 5 78z " />
<glyph unicode="V" horiz-adv-x="1347" d="M123 1438h354l223 -750l435 750h366l-844 -1450h-106z" />
<glyph unicode="W" horiz-adv-x="1906" d="M123 1438h358l174 -684l375 696h96l191 -711l389 699h354l-778 -1450h-113l-192 717l-375 -717h-115z" />
<glyph unicode="X" horiz-adv-x="1241" d="M-41 0l518 725l-319 713h377l174 -389l278 389h367l-504 -703l332 -735h-377l-187 412l-292 -412h-367z" />
<glyph unicode="Y" horiz-adv-x="1232" d="M113 1438h366l209 -463l334 463h375l-586 -824l-86 -614h-338l86 614z" />
<glyph unicode="Z" horiz-adv-x="1107" d="M-41 47l715 1106h-479l38 285h963l14 -45l-708 -1106h518l-41 -287h-1004z" />
<glyph unicode="[" horiz-adv-x="856" d="M29 -270l241 1708h613l-37 -271l-277 -2l-166 -1165h277l-39 -270h-612z" />
<glyph unicode="\" horiz-adv-x="1060" d="M217 1444l264 76l492 -1788l-262 -80z" />
<glyph unicode="]" horiz-adv-x="856" d="M-6 -268l37 270l276 2l166 1165h-276l39 271h612l-242 -1708h-612z" />
<glyph unicode="^" horiz-adv-x="919" d="M78 991l491 447h27l354 -480l-209 -159l-196 264l-297 -264z" />
<glyph unicode="_" horiz-adv-x="1406" d="M0 -188h1407v-238h-1407v238z" />
<glyph unicode="`" horiz-adv-x="600" d="M123 1245v41h375l135 -303h-258z" />
<glyph unicode="a" horiz-adv-x="970" d="M51 252q0 135 92 218t224 83q77 0 157.5 -32.5t112.5 -69.5l4 20q2 13 2 26q-1 51 -39 93q-48 52 -135 51q-83 0 -172 -27l-59 240q146 41 286 41q91 0 171.5 -32t138.5 -90q58 -57 86 -147q18 -59 18 -126q0 -34 -4 -70l-64 -430h-168l-108 68q-28 -41 -92 -69t-146 -28 q-128 0 -216.5 75.5t-88.5 205.5zM352 276q-4 -31 25.5 -53t75.5 -22q56 0 100.5 25.5t56.5 56.5l2 8q-21 22 -65 39q-42 16 -87 16h-5q-45 0 -71.5 -18.5t-31.5 -51.5z" />
<glyph unicode="b" horiz-adv-x="1085" d="M41 0l203 1438l295 24h26l-92 -649q105 84 236 84q154 0 255 -130q90 -116 90 -289q0 -21 -1 -42q-12 -204 -129.5 -334.5t-286.5 -130.5q-89 0 -160.5 40.5t-116.5 113.5l-151 -125h-168zM420 432q-2 -19 -2 -37q0 -72 36 -116q45 -54 109 -54q65 0 119 55.5t61 155.5 q1 13 1 26q0 80 -40 128q-46 54 -110 55q-61 0 -110.5 -50t-63.5 -163z" />
<glyph unicode="c" horiz-adv-x="860" d="M63 430q13 216 157.5 341.5t352.5 125.5q100 0 191 -38.5t137 -94.5l-180 -195q-21 26 -62.5 50t-83.5 24q-81 0 -140.5 -56.5t-65.5 -154.5q-1 -10 -1 -20q0 -80 46 -128q50 -54 118 -55q37 0 69 10t45.5 18.5t43.5 29.5l139 -193q-110 -123 -337 -123q-87 0 -161 27.5 t-124 73t-84.5 105t-48.5 123.5q-11 51 -12 102q0 14 1 28z" />
<glyph unicode="d" horiz-adv-x="1087" d="M63 432q12 204 129.5 334.5t286.5 130.5q168 0 264 -135l95 676l295 24h26l-207 -1462h-159l-117 70q-95 -99 -248 -99q-168 0 -272 129q-94 116 -94 291q0 20 1 41zM373 432q-1 -13 -1 -26q0 -80 40 -128q46 -54 110 -55q61 0 110.5 50t63.5 163q2 19 2 37q0 72 -36 116 q-45 54 -109 54q-65 0 -119 -55.5t-61 -155.5z" />
<glyph unicode="e" horiz-adv-x="983" d="M63 434q3 100 45 187.5t109.5 147t155 94t180.5 34.5q86 0 166 -36t140 -105q61 -68 83 -168q10 -43 9 -90q0 -64 -17 -136h-569q3 -58 62.5 -101.5t147.5 -43.5q60 0 114 21.5t85 48.5l131 -187q-74 -67 -162.5 -98t-216.5 -31q-137 0 -245 62t-165 168q-53 99 -53 216 v17zM397 545h254v5q0 40 -30 70q-32 32 -80 33q-50 0 -92.5 -33t-51.5 -75z" />
<glyph unicode="f" horiz-adv-x="698" d="M61 621l5 30l79 217h78l33 222q13 87 45 156t74 111.5t92.5 71t101 40t99.5 13.5h24q35 0 64 -4q38 -6 65 -16l-53 -268q-22 6 -44 6l-42 -6q-43 -10 -77 -48t-42 -99l-24 -179h184l-35 -247h-184l-88 -621h-316l88 621h-127z" />
<glyph unicode="g" horiz-adv-x="1032" d="M-113 -250q0 96 66 165.5t162 96.5q-36 7 -64 42q-22 28 -22 66q0 11 2 23q9 58 68 95q40 26 85 26q22 0 45 -6q-71 33 -113 122q-35 76 -35 143q0 11 1 22q5 59 32.5 118t77.5 112.5t133.5 87.5t186.5 34q97 0 191.5 -35t130.5 -88l225 94h45l-37 -266h-164q0 -1 -2 -13 t-2 -18q-13 -167 -118 -266t-314 -106q-40 0 -72 -11t-35 -32q-4 -24 21 -36t65 -16q234 -19 345.5 -93t111.5 -208q0 -157 -149.5 -250.5t-386.5 -93.5q-214 0 -347 81t-133 210zM197 -238q0 -28 44.5 -41.5t106.5 -13.5q107 0 172.5 20t65.5 58q0 22 -22 38t-56.5 22.5 t-67.5 8.5q-19 2 -37 2q-14 0 -28 -1q-82 -5 -130 -29t-48 -64zM375 543q-1 -9 -1 -17q0 -39 28 -66q34 -34 81 -34q45 0 79.5 32.5t41.5 84.5q1 9 1 17q0 40 -27 66q-34 33 -82 33t-81 -31t-40 -85z" />
<glyph unicode="h" d="M41 0l123 868l80 570l295 24h26l-94 -661q32 39 88.5 67.5t126.5 28.5q91 0 166.5 -46.5t115.5 -132.5q29 -63 29 -135q0 -27 -4 -55l-71 -528h-320l70 500q1 10 1 21q-1 41 -23 75q-28 43 -91 43q-54 0 -87.5 -39t-41.5 -96l-72 -504h-317z" />
<glyph unicode="i" horiz-adv-x="493" d="M41 0l123 868h315l-121 -868h-317zM176 1239q8 81 67 138t140 57q82 0 138 -64q49 -56 49 -123q0 -10 -1 -20q-7 -86 -66 -140.5t-143 -54.5q-81 0 -137 61q-48 53 -48 123q0 11 1 23z" />
<glyph unicode="j" horiz-adv-x="495" d="M-225 -500l51 267q21 -4 41 -4q24 0 47 6q42 11 75.5 48.5t41.5 98.5l133 952h315l-139 -995q-12 -87 -43.5 -156t-73.5 -111.5t-93 -71t-101.5 -40t-100.5 -14.5h-28q-32 0 -60 4q-38 6 -65 16zM178 1239q8 81 67 138t140 57q82 0 138 -64q49 -55 49 -123q0 -10 -1 -20 q-7 -86 -66 -140.5t-143 -54.5q-81 0 -137 61q-48 53 -48 123q0 11 1 23z" />
<glyph unicode="k" horiz-adv-x="999" d="M41 0l203 1438l295 24h26l-127 -893l273 299h370l-376 -422l256 -446h-361l-190 358l-52 -358h-317z" />
<glyph unicode="l" horiz-adv-x="493" d="M41 0l203 1438l295 24h26l-207 -1462h-317z" />
<glyph unicode="m" horiz-adv-x="1470" d="M41 0l123 868h168l121 -71q32 41 88 70.5t118 29.5q86 0 148 -41t90 -100q43 71 115.5 106t146.5 35q133 1 213 -105q62 -83 62 -191q0 -30 -4 -62l-74 -539h-322l72 510q2 17 2 31q0 35 -13 57q-19 32 -63 31q-70 0 -100 -111l-74 -518h-319l71 504q1 12 1 24 q1 40 -15 66q-20 36 -66 35q-81 0 -100 -135l-70 -494h-319z" />
<glyph unicode="n" d="M41 0l123 868h168l121 -71q30 38 94.5 69t138.5 31q91 0 166.5 -46.5t115.5 -132.5q29 -63 29 -135q0 -27 -4 -55l-71 -528h-320l70 500q2 11 2 22q0 40 -23 74q-29 43 -92 43q-54 0 -88.5 -39.5t-40.5 -95.5l-72 -504h-317z" />
<glyph unicode="o" d="M63 436q13 203 153.5 332t340.5 129q97 0 182 -34t145 -93q62 -60 94 -146q27 -73 27 -157q0 -15 -1 -31q-12 -202 -154.5 -333.5t-343.5 -131.5q-198 0 -327 132q-117 120 -117 297q0 18 1 36zM371 436q-1 -14 -1 -27q0 -81 37 -129q43 -55 107 -55q65 0 119 55.5 t61 155.5q1 13 1 26q1 80 -39 128q-46 54 -111 55q-64 0 -115.5 -54t-58.5 -155z" />
<glyph unicode="p" horiz-adv-x="1085" d="M-31 -500l195 1366h160l116 -90q115 119 258 119q161 0 264 -129q92 -116 92 -291q0 -20 -1 -41q-12 -202 -134 -333.5t-292 -131.5q-172 0 -254 115l-82 -559l-295 -25h-27zM420 430q-2 -19 -2 -37q0 -73 36 -116q45 -54 109 -54q65 0 119 55.5t61 155.5q1 13 1 26 q0 81 -40 128q-45 55 -110 55q-61 0 -110.5 -50t-63.5 -163z" />
<glyph unicode="q" horiz-adv-x="1085" d="M63 432q12 204 129.5 334.5t286.5 130.5q186 0 277 -133l151 104h168l-190 -1343l-295 -25h-27l80 535q-87 -64 -235 -64q-154 0 -256 130q-90 116 -90 289q0 21 1 42zM373 432q-1 -13 -1 -26q0 -81 40 -128q45 -55 110 -55q61 0 110.5 50t63.5 163q2 19 2 37 q0 73 -36 116q-45 54 -109 54q-65 0 -119 -55.5t-61 -155.5z" />
<glyph unicode="r" horiz-adv-x="704" d="M41 0l123 868h176l121 -75q25 44 72.5 73t97.5 29q81 0 114 -37l-90 -289l-14 -4q-41 23 -92 23q-60 0 -113 -41l-78 -547h-317z" />
<glyph unicode="s" horiz-adv-x="894" d="M20 57l86 250q37 -18 144 -49t172 -31h15.5h16.5h15t15 1l12.5 2.5t12 3.5t9 5t7 7.5t3.5 9.5q3 21 -32 32q-15 5 -80 17q-164 32 -239 115q-61 68 -61 164q0 22 3 45q11 76 52.5 131t102 83.5t123 41t129.5 12.5q90 0 190.5 -18.5t157.5 -42.5l-79 -250q-48 21 -135 36 t-154 15q-84 0 -86 -35q-3 -19 23.5 -28.5t80.5 -16.5q81 -11 141 -36.5t92 -58.5t52 -74q21 -40 21 -80v-11q0 -34 -3 -68q-10 -73 -51 -125.5t-101.5 -80t-124 -40t-134.5 -12.5q-116 0 -232 26t-164 60z" />
<glyph unicode="t" horiz-adv-x="702" d="M61 621l5 30l79 217h78l41 283l293 31h27l-45 -314h184l-35 -247h-182l-37 -252q-6 -23 -3.5 -41t3.5 -31.5t9 -22.5t13 -15t16.5 -9t19 -4.5t20.5 -0.5t21 2t20 3l16 -250q-67 -12 -128.5 -12t-116.5 13.5t-97.5 41.5t-72 71.5t-39.5 104.5q-4 28 -4 61q0 37 6 80 l38 261h-129z" />
<glyph unicode="u" d="M84 340l72 528h319l-69 -499q-2 -12 -2 -23q0 -40 22 -74q28 -44 92 -43q54 0 88.5 40t40.5 96l72 503h317l-123 -868h-168l-120 72q-30 -38 -95 -69.5t-139 -31.5q-91 0 -166.5 46.5t-115.5 132.5q-29 63 -29 135q0 27 4 55z" />
<glyph unicode="v" horiz-adv-x="991" d="M72 868h338l116 -311l211 311h346l-577 -880h-105z" />
<glyph unicode="w" horiz-adv-x="1413" d="M72 868h327l107 -323l219 336h106l121 -336l207 323h346l-555 -880h-104l-135 377l-232 -377h-104z" />
<glyph unicode="x" horiz-adv-x="999" d="M-31 0l373 432l-254 436h361l108 -186l162 186h362l-374 -438l254 -430h-363l-106 180l-154 -180h-369z" />
<glyph unicode="y" horiz-adv-x="991" d="M-25 -489l357 620l-254 737h334l120 -387l222 387h329l-776 -1378h-315z" />
<glyph unicode="z" horiz-adv-x="923" d="M0 53l442 568h-323l33 247h794l8 -55l-419 -563h311l-35 -250h-797z" />
<glyph unicode="{" horiz-adv-x="987" d="M74 455l35 256h47q49 0 86 15t58 36t35.5 56t20.5 62.5t11 67.5l20 146q14 99 59.5 179t125.5 134.5t192.5 63.5t259.5 -33l-76 -275q-51 14 -89.5 6.5t-64.5 -22t-43.5 -40.5t-26 -49t-11.5 -48l-17 -125q-15 -117 -92 -200.5t-190 -102.5q108 -17 160.5 -100t37.5 -201 l-16 -127q-3 -26 -2.5 -48t7.5 -48.5t25 -40t49.5 -22t80.5 4.5l30 -274q-185 -57 -309.5 -12t-185 144.5t-45.5 211.5l20 147q4 28 6 48t2 46.5t-4.5 45.5t-15 38.5t-27 31.5t-43 20t-61.5 8h-49z" />
<glyph unicode="|" horiz-adv-x="624" d="M205 -268v1732h297v-1732h-297z" />
<glyph unicode="}" horiz-adv-x="987" d="M-16 -270l75 274q51 -13 89.5 -6t65 22t44 40.5t26 49t11.5 48.5l16 125q15 117 92.5 200.5t190.5 102.5q-108 17 -161 100t-38 201l17 127q3 21 3 39.5t-3.5 41t-14 37t-29 28t-47 13.5t-69.5 -6l-31 275q137 44 243 27.5t176 -73.5t101.5 -136.5t20.5 -161.5l-21 -148 q-6 -40 -7.5 -67.5t3.5 -62t20 -56t47.5 -36.5t80.5 -15h49l-35 -256h-47q-49 0 -86 -15t-58 -36.5t-35.5 -56.5t-20.5 -62.5t-11 -67.5l-20 -145q-14 -99 -59.5 -179t-125.5 -134.5t-192.5 -63.5t-259.5 33z" />
<glyph unicode="~" horiz-adv-x="1017" d="M53 342q-5 83 13 148t48.5 103t72.5 62.5t80 33.5t75 9q66 0 187 -38.5t167 -38.5q87 0 148 57h98q9 -74 -7.5 -136t-48 -101.5t-73.5 -67t-82.5 -39.5t-75.5 -12q-66 0 -185 37.5t-165 37.5q-49 0 -91.5 -16t-63.5 -39h-97z" />
<glyph unicode="&#xa1;" horiz-adv-x="700" d="M-31 -457l289 846h178l19 -846h-486zM197 709q7 84 63.5 136t138.5 52q79 0 133.5 -59t47.5 -142q-8 -79 -65.5 -133.5t-135.5 -54.5q-81 0 -135.5 61t-46.5 140z" />
<glyph unicode="&#xa2;" horiz-adv-x="860" d="M53 698q10 176 110.5 293.5t256.5 155.5l33 248h262l-31 -246q69 -15 124.5 -47t82.5 -70l-180 -194q-19 27 -62 50t-86 23q-81 0 -140 -56.5t-65 -154.5q-6 -93 47 -147.5t123 -54.5q12 0 23 1t19.5 2t18.5 4t15.5 4.5t15 6.5t13 6.5t13.5 7.5t12 7.5t12.5 9t11.5 8.5 l137 -193q-54 -58 -118.5 -83.5t-145.5 -34.5l-35 -244h-262l39 274q-84 37 -142 107t-82.5 151.5t-19.5 165.5z" />
<glyph unicode="&#xa3;" horiz-adv-x="1144" d="M0 0l20 256q66 -4 118.5 7t83.5 31t51 45t26.5 47.5t3.5 41.5h-203l39 281h121q-25 48 -41.5 115.5t-11.5 133.5q7 77 37.5 143.5t77 113.5t106 80t124.5 49t132 16q71 0 140 -21t129 -61t105.5 -103.5t65.5 -142.5l-268 -108q-10 65 -61 110t-109 45t-105.5 -36 t-54.5 -95q-5 -36 3 -75.5t18.5 -64.5t27.5 -57.5t21 -41.5h227l-39 -281h-145q-1 -6 -4.5 -28.5t-9 -43t-15.5 -41.5q18 -21 27 -29t34 -16t64 -8q61 0 106.5 25.5t94.5 72.5l172 -210q-45 -64 -115 -106.5t-132.5 -57.5t-123.5 -15q-108 0 -189.5 30t-117.5 75 q-53 -45 -123.5 -68.5t-135 -23.5t-106.5 4.5t-65 11.5z" />
<glyph unicode="&#xa4;" horiz-adv-x="1323" d="M43 289l195 180q-57 123 -45 250q12 162 94 289l-119 153l219 180l113 -143q107 52 241 55q139 3 260 -77l179 165l178 -194l-191 -176q52 -123 43 -252q-12 -167 -96 -295l119 -150l-221 -180l-113 142q-110 -50 -235 -50q-136 -3 -256 80l-189 -172zM463 719 q-9 -99 53 -180.5t164 -81.5q111 0 180 77t80 185q6 62 -18.5 121.5t-78 100t-122.5 40.5q-108 0 -178 -78t-80 -184z" />
<glyph unicode="&#xa5;" horiz-adv-x="1337" d="M123 223l37 258h344l16 123h-344l37 260h197l-269 469h361l229 -391l334 391h375l-398 -469h195l-37 -260h-342l-16 -123h342l-37 -258h-342l-31 -223h-338l31 223h-344z" />
<glyph unicode="&#xa6;" horiz-adv-x="624" d="M205 -268v725h297v-725h-297zM205 739v725h297v-725h-297z" />
<glyph unicode="&#xa7;" horiz-adv-x="1075" d="M-6 -205l100 275q79 -36 175 -57t182 -21q111 0 118 76q3 28 -23.5 48.5t-90.5 39.5q-196 54 -287 142t-82 234q5 69 51 141t109 101q-27 33 -46.5 88.5t-15.5 118.5q5 80 37 145t80.5 107t110.5 71t123 41.5t122 12.5q98 0 207.5 -20.5t175.5 -57.5l-102 -274 q-158 71 -293 71q-62 0 -99 -24.5t-40 -57.5q-3 -26 26 -49t80 -37q123 -33 204.5 -73.5t125 -92t57.5 -110t5 -135.5q-7 -62 -50 -123.5t-102 -98.5q34 -32 49.5 -91.5t7.5 -125.5q-11 -84 -57.5 -153t-116 -112.5t-153 -67t-170.5 -23.5q-119 0 -245.5 27t-172.5 65z M424 547q-6 -39 21 -62t85 -39q42 -11 89.5 9t48.5 59q2 39 -25.5 67t-91.5 48q-34 10 -77.5 -14t-49.5 -68z" />
<glyph unicode="&#xa8;" horiz-adv-x="712" d="M125 1149q6 58 47.5 97.5t97.5 39.5q58 0 98 -44t35 -101q-6 -61 -47 -99t-100 -38q-58 0 -97.5 42.5t-33.5 102.5zM473 1149q6 58 47.5 97.5t97.5 39.5q58 0 98.5 -44t35.5 -101q-6 -61 -47.5 -99t-100.5 -38q-58 0 -97.5 42.5t-33.5 102.5z" />
<glyph unicode="&#xa9;" horiz-adv-x="1556" d="M76 717q0 151 58 288t156.5 236t235 157t287.5 58q150 0 286.5 -58.5t235.5 -157t157 -235.5t58 -288q0 -150 -58 -286.5t-157 -234.5t-235.5 -156t-286.5 -58q-151 0 -287.5 58t-235 156t-156.5 234.5t-58 286.5zM252 717q0 -163 75.5 -298.5t205.5 -212.5t284 -77 q116 0 221 45.5t181.5 123.5t121.5 187.5t45 231.5q0 123 -45 232.5t-121.5 187t-181.5 122t-221 44.5t-220 -44.5t-180 -122t-120.5 -186.5t-44.5 -233zM451 723q0 159 108 271t268 112q98 0 188.5 -48.5t135.5 -117.5l-135 -133q-77 98 -162 98q-64 0 -116 -48.5 t-52 -137.5q0 -87 57 -135.5t121 -48.5q93 0 166 81l129 -118q-37 -57 -99 -95t-115.5 -51.5t-100.5 -13.5q-170 0 -281.5 112.5t-111.5 272.5z" />
<glyph unicode="&#xaa;" horiz-adv-x="745" d="M115 1133q9 97 80 155t165 58q35 0 65 -4t54 -12.5t38.5 -14.5t34 -16.5t23.5 -12.5l5 17q6 44 -32 86.5t-95 42.5q-83 0 -154 -31l-66 162q124 55 256 53q60 -1 117 -23t104 -63t70.5 -109t12.5 -151l-50 -373h-122l-84 59q-67 -75 -187 -75q-104 0 -174 74.5t-61 177.5 zM336 1124q-4 -31 24 -46t66 -15q40 0 82 23t45 44l2 19q-6 2 -25.5 9t-29 9.5t-27.5 5.5t-37 3q-93 0 -100 -52z" />
<glyph unicode="&#xab;" horiz-adv-x="1253" d="M47 385l8 53l459 508l191 -184l-334 -361l223 -262l-201 -168zM569 385l9 53l458 508l191 -184l-334 -361l223 -262l-201 -168z" />
<glyph unicode="&#xac;" horiz-adv-x="1021" d="M61 367l41 280l856 2v-2h3l-68 -459h-281l25 179h-576z" />
<glyph unicode="&#xad;" horiz-adv-x="757" d="M51 236l39 305l596 114l-41 -305z" />
<glyph unicode="&#xae;" horiz-adv-x="1556" d="M76 717q0 151 58 288t156.5 236t235 157t287.5 58q150 0 286.5 -58.5t235.5 -157t157 -235.5t58 -288q0 -150 -58 -286.5t-157 -234.5t-235.5 -156t-286.5 -58q-151 0 -287.5 58t-235 156t-156.5 234.5t-58 286.5zM252 717q0 -163 75.5 -298.5t205.5 -212.5t284 -77 q116 0 221 45.5t181.5 123.5t121.5 187.5t45 231.5q0 123 -45 232.5t-121.5 187t-181.5 122t-221 44.5t-220 -44.5t-180 -122t-120.5 -186.5t-44.5 -233zM549 1069q147 39 257.5 32t184 -50.5t110 -104t36.5 -129.5q0 -60 -29 -110t-68 -82l136 -263h-234l-86 191 q-25 -4 -92 -4v-187h-213zM764 723q74 -6 111.5 20.5t37.5 73.5q0 49 -43 70.5t-106 7.5v-172z" />
<glyph unicode="&#xaf;" horiz-adv-x="739" d="M121 1032l31 219h624l-31 -219h-624z" />
<glyph unicode="&#xb0;" horiz-adv-x="804" d="M104 1083q12 164 133 273.5t269 109.5q69 0 133.5 -28.5t113.5 -78t76.5 -122t22.5 -154.5q-10 -165 -127 -273t-276 -108q-154 0 -255.5 108.5t-89.5 272.5zM342 1083q-6 -62 29.5 -107.5t91.5 -45.5q59 0 102.5 45.5t48.5 107.5q5 63 -30.5 107.5t-94.5 44.5 q-56 0 -98.5 -45t-48.5 -107z" />
<glyph unicode="&#xb1;" horiz-adv-x="1044" d="M41 209l37 258h868l-37 -258h-868zM115 729l37 260h297l26 191h281l-27 -191h295l-37 -260h-295l-24 -170h-281l25 170h-297z" />
<glyph unicode="&#xb2;" horiz-adv-x="737" d="M98 877q247 206 287 243q150 134 163 200q1 8 1 15q0 38 -26 64t-61.5 32t-75.5 -12t-64 -59h-27l-111 102q34 58 91.5 96.5t120.5 51.5t128.5 3t117.5 -40t85 -85t33 -126q0 -35 -8.5 -68t-17 -54.5t-34.5 -56t-38 -48.5t-52 -57t-53 -58h188l-24 -182h-612z" />
<glyph unicode="&#xb3;" horiz-adv-x="737" d="M113 891l69 160h29q30 -18 76.5 -34t85.5 -16q49 0 97 24.5t52 72.5q5 57 -53 90.5t-164 3.5l-26 35l182 200h-242l25 172h551l10 -38l-213 -250q62 -17 108 -71t41 -146q-5 -82 -55.5 -146.5t-128.5 -97.5t-168 -33q-91 0 -164 23t-112 51z" />
<glyph unicode="&#xb4;" horiz-adv-x="600" d="M123 983l135 303h375v-41l-252 -262h-258z" />
<glyph unicode="&#xb5;" horiz-adv-x="1044" d="M-31 -500l129 910l66 456v2h319l-69 -499q-8 -53 20.5 -96.5t91.5 -43.5q54 0 88.5 40t40.5 96l72 503h317l-122 -868h-168l-121 72q-25 -48 -81.5 -74.5t-111.5 -26.5q-22 0 -41.5 0.5t-30.5 1t-12 0.5l-65 -448l-295 -25h-27z" />
<glyph unicode="&#xb6;" horiz-adv-x="1214" d="M137 1036q26 189 173 294.5t376 105.5h580l-39 -285h-121l-201 -1419h-254l201 1419h-72l-202 -1419h-254l120 858q-39 8 -84 32.5t-89 66t-77.5 92.5t-50 118t-6.5 137z" />
<glyph unicode="&#xb7;" horiz-adv-x="583" d="M115 594q8 79 65.5 133.5t134.5 54.5q81 0 136 -60.5t47 -139.5q-7 -84 -64 -136.5t-139 -52.5q-79 0 -133 58.5t-47 142.5z" />
<glyph unicode="&#xb8;" horiz-adv-x="512" d="M-51 -418l35 250q62 -8 109.5 13t53.5 63q0 19 1.5 26.5t-3.5 18t-7.5 14.5t-11 14.5t-13.5 18.5l4 31l76 28q83 -3 144.5 -75.5t55.5 -153.5q-7 -95 -77.5 -160.5t-169 -87t-197.5 -0.5z" />
<glyph unicode="&#xb9;" horiz-adv-x="583" d="M184 1473l365 145h37l-109 -780h-205l72 520l-98 -41z" />
<glyph unicode="&#xba;" horiz-adv-x="743" d="M125 1247q14 163 117.5 267t253.5 104q151 0 241 -107t76 -264q-13 -161 -118.5 -264.5t-254.5 -103.5q-150 0 -238.5 106t-76.5 262zM342 1247q-6 -74 23.5 -127t87.5 -53q61 0 97 51.5t44 128.5q8 78 -20.5 131.5t-90.5 53.5q-61 0 -98 -53t-43 -132z" />
<glyph unicode="&#xbb;" horiz-adv-x="1253" d="M8 156l334 360l-223 262l200 168l347 -414l-9 -53l-458 -508zM530 156l334 360l-223 262l201 168l346 -414l-8 -53l-459 -508z" />
<glyph unicode="&#xbc;" horiz-adv-x="1570" d="M147 1268l365 145h37l-109 -780h-204l71 520l-98 -41zM190 76l1180 1345l119 -112l-1178 -1338zM733 176l37 -76h365l-15 -100h205l14 100h93l22 172h-92l68 488l-80 31zM1053 272l125 129l-21 -129h-104z" />
<glyph unicode="&#xbd;" horiz-adv-x="1718" d="M147 1268l365 145h37l-109 -780h-204l71 520l-98 -41zM190 76l1180 1345l119 -112l-1178 -1338zM942 39q26 22 76 64q223 184 289 253q86 90 86 142q0 51 -42.5 78.5t-98 14t-87.5 -68.5h-26l-111 103q34 58 91.5 96.5t120.5 51t128.5 3t117.5 -40t85 -85.5t33 -126 q0 -35 -8.5 -68t-17 -54.5t-34.5 -56t-38 -48.5t-52 -57t-53 -58h188l-24 -182h-613z" />
<glyph unicode="&#xbe;" horiz-adv-x="1679" d="M92 686l70 160h28q29 -18 76 -33.5t86 -15.5q49 0 97.5 24t52.5 72q5 57 -53 90.5t-164 3.5l-27 35l182 201h-241l24 172h551l10 -39l-213 -250q62 -17 108.5 -71t41.5 -146q-5 -82 -55.5 -146.5t-128.5 -97.5t-168 -33q-91 0 -164.5 23t-112.5 51zM299 76l1180 1345 l118 -112l-1177 -1338zM842 176l37 -76h364l-14 -100h205l14 100h92l23 172h-93l68 488l-80 31zM1161 272l125 129l-20 -129h-105z" />
<glyph unicode="&#xbf;" horiz-adv-x="790" d="M-88 -109q8 66 32.5 118t57 86t70 61.5t75.5 50.5t70.5 47t57 58.5t32.5 76.5h254q14 -64 0.5 -119.5t-40.5 -95.5t-64.5 -76.5t-71 -62.5t-59 -54t-29.5 -51q-7 -43 27.5 -71.5t91.5 -28.5q22 0 43 6.5t28.5 9.5t33.5 20.5t28 18.5l162 -239q-62 -57 -160.5 -93 t-220.5 -36q-118 0 -217.5 44.5t-157 131.5t-43.5 198zM283 709q7 84 63.5 136t138.5 52q79 0 133.5 -59t47.5 -142q-8 -79 -65.5 -133.5t-135.5 -54.5q-81 0 -135.5 61t-46.5 140z" />
<glyph unicode="&#xc0;" horiz-adv-x="1329" d="M-92 0l842 1450h106l432 -1450h-354l-49 174h-494l-102 -174h-381zM428 1812v41h375l135 -303h-258zM530 453h279l-94 338z" />
<glyph unicode="&#xc1;" horiz-adv-x="1329" d="M-92 0l842 1450h106l432 -1450h-354l-49 174h-494l-102 -174h-381zM530 453h279l-94 338zM690 1550l135 303h375v-41l-252 -262h-258z" />
<glyph unicode="&#xc2;" horiz-adv-x="1329" d="M-92 0l842 1450h106l432 -1450h-354l-49 174h-494l-102 -174h-381zM475 1550l221 303h314l135 -303l-248 2l-72 99l-92 -99zM530 453h279l-94 338z" />
<glyph unicode="&#xc3;" horiz-adv-x="1329" d="M-92 0l842 1450h106l432 -1450h-354l-49 174h-494l-102 -174h-381zM508 1599q-1 73 17 125.5t49.5 79t64.5 38t70 11.5q57 0 129 -25.5t100 -25.5q57 0 76 47l108 -22q-1 -68 -21.5 -119.5t-53 -80t-68.5 -42.5t-74 -14q-47 0 -121 26.5t-92 26.5q-38 0 -52.5 -11.5 t-21.5 -35.5zM530 453h279l-94 338z" />
<glyph unicode="&#xc4;" horiz-adv-x="1329" d="M-92 0l842 1450h106l432 -1450h-354l-49 174h-494l-102 -174h-381zM512 1716q6 58 47.5 97.5t97.5 39.5q58 0 98.5 -44t35.5 -101q-6 -61 -47.5 -99t-100.5 -38q-58 0 -97.5 42.5t-33.5 102.5zM530 453h279l-94 338zM860 1716q6 58 48 97.5t98 39.5q58 0 98 -44t35 -101 q-6 -61 -47.5 -99t-100.5 -38q-58 0 -97.5 42.5t-33.5 102.5z" />
<glyph unicode="&#xc5;" horiz-adv-x="1329" d="M-92 0l774 1335q-65 33 -100 97t-29 147q9 118 95.5 196t191.5 78q103 0 178.5 -78.5t68.5 -195.5q-6 -90 -59.5 -158t-134.5 -98l395 -1323h-354l-49 174h-494l-102 -174h-381zM530 453h279l-94 338zM723 1579q-5 -43 21 -76t65 -33q42 0 74 33t35 76q3 45 -23 77 t-68 32q-39 0 -69 -32t-35 -77z" />
<glyph unicode="&#xc6;" horiz-adv-x="1867" d="M-109 0l1119 1438h895l-39 -287h-502l-31 -219h404l-41 -289h-404l-49 -356h516l-41 -287h-852l23 170h-457l-131 -170h-410zM655 461h275l71 479z" />
<glyph unicode="&#xc7;" horiz-adv-x="1370" d="M86 756q18 167 89 303t179 224t243 135.5t284 47.5q104 0 199 -23.5t164.5 -61t117.5 -74t80 -74.5l-193 -240l-15 14q-16 14 -27 23.5t-34.5 27t-44 30t-50.5 28t-58.5 25t-63.5 16t-69 6.5q-113 0 -208.5 -45.5t-163.5 -142t-85 -232.5q-8 -61 4 -125.5t44.5 -124.5 t81 -107.5t120.5 -76t156 -28.5q167 0 297 86l153 -254q-158 -129 -428 -140q53 -69 47 -143q-7 -95 -77.5 -160.5t-169 -87t-197.5 -0.5l35 250q62 -8 109.5 13t53.5 63q4 9 1.5 21.5t-1.5 16t-4 12t-6.5 10.5t-9 11t-10.5 13q-123 28 -228 93.5t-181.5 161.5t-113 228 t-20.5 281z" />
<glyph unicode="&#xc8;" horiz-adv-x="1073" d="M72 0l200 1438h838l-39 -287h-502l-30 -221h403l-41 -287h-403l-49 -356h516l-41 -287h-852zM387 1812v41h375l135 -303h-258z" />
<glyph unicode="&#xc9;" horiz-adv-x="1073" d="M72 0l200 1438h838l-39 -287h-502l-30 -221h403l-41 -287h-403l-49 -356h516l-41 -287h-852zM522 1550l135 303h375v-41l-252 -262h-258z" />
<glyph unicode="&#xca;" horiz-adv-x="1073" d="M72 0l200 1438h838l-39 -287h-502l-30 -221h403l-41 -287h-403l-49 -356h516l-41 -287h-852zM369 1550l221 303h313l135 -303l-247 2l-72 99l-92 -99z" />
<glyph unicode="&#xcb;" horiz-adv-x="1073" d="M72 0l200 1438h838l-39 -287h-502l-30 -221h403l-41 -287h-403l-49 -356h516l-41 -287h-852zM418 1716q6 58 47.5 97.5t97.5 39.5q58 0 98 -44t35 -101q-6 -61 -47 -99t-100 -38q-58 0 -97.5 42.5t-33.5 102.5zM766 1716q6 58 47.5 97.5t97.5 39.5q58 0 98 -44t35 -101 q-6 -61 -47 -99t-100 -38q-58 0 -97.5 42.5t-33.5 102.5z" />
<glyph unicode="&#xcc;" horiz-adv-x="610" d="M63 1812v41h375l135 -303h-258zM72 0l200 1438h338l-200 -1438h-338z" />
<glyph unicode="&#xcd;" horiz-adv-x="610" d="M72 0l200 1438h338l-200 -1438h-338zM328 1550l135 303h375v-41l-252 -262h-258z" />
<glyph unicode="&#xce;" horiz-adv-x="610" d="M74 0l200 1438h338l-200 -1438h-338zM115 1550l221 303h313l135 -303l-247 2l-72 99l-92 -99z" />
<glyph unicode="&#xcf;" horiz-adv-x="610" d="M74 0l200 1438h338l-200 -1438h-338zM160 1716q6 58 47.5 97.5t97.5 39.5q58 0 98 -44t35 -101q-6 -61 -47 -99t-100 -38q-58 0 -97.5 42.5t-33.5 102.5zM508 1716q6 58 47.5 97.5t97.5 39.5q58 0 98 -44t35 -101q-6 -61 -47 -99t-100 -38q-58 0 -97.5 42.5t-33.5 102.5z " />
<glyph unicode="&#xd0;" horiz-adv-x="1437" d="M47 573l39 281h166l82 573q182 38 329 33.5t262 -36t200.5 -90t144 -130t93 -155.5t47 -166t5.5 -162q-5 -65 -18.5 -126t-39.5 -128t-63.5 -126t-94 -116t-126.5 -101.5t-166 -78.5t-208.5 -51.5t-257 -16.5t-308.5 23l80 573h-166zM510 291q72 -9 144.5 -0.5t143.5 39 t127.5 81t97 131.5t52.5 183q12 106 -18 195.5t-90.5 146t-148 80.5t-185.5 6l-43 -299h297l-39 -281h-299z" />
<glyph unicode="&#xd1;" horiz-adv-x="1357" d="M72 0l200 1440l45 10l641 -510l70 498h330l-201 -1438h-330l76 541l-387 301l-117 -842h-327zM500 1599q-1 73 17 125.5t49 79t64 38t70 11.5q57 0 129.5 -25.5t100.5 -25.5q57 0 76 47l108 -22q-1 -68 -21.5 -119.5t-53 -80t-68.5 -42.5t-74 -14q-47 0 -121 26.5 t-92 26.5q-38 0 -52.5 -11.5t-21.5 -35.5z" />
<glyph unicode="&#xd2;" horiz-adv-x="1562" d="M98 727q9 157 69.5 293.5t159.5 234.5t236.5 154.5t294.5 56.5q204 0 370.5 -101.5t256.5 -276t78 -381.5q-9 -156 -69 -291.5t-158.5 -233.5t-238 -154.5t-300.5 -56.5q-202 0 -367.5 101.5t-254.5 275.5t-77 379zM442 717q-6 -98 22 -181t80 -138t122.5 -86t148.5 -31 q163 0 277 114t127 322q8 127 -39.5 230t-133 159.5t-188.5 56.5q-79 0 -150.5 -29.5t-128.5 -84t-93.5 -140.5t-43.5 -192zM498 1812v41h374l136 -303h-258z" />
<glyph unicode="&#xd3;" horiz-adv-x="1562" d="M98 727q9 157 69.5 293.5t159.5 234.5t236.5 154.5t294.5 56.5q204 0 370.5 -101.5t256.5 -276t78 -381.5q-9 -156 -69 -291.5t-158.5 -233.5t-238 -154.5t-300.5 -56.5q-202 0 -367.5 101.5t-254.5 275.5t-77 379zM442 717q-6 -98 22 -181t80 -138t122.5 -86t148.5 -31 q163 0 277 114t127 322q8 127 -39.5 230t-133 159.5t-188.5 56.5q-79 0 -150.5 -29.5t-128.5 -84t-93.5 -140.5t-43.5 -192zM750 1550l135 303h375v-41l-252 -262h-258z" />
<glyph unicode="&#xd4;" horiz-adv-x="1562" d="M98 727q9 157 69.5 293.5t159.5 234.5t236.5 154.5t294.5 56.5q204 0 370.5 -101.5t256.5 -276t78 -381.5q-9 -156 -69 -291.5t-158.5 -233.5t-238 -154.5t-300.5 -56.5q-202 0 -367.5 101.5t-254.5 275.5t-77 379zM442 717q-6 -98 22 -181t80 -138t122.5 -86t148.5 -31 q163 0 277 114t127 322q8 127 -39.5 230t-133 159.5t-188.5 56.5q-79 0 -150.5 -29.5t-128.5 -84t-93.5 -140.5t-43.5 -192zM561 1550l221 303h314l135 -303l-248 2l-72 99l-92 -99z" />
<glyph unicode="&#xd5;" horiz-adv-x="1562" d="M98 727q9 157 69.5 293.5t159.5 234.5t236.5 154.5t294.5 56.5q204 0 370.5 -101.5t256.5 -276t78 -381.5q-9 -156 -69 -291.5t-158.5 -233.5t-238 -154.5t-300.5 -56.5q-202 0 -367.5 101.5t-254.5 275.5t-77 379zM442 717q-6 -98 22 -181t80 -138t122.5 -86t148.5 -31 q163 0 277 114t127 322q8 127 -39.5 230t-133 159.5t-188.5 56.5q-79 0 -150.5 -29.5t-128.5 -84t-93.5 -140.5t-43.5 -192zM612 1599q-1 73 17 125.5t49.5 79t64.5 38t70 11.5q57 0 129 -25.5t100 -25.5q57 0 76 47l109 -22q-1 -68 -21.5 -119.5t-53 -80t-68.5 -42.5 t-74 -14q-47 0 -121 26.5t-92 26.5q-38 0 -52.5 -11.5t-21.5 -35.5z" />
<glyph unicode="&#xd6;" horiz-adv-x="1562" d="M98 727q9 157 69.5 293.5t159.5 234.5t236.5 154.5t294.5 56.5q204 0 370.5 -101.5t256.5 -276t78 -381.5q-9 -156 -69 -291.5t-158.5 -233.5t-238 -154.5t-300.5 -56.5q-202 0 -367.5 101.5t-254.5 275.5t-77 379zM442 717q-6 -98 22 -181t80 -138t122.5 -86t148.5 -31 q163 0 277 114t127 322q8 127 -39.5 230t-133 159.5t-188.5 56.5q-79 0 -150.5 -29.5t-128.5 -84t-93.5 -140.5t-43.5 -192zM606 1716q6 58 48 97.5t98 39.5q58 0 98 -44t35 -101q-6 -61 -47.5 -99t-100.5 -38q-58 0 -97.5 42.5t-33.5 102.5zM954 1716q6 58 48 97.5t98 39.5 q58 0 98 -44t35 -101q-6 -61 -47.5 -99t-100.5 -38q-58 0 -97.5 42.5t-33.5 102.5z" />
<glyph unicode="&#xd7;" horiz-adv-x="995" d="M72 422l290 268l-225 266l209 179l215 -263l277 263l157 -181l-282 -264l229 -270l-209 -184l-217 268l-283 -264z" />
<glyph unicode="&#xd8;" horiz-adv-x="1570" d="M84 727q13 157 74.5 293t160.5 234.5t238 155t299 56.5q167 0 303 -65l137 207l187 -119l-142 -213q109 -106 164 -253.5t43 -315.5q-12 -156 -72.5 -291t-159.5 -233.5t-239 -155t-303 -56.5q-141 0 -270 52l-158 -236l-180 117l153 231q-124 106 -187 260.5t-48 331.5z M428 717q-17 -171 80 -297l473 713q-75 30 -139 30q-75 0 -145 -29.5t-126.5 -84t-94.5 -140.5t-48 -192zM686 297q53 -16 105 -16q75 0 144.5 28t127 81t95.5 137.5t46 189.5q11 148 -59 266z" />
<glyph unicode="&#xd9;" horiz-adv-x="1284" d="M98 512l131 926h342l-133 -934q-13 -100 38 -166t140 -66q90 0 154.5 63.5t79.5 168.5l133 934h342l-131 -926q-13 -90 -42.5 -169t-79.5 -148t-116.5 -118.5t-157 -77.5t-196.5 -28q-132 0 -236 43.5t-167 117.5t-89.5 172t-11.5 208zM408 1812v41h374l136 -303h-259z " />
<glyph unicode="&#xda;" horiz-adv-x="1284" d="M98 512l131 926h342l-133 -934q-13 -100 38 -166t140 -66q90 0 154.5 63.5t79.5 168.5l133 934h342l-131 -926q-13 -90 -42.5 -169t-79.5 -148t-116.5 -118.5t-157 -77.5t-196.5 -28q-132 0 -236 43.5t-167 117.5t-89.5 172t-11.5 208zM637 1550l135 303h375v-41 l-252 -262h-258z" />
<glyph unicode="&#xdb;" horiz-adv-x="1284" d="M98 512l131 926h342l-133 -934q-13 -100 38 -166t140 -66q90 0 154.5 63.5t79.5 168.5l133 934h342l-131 -926q-13 -90 -42.5 -169t-79.5 -148t-116.5 -118.5t-157 -77.5t-196.5 -28q-132 0 -236 43.5t-167 117.5t-89.5 172t-11.5 208zM436 1550l221 303h314l135 -303 l-248 2l-72 99l-92 -99z" />
<glyph unicode="&#xdc;" horiz-adv-x="1284" d="M98 512l131 926h342l-133 -934q-13 -100 38 -166t140 -66q90 0 154.5 63.5t79.5 168.5l133 934h342l-131 -926q-13 -90 -42.5 -169t-79.5 -148t-116.5 -118.5t-157 -77.5t-196.5 -28q-132 0 -236 43.5t-167 117.5t-89.5 172t-11.5 208zM494 1716q6 58 47.5 97.5 t97.5 39.5q58 0 98 -44t35 -101q-6 -61 -47 -99t-100 -38q-58 0 -97.5 42.5t-33.5 102.5zM842 1716q6 58 47.5 97.5t97.5 39.5q58 0 98 -44t35 -101q-6 -61 -47 -99t-100 -38q-58 0 -97.5 42.5t-33.5 102.5z" />
<glyph unicode="&#xdd;" horiz-adv-x="1232" d="M113 1438h366l209 -463l334 463h375l-586 -824l-86 -614h-338l86 614zM610 1550l135 303h375v-41l-252 -262h-258z" />
<glyph unicode="&#xde;" horiz-adv-x="1140" d="M72 0l200 1438h336l-24 -183q118 -2 222 -40t182 -105.5t119 -171.5t32 -229q-20 -269 -211 -409t-498 -134l-22 -166h-336zM473 469q157 -7 251 62t97 180q1 38 -6.5 72t-27.5 66t-51.5 54.5t-81.5 35t-113 9.5z" />
<glyph unicode="&#xdf;" horiz-adv-x="1042" d="M35 0l145 1034q66 449 459 449q90 0 163 -29t117.5 -73t74 -98.5t40.5 -103.5t8 -89l-182 -338q19 -9 46.5 -36.5t59 -72.5t49.5 -115t11 -147q-14 -144 -93 -244.5t-211.5 -139t-311.5 2.5l73 256q85 -17 151 39t66 145q0 78 -47 129.5t-116 53.5l-29 49l203 389 q5 49 -22 86t-75 37q-93 0 -114 -142l-150 -1042h-315z" />
<glyph unicode="&#xe0;" horiz-adv-x="970" d="M51 252q0 135 92 218t224 83q77 0 157.5 -32.5t112.5 -69.5l4 20q12 67 -36.5 118.5t-135.5 51.5q-83 0 -172 -27l-59 240q146 41 286 41q91 0 171.5 -32t139 -90t86 -147.5t13.5 -195.5l-64 -430h-168l-108 68q-28 -41 -92 -69t-146 -28q-128 0 -216.5 75.5t-88.5 205.5 zM229 1245v41h375l135 -303h-258zM352 276q-4 -31 25.5 -53t75.5 -22q56 0 100.5 25.5t56.5 56.5l2 8q-21 22 -65 39t-92 16q-45 0 -71.5 -18.5t-31.5 -51.5z" />
<glyph unicode="&#xe1;" horiz-adv-x="970" d="M51 252q0 135 92 218t224 83q77 0 157.5 -32.5t112.5 -69.5l4 20q12 67 -36.5 118.5t-135.5 51.5q-83 0 -172 -27l-59 240q146 41 286 41q91 0 171.5 -32t139 -90t86 -147.5t13.5 -195.5l-64 -430h-168l-108 68q-28 -41 -92 -69t-146 -28q-128 0 -216.5 75.5t-88.5 205.5 zM352 276q-4 -31 25.5 -53t75.5 -22q56 0 100.5 25.5t56.5 56.5l2 8q-21 22 -65 39t-92 16q-45 0 -71.5 -18.5t-31.5 -51.5zM383 983l135 303h375v-41l-252 -262h-258z" />
<glyph unicode="&#xe2;" horiz-adv-x="970" d="M51 252q0 135 92 218t224 83q77 0 157.5 -32.5t112.5 -69.5l4 20q12 67 -36.5 118.5t-135.5 51.5q-83 0 -172 -27l-59 240q146 41 286 41q91 0 171.5 -32t139 -90t86 -147.5t13.5 -195.5l-64 -430h-168l-108 68q-28 -41 -92 -69t-146 -28q-128 0 -216.5 75.5t-88.5 205.5 zM240 983l221 303h313l135 -303l-247 2l-72 98l-92 -98zM352 276q-4 -31 25.5 -53t75.5 -22q56 0 100.5 25.5t56.5 56.5l2 8q-21 22 -65 39t-92 16q-45 0 -71.5 -18.5t-31.5 -51.5z" />
<glyph unicode="&#xe3;" horiz-adv-x="970" d="M51 252q0 135 92 218t224 83q77 0 157.5 -32.5t112.5 -69.5l4 20q12 67 -36.5 118.5t-135.5 51.5q-83 0 -172 -27l-59 240q146 41 286 41q91 0 171.5 -32t139 -90t86 -147.5t13.5 -195.5l-64 -430h-168l-108 68q-28 -41 -92 -69t-146 -28q-128 0 -216.5 75.5t-88.5 205.5 zM289 1032q-1 73 17 125.5t49 79t64 38t70 11.5q57 0 129.5 -25.5t100.5 -25.5q57 0 76 47l108 -22q-1 -68 -21.5 -119.5t-53 -80t-68.5 -42.5t-74 -14q-47 0 -121 26.5t-92 26.5q-38 0 -52.5 -11.5t-21.5 -35.5zM352 276q-4 -31 25.5 -53t75.5 -22q56 0 100.5 25.5 t56.5 56.5l2 8q-21 22 -65 39t-92 16q-45 0 -71.5 -18.5t-31.5 -51.5z" />
<glyph unicode="&#xe4;" horiz-adv-x="970" d="M51 252q0 135 92 218t224 83q77 0 157.5 -32.5t112.5 -69.5l4 20q12 67 -36.5 118.5t-135.5 51.5q-83 0 -172 -27l-59 240q146 41 286 41q91 0 171.5 -32t139 -90t86 -147.5t13.5 -195.5l-64 -430h-168l-108 68q-28 -41 -92 -69t-146 -28q-128 0 -216.5 75.5t-88.5 205.5 zM285 1149q6 58 47.5 97.5t97.5 39.5q58 0 98 -44t35 -101q-6 -61 -47 -99t-100 -38q-58 0 -97.5 42.5t-33.5 102.5zM352 276q-4 -31 25.5 -53t75.5 -22q56 0 100.5 25.5t56.5 56.5l2 8q-21 22 -65 39t-92 16q-45 0 -71.5 -18.5t-31.5 -51.5zM633 1149q6 58 47.5 97.5 t97.5 39.5q58 0 98 -44t35 -101q-6 -61 -47 -99t-100 -38q-58 0 -97.5 42.5t-33.5 102.5z" />
<glyph unicode="&#xe5;" horiz-adv-x="970" d="M51 252q0 135 92 218t224 83q77 0 157.5 -32.5t112.5 -69.5l4 20q12 67 -36.5 118.5t-135.5 51.5q-83 0 -172 -27l-59 240q63 17 94 23q-30 66 -25 135q9 118 95.5 196t191.5 78q103 0 179 -78.5t69 -195.5q-9 -109 -80 -183q95 -60 142.5 -162.5t29.5 -236.5l-64 -430 h-168l-108 68q-28 -41 -92 -69t-146 -28q-128 0 -216.5 75.5t-88.5 205.5zM352 276q-4 -31 25.5 -53t75.5 -22q56 0 100.5 25.5t56.5 56.5l2 8q-21 22 -65 39t-92 16q-45 0 -71.5 -18.5t-31.5 -51.5zM477 1012q-5 -43 21 -76t65 -33q42 0 74 33t35 76q3 45 -22.5 76.5 t-67.5 31.5q-39 0 -69.5 -31.5t-35.5 -76.5z" />
<glyph unicode="&#xe6;" horiz-adv-x="1554" d="M51 252q0 135 92 218t224 83q77 0 157.5 -32.5t112.5 -69.5l4 20q12 67 -36.5 118.5t-135.5 51.5q-83 0 -172 -27l-59 240q146 41 286 41q177 0 293 -107q138 109 311 109q86 0 166 -36t140 -104.5t82.5 -168t-7.5 -226.5h-569q3 -58 63 -101.5t148 -43.5q60 0 114 21.5 t85 48.5l131 -187q-74 -67 -162.5 -98t-216.5 -31q-118 0 -214 45t-157 125q-42 -56 -92.5 -92.5t-103.5 -52t-92 -20.5t-87 -5q-128 0 -216.5 75.5t-88.5 205.5zM352 276q-4 -31 25.5 -53t75.5 -22q56 0 100.5 25.5t56.5 56.5l2 8q-21 22 -65 39t-92 16q-45 0 -71.5 -18.5 t-31.5 -51.5zM973 545h254q2 42 -30.5 75t-80.5 33q-50 0 -92 -33t-51 -75z" />
<glyph unicode="&#xe7;" horiz-adv-x="860" d="M63 430q13 216 157.5 341.5t352.5 125.5q101 0 196 -39t132 -94l-180 -195q-19 27 -62 50.5t-86 23.5q-81 0 -139.5 -56t-64.5 -155q-6 -93 47.5 -149t122.5 -56q38 0 67.5 8t44 16.5t41.5 27.5l137 -185q-90 -86 -225 -112q59 -72 53 -152q-7 -95 -77.5 -160.5t-169 -87 t-197.5 -0.5l35 250q62 -8 110 13t54 63q2 20 -1.5 34.5t-7 20t-14.5 19.5q-84 17 -150 63t-105 108.5t-57.5 133.5t-13.5 143z" />
<glyph unicode="&#xe8;" horiz-adv-x="983" d="M63 434q3 100 45 187.5t109.5 147t155 94t180.5 34.5q86 0 166 -36t140 -104.5t82.5 -168t-7.5 -226.5h-569q3 -58 62.5 -101.5t147.5 -43.5q60 0 114 21.5t85 48.5l131 -187q-74 -67 -162.5 -98t-216.5 -31q-137 0 -245 62t-165 168t-53 233zM205 1245v41h375l135 -303 h-258zM397 545h254q2 43 -30 75.5t-80 32.5q-50 0 -92.5 -33t-51.5 -75z" />
<glyph unicode="&#xe9;" horiz-adv-x="983" d="M63 434q3 100 45 187.5t109.5 147t155 94t180.5 34.5q86 0 166 -36t140 -104.5t82.5 -168t-7.5 -226.5h-569q3 -58 62.5 -101.5t147.5 -43.5q60 0 114 21.5t85 48.5l131 -187q-74 -67 -162.5 -98t-216.5 -31q-137 0 -245 62t-165 168t-53 233zM397 545h254q2 43 -30 75.5 t-80 32.5q-50 0 -92.5 -33t-51.5 -75zM414 983l135 303h375v-41l-252 -262h-258z" />
<glyph unicode="&#xea;" horiz-adv-x="983" d="M63 434q3 100 45 187.5t109.5 147t155 94t180.5 34.5q86 0 166 -36t140 -104.5t82.5 -168t-7.5 -226.5h-569q3 -58 62.5 -101.5t147.5 -43.5q60 0 114 21.5t85 48.5l131 -187q-74 -67 -162.5 -98t-216.5 -31q-137 0 -245 62t-165 168t-53 233zM233 983l222 303h313 l135 -303l-248 2l-71 98l-92 -98zM397 545h254q2 43 -30 75.5t-80 32.5q-50 0 -92.5 -33t-51.5 -75z" />
<glyph unicode="&#xeb;" horiz-adv-x="983" d="M63 434q3 100 45 187.5t109.5 147t155 94t180.5 34.5q86 0 166 -36t140 -104.5t82.5 -168t-7.5 -226.5h-569q3 -58 62.5 -101.5t147.5 -43.5q60 0 114 21.5t85 48.5l131 -187q-74 -67 -162.5 -98t-216.5 -31q-137 0 -245 62t-165 168t-53 233zM276 1149q6 58 48 97.5 t98 39.5q58 0 98 -44t35 -101q-6 -61 -47 -99t-100 -38q-58 0 -98 42.5t-34 102.5zM397 545h254q2 43 -30 75.5t-80 32.5q-50 0 -92.5 -33t-51.5 -75zM625 1149q6 58 47.5 97.5t97.5 39.5q58 0 98 -44t35 -101q-6 -61 -47 -99t-100 -38q-58 0 -97.5 42.5t-33.5 102.5z" />
<glyph unicode="&#xec;" horiz-adv-x="493" d="M-31 1245v41h375l135 -303h-258zM41 0l123 868h315l-121 -868h-317z" />
<glyph unicode="&#xed;" horiz-adv-x="493" d="M41 0l123 868h315l-121 -868h-317zM182 983l135 303h375v-41l-252 -262h-258z" />
<glyph unicode="&#xee;" horiz-adv-x="493" d="M-2 983l221 303h313l136 -303l-248 2l-72 98l-92 -98zM41 0l123 868h315l-121 -868h-317z" />
<glyph unicode="&#xef;" horiz-adv-x="493" d="M41 0l123 868h315l-121 -868h-317zM43 1149q6 58 47.5 97.5t97.5 39.5q58 0 98.5 -44t35.5 -101q-6 -61 -47.5 -99t-100.5 -38q-58 0 -97.5 42.5t-33.5 102.5zM391 1149q6 58 48 97.5t98 39.5q58 0 98 -44t35 -101q-6 -61 -47.5 -99t-100.5 -38q-58 0 -97.5 42.5 t-33.5 102.5z" />
<glyph unicode="&#xf0;" horiz-adv-x="1017" d="M63 436q9 135 75.5 240.5t175 163t239.5 57.5q11 0 25 0.5t19.5 0.5t16 -1.5t25.5 -5.5q-17 63 -82 131l-59 -70l-162 119l61 74q-69 39 -166 65l-18 35l115 217q134 -39 247 -102l107 127l160 -129l-103 -121q167 -156 232.5 -372t27.5 -449q-37 -227 -168.5 -336 t-338.5 -109q-89 0 -170.5 35t-141 95t-92 148t-25.5 187zM362 436q-11 -90 39.5 -150.5t114.5 -60.5t116 55t62 156q10 100 -36.5 154.5t-112.5 54.5q-64 0 -117 -54t-66 -155z" />
<glyph unicode="&#xf1;" d="M41 0l123 868h168l121 -71q30 38 94.5 69t138.5 31q91 0 166.5 -46.5t115.5 -132.5t25 -190l-71 -528h-320l70 500q8 53 -21 96t-92 43q-54 0 -88.5 -39.5t-40.5 -95.5l-72 -504h-317zM326 1032q-1 73 17 125.5t49 79t64 38t70 11.5q57 0 129.5 -25.5t100.5 -25.5 q56 0 75 47l109 -22q-1 -68 -21.5 -119.5t-53 -80t-68.5 -42.5t-74 -14q-47 0 -121 26.5t-92 26.5q-38 0 -52.5 -11.5t-21.5 -35.5z" />
<glyph unicode="&#xf2;" d="M63 436q13 203 153.5 332t340.5 129q97 0 182 -34t145.5 -93.5t93 -146t26.5 -187.5q-12 -202 -154.5 -333.5t-343.5 -131.5q-198 0 -327 132t-116 333zM203 1245v41h375l135 -303h-258zM371 436q-7 -101 36 -156t107 -55q65 0 119 55.5t61 155.5t-38.5 154.5 t-110.5 54.5q-64 0 -115.5 -54t-58.5 -155z" />
<glyph unicode="&#xf3;" d="M63 436q13 203 153.5 332t340.5 129q97 0 182 -34t145.5 -93.5t93 -146t26.5 -187.5q-12 -202 -154.5 -333.5t-343.5 -131.5q-198 0 -327 132t-116 333zM371 436q-7 -101 36 -156t107 -55q65 0 119 55.5t61 155.5t-38.5 154.5t-110.5 54.5q-64 0 -115.5 -54t-58.5 -155z M430 983l135 303h375v-41l-252 -262h-258z" />
<glyph unicode="&#xf4;" d="M63 436q13 203 153.5 332t340.5 129q97 0 182 -34t145.5 -93.5t93 -146t26.5 -187.5q-12 -202 -154.5 -333.5t-343.5 -131.5q-198 0 -327 132t-116 333zM254 983l221 303h313l136 -303l-248 2l-72 98l-92 -98zM371 436q-7 -101 36 -156t107 -55q65 0 119 55.5t61 155.5 t-38.5 154.5t-110.5 54.5q-64 0 -115.5 -54t-58.5 -155z" />
<glyph unicode="&#xf5;" d="M63 436q13 203 153.5 332t340.5 129q97 0 182 -34t145.5 -93.5t93 -146t26.5 -187.5q-12 -202 -154.5 -333.5t-343.5 -131.5q-198 0 -327 132t-116 333zM295 1032q-1 73 17 125.5t49.5 79t64.5 38t70 11.5q57 0 129 -25.5t100 -25.5q57 0 76 47l108 -22 q-1 -68 -21.5 -119.5t-53 -80t-68.5 -42.5t-74 -14q-47 0 -121 26.5t-92 26.5q-38 0 -52 -11.5t-21 -35.5zM371 436q-7 -101 36 -156t107 -55q65 0 119 55.5t61 155.5t-38.5 154.5t-110.5 54.5q-64 0 -115.5 -54t-58.5 -155z" />
<glyph unicode="&#xf6;" d="M63 436q13 203 153.5 332t340.5 129q97 0 182 -34t145.5 -93.5t93 -146t26.5 -187.5q-12 -202 -154.5 -333.5t-343.5 -131.5q-198 0 -327 132t-116 333zM274 1149q6 58 48 97.5t98 39.5q58 0 98 -44t35 -101q-6 -61 -47 -99t-100 -38q-58 0 -98 42.5t-34 102.5zM371 436 q-7 -101 36 -156t107 -55q65 0 119 55.5t61 155.5t-38.5 154.5t-110.5 54.5q-64 0 -115.5 -54t-58.5 -155zM623 1149q6 58 47.5 97.5t97.5 39.5q58 0 98 -44t35 -101q-6 -61 -47 -99t-100 -38q-58 0 -97.5 42.5t-33.5 102.5z" />
<glyph unicode="&#xf7;" horiz-adv-x="993" d="M72 565h872l39 281h-872zM352 358q5 53 44 90t91 37q55 0 92.5 -41t32.5 -94q-6 -58 -43.5 -93.5t-93.5 -35.5q-55 0 -92 40t-31 97zM449 1067q5 53 44 90t91 37q55 0 92.5 -41t32.5 -94q-6 -58 -44 -93.5t-94 -35.5q-55 0 -91.5 39.5t-30.5 97.5z" />
<glyph unicode="&#xf8;" d="M63 436q13 203 153.5 332t340.5 129q87 0 178 -33l99 156l127 -72l-101 -157q74 -61 112 -153t32 -202q-12 -202 -154.5 -333.5t-343.5 -131.5q-70 0 -154 25l-106 -168l-123 74l102 159q-84 63 -127.5 160.5t-34.5 214.5zM371 436q-6 -70 16 -121l203 322q-28 8 -45 8 q-64 0 -115.5 -54t-58.5 -155zM498 225h16q65 0 119 55.5t61 155.5q3 49 -6 86z" />
<glyph unicode="&#xf9;" d="M84 340l72 528h319l-69 -499q-8 -53 20.5 -96.5t91.5 -43.5q54 0 88.5 40t40.5 96l72 503h317l-123 -868h-168l-120 72q-30 -38 -95 -69.5t-139 -31.5q-91 0 -166.5 46.5t-115.5 132.5t-25 190zM227 1245v41h375l135 -303h-258z" />
<glyph unicode="&#xfa;" d="M84 340l72 528h319l-69 -499q-8 -53 20.5 -96.5t91.5 -43.5q54 0 88.5 40t40.5 96l72 503h317l-123 -868h-168l-120 72q-30 -38 -95 -69.5t-139 -31.5q-91 0 -166.5 46.5t-115.5 132.5t-25 190zM469 983l135 303h375v-41l-252 -262h-258z" />
<glyph unicode="&#xfb;" d="M84 340l72 528h319l-69 -499q-8 -53 20.5 -96.5t91.5 -43.5q54 0 88.5 40t40.5 96l72 503h317l-123 -868h-168l-120 72q-30 -38 -95 -69.5t-139 -31.5q-91 0 -166.5 46.5t-115.5 132.5t-25 190zM264 983l221 303h314l135 -303l-248 2l-72 98l-92 -98z" />
<glyph unicode="&#xfc;" d="M84 340l72 528h319l-69 -499q-8 -53 20.5 -96.5t91.5 -43.5q54 0 88.5 40t40.5 96l72 503h317l-123 -868h-168l-120 72q-30 -38 -95 -69.5t-139 -31.5q-91 0 -166.5 46.5t-115.5 132.5t-25 190zM311 1149q6 58 48 97.5t98 39.5q58 0 98 -44t35 -101q-6 -61 -47.5 -99 t-100.5 -38q-58 0 -97.5 42.5t-33.5 102.5zM659 1149q6 58 48 97.5t98 39.5q58 0 98 -44t35 -101q-6 -61 -47 -99t-100 -38q-58 0 -98 42.5t-34 102.5z" />
<glyph unicode="&#xfd;" horiz-adv-x="991" d="M-25 -489l357 620l-254 737h334l120 -387l222 387h329l-776 -1378h-315zM442 983l136 303h374v-41l-252 -262h-258z" />
<glyph unicode="&#xfe;" horiz-adv-x="1085" d="M-31 -500l275 1938l295 24h26l-96 -676q83 109 229 109q161 0 264 -129.5t91 -331.5t-134 -333.5t-292 -131.5q-172 0 -254 115l-82 -559l-295 -25h-27zM420 430q-11 -99 34 -153t109 -54q65 0 119 55.5t61 155.5t-38.5 154.5t-110.5 54.5q-61 0 -110.5 -50t-63.5 -163z " />
<glyph unicode="&#xff;" horiz-adv-x="991" d="M-25 -489l357 620l-254 737h334l120 -387l222 387h329l-776 -1378h-315zM303 1149q6 58 48 97.5t98 39.5q58 0 98 -44t35 -101q-6 -61 -47.5 -99t-100.5 -38q-58 0 -97.5 42.5t-33.5 102.5zM651 1149q6 58 48 97.5t98 39.5q58 0 98 -44t35 -101q-6 -61 -47.5 -99 t-100.5 -38q-58 0 -97.5 42.5t-33.5 102.5z" />
<glyph unicode="&#x152;" horiz-adv-x="1830" d="M84 719q5 65 18.5 126t39.5 128t63.5 126t94 116t126.5 101.5t166 78.5t208.5 51.5t257 16.5t308.5 -23v-2h502l-39 -287h-502l-31 -221h404l-41 -287h-404l-49 -356h516l-41 -287h-585q-170 -29 -307.5 -19.5t-245.5 44t-188 93.5t-135.5 129.5t-87.5 152.5t-43.5 161.5 t-4.5 157.5zM424 715q-12 -106 18 -195.5t90.5 -146t148 -80.5t185.5 -6l123 862q-72 9 -144.5 0.5t-143.5 -39t-127.5 -81t-97 -131.5t-52.5 -183z" />
<glyph unicode="&#x153;" horiz-adv-x="1613" d="M63 436q13 203 153.5 332t340.5 129q185 0 311 -113q138 113 318 113q86 0 166 -36t140 -104.5t82.5 -168t-7.5 -226.5h-570q3 -58 63 -101.5t148 -43.5q60 0 114 21.5t85 48.5l131 -187q-74 -67 -162.5 -98t-216.5 -31q-194 0 -323 119q-138 -119 -330 -119 q-198 0 -327 132t-116 333zM371 436q-7 -101 36 -156t107 -55q65 0 119 55.5t61 155.5t-38.5 154.5t-110.5 54.5q-64 0 -115.5 -54t-58.5 -155zM1030 545h254q2 43 -30 75.5t-80 32.5q-50 0 -92.5 -33t-51.5 -75z" />
<glyph unicode="&#x178;" horiz-adv-x="1232" d="M113 1438h366l209 -463l334 463h375l-586 -824l-86 -614h-338l86 614zM463 1716q6 58 47.5 97.5t97.5 39.5q58 0 98 -44t35 -101q-6 -61 -47 -99t-100 -38q-58 0 -97.5 42.5t-33.5 102.5zM811 1716q6 58 47.5 97.5t97.5 39.5q58 0 98.5 -44t35.5 -101q-6 -61 -47.5 -99 t-100.5 -38q-58 0 -97.5 42.5t-33.5 102.5z" />
<glyph unicode="&#x2c6;" horiz-adv-x="739" d="M92 983l221 303h314l135 -303l-248 2l-72 98l-92 -98z" />
<glyph unicode="&#x2dc;" horiz-adv-x="708" d="M127 1032q-1 73 17 125.5t49.5 79t64.5 38t70 11.5q57 0 129 -25.5t100 -25.5q57 0 76 47l108 -22q-1 -68 -21.5 -119.5t-53 -80t-68.5 -42.5t-74 -14q-47 0 -121 26.5t-92 26.5q-38 0 -52 -11.5t-21 -35.5z" />
<glyph unicode="&#x2000;" horiz-adv-x="926" />
<glyph unicode="&#x2001;" horiz-adv-x="1853" />
<glyph unicode="&#x2002;" horiz-adv-x="926" />
<glyph unicode="&#x2003;" horiz-adv-x="1853" />
<glyph unicode="&#x2004;" horiz-adv-x="617" />
<glyph unicode="&#x2005;" horiz-adv-x="463" />
<glyph unicode="&#x2006;" horiz-adv-x="308" />
<glyph unicode="&#x2007;" horiz-adv-x="308" />
<glyph unicode="&#x2008;" horiz-adv-x="231" />
<glyph unicode="&#x2009;" horiz-adv-x="370" />
<glyph unicode="&#x200a;" horiz-adv-x="102" />
<glyph unicode="&#x2010;" horiz-adv-x="757" d="M51 236l39 305l596 114l-41 -305z" />
<glyph unicode="&#x2011;" horiz-adv-x="757" d="M51 236l39 305l596 114l-41 -305z" />
<glyph unicode="&#x2012;" horiz-adv-x="757" d="M51 236l39 305l596 114l-41 -305z" />
<glyph unicode="&#x2013;" d="M61 367l41 280h873l-41 -280h-873z" />
<glyph unicode="&#x2014;" horiz-adv-x="1609" d="M61 367l41 280h1446l-41 -280h-1446z" />
<glyph unicode="&#x2018;" horiz-adv-x="583" d="M113 741v41l440 676l96 -26l-174 -691h-362z" />
<glyph unicode="&#x2019;" horiz-adv-x="583" d="M113 748l174 690h362v-41l-440 -676z" />
<glyph unicode="&#x201a;" horiz-adv-x="583" d="M-72 -334l174 690h363v-41l-440 -675z" />
<glyph unicode="&#x201c;" horiz-adv-x="1077" d="M113 741v41l440 676l96 -26l-174 -691h-362zM596 741v41l440 676l97 -26l-175 -691h-362z" />
<glyph unicode="&#x201d;" horiz-adv-x="1077" d="M113 748l174 690h362v-41l-440 -676zM598 748l174 690h363v-41l-441 -676z" />
<glyph unicode="&#x201e;" horiz-adv-x="1077" d="M-72 -334l174 690h363v-41l-440 -675zM422 -334l174 690h362v-41l-440 -675z" />
<glyph unicode="&#x2022;" horiz-adv-x="823" d="M131 510q11 117 96.5 197.5t202.5 80.5q121 0 202 -89t70 -207q-12 -125 -96.5 -203t-206.5 -78q-119 0 -199.5 87.5t-68.5 211.5z" />
<glyph unicode="&#x2026;" horiz-adv-x="1744" d="M53 180q8 79 66 134t135 55q81 0 135.5 -61t46.5 -140q-7 -84 -64 -136t-139 -52q-79 0 -133 58.5t-47 141.5zM635 180q8 79 66 134t135 55q81 0 135.5 -61t46.5 -140q-7 -84 -64 -136t-139 -52q-79 0 -133 58.5t-47 141.5zM1214 180q8 79 66 134t135 55q81 0 135.5 -61 t46.5 -140q-7 -84 -63.5 -136t-138.5 -52q-79 0 -133.5 58.5t-47.5 141.5z" />
<glyph unicode="&#x202f;" horiz-adv-x="370" />
<glyph unicode="&#x2039;" horiz-adv-x="731" d="M47 385l8 53l459 508l191 -184l-334 -361l223 -262l-201 -168z" />
<glyph unicode="&#x203a;" horiz-adv-x="731" d="M8 156l334 360l-223 262l200 168l347 -414l-9 -53l-458 -508z" />
<glyph unicode="&#x205f;" horiz-adv-x="463" />
<glyph unicode="&#x20ac;" horiz-adv-x="1384" d="M-51 416l4 30l65 166h170q0 40 7 101v2h-144l4 30l64 168h125q85 213 273 331t427 118q88 0 177.5 -24t155.5 -59.5t111.5 -68.5t67.5 -59l-203 -223q-16 16 -39 34.5t-65 45.5t-96.5 44t-110.5 17q-100 0 -184 -39.5t-140 -116.5h482l-4 -30l-64 -168h-493 q-4 -20 -4 -31q-5 -31 -5 -72h469l-4 -30l-65 -166h-334q51 -76 132 -119t183 -43q156 0 260 70l140 -242q-136 -111 -441 -111q-206 0 -389.5 123.5t-255.5 321.5h-276z" />
<glyph unicode="&#x2122;" horiz-adv-x="1622" d="M133 1245l27 193h665l-26 -193h-226l-86 -610h-217l86 610h-223zM811 635l113 803l39 8l303 -313l385 313l37 -8l-113 -803h-213l57 379l-180 -140h-16l-144 150l-55 -389h-213z" />
<glyph unicode="&#x25fc;" horiz-adv-x="870" d="M0 0v870h870v-870h-870z" />
</font>
</defs>
</svg>
