<?xml version="1.0" standalone="no"?>
<!DOCTYPE svg PUBLIC "-//W3C//DTD SVG 1.1//EN" "http://www.w3.org/Graphics/SVG/1.1/DTD/svg11.dtd" >
<svg xmlns="http://www.w3.org/2000/svg">
<metadata></metadata>
<defs>
<font id="transatstandard_oblique" horiz-adv-x="929" >
<font-face units-per-em="2048" ascent="1485" descent="-563" />
<missing-glyph horiz-adv-x="481" />
<glyph unicode="&#xfb01;" horiz-adv-x="1019" d="M123 705v16l43 100h104l47 334q11 76 41.5 136.5t71.5 96t92 57.5t103.5 21t105.5 -14l-26 -121q-83 27 -156.5 -19t-87.5 -159l-47 -332h215l-17 -116h-215l-100 -705h-143l100 705h-131zM692 0l115 821h143l-114 -821h-144zM809 1157q3 49 38 82t81 33t79 -35t29 -82 q-4 -49 -38.5 -81t-82.5 -32q-47 0 -78.5 33t-27.5 82z" />
<glyph unicode="&#xfb02;" horiz-adv-x="1030" d="M123 705v16l43 100h104l47 334q11 76 41.5 136.5t71.5 96t92 57.5t103.5 21t105.5 -14l-26 -121q-83 27 -156.5 -19t-87.5 -159l-47 -332h215l-17 -116h-215l-100 -705h-143l100 705h-131zM711 0l202 1438l136 24h14l-207 -1462h-145z" />
<glyph unicode="&#xfb03;" horiz-adv-x="1544" d="M123 705v16l43 100h104l41 289q11 76 41.5 136t71.5 95.5t92 57.5t103.5 21t105.5 -13l-27 -121q-84 25 -156.5 -21t-88.5 -159l-39 -285h383l45 334q11 76 41.5 136.5t72 96t92.5 57.5t103.5 21t105.5 -14l-26 -121q-85 27 -158.5 -19t-87.5 -159l-45 -332h215l-16 -116 h-215l-101 -705h-143l100 705h-383l-100 -705h-143l100 705h-131zM1219 0l114 821h144l-115 -821h-143zM1335 1157q3 49 38 82t81 33t79.5 -35t29.5 -82q-4 -49 -38.5 -81t-82.5 -32q-47 0 -79 33.5t-28 81.5z" />
<glyph unicode="&#xfb04;" horiz-adv-x="1554" d="M123 705v16l43 100h104l41 289q11 76 41.5 136t71.5 95.5t92 57.5t103.5 21t105.5 -13l-27 -121q-84 25 -156.5 -21t-88.5 -159l-39 -285h383l45 334q11 76 41.5 136.5t72 96t92.5 57.5t103.5 21t105.5 -14l-26 -121q-85 27 -158.5 -19t-87.5 -159l-45 -332h215l-16 -116 h-215l-101 -705h-143l100 705h-383l-100 -705h-143l100 705h-131zM1235 0l203 1438l135 24h14l-207 -1462h-145z" />
<glyph horiz-adv-x="0" />
<glyph horiz-adv-x="682" />
<glyph unicode=" "  horiz-adv-x="481" />
<glyph unicode="&#x09;" horiz-adv-x="481" />
<glyph unicode="&#xa0;" horiz-adv-x="481" />
<glyph unicode="!" horiz-adv-x="577" d="M96 106q5 54 42 90.5t91 36.5t88.5 -38t30.5 -93q-4 -54 -42.5 -88t-92.5 -34q-53 0 -87 35.5t-30 90.5zM225 387l68 946h213l-207 -946h-74z" />
<glyph unicode="&#x22;" horiz-adv-x="696" d="M199 877l8 561h207l-154 -561h-61zM514 877l8 561h207l-154 -561h-61z" />
<glyph unicode="#" horiz-adv-x="1177" d="M74 362q2 20 4 62t4 63h227l142 369h-191q4 41 8 127h230q108 281 133 350h137l-135 -350h231q25 68 73 193.5t60 156.5h136l-134 -350h181l-6 -127h-222l-143 -369h186q-2 -20 -4 -62t-4 -63h-223q-18 -49 -63 -172.5t-70 -189.5h-139q41 103 137 362h-228 q-25 -66 -72.5 -189t-66.5 -173h-137q26 66 73 189.5t66 172.5h-190zM446 487h230q22 55 45.5 116.5t51.5 136.5t44 116h-229z" />
<glyph unicode="$" horiz-adv-x="931" d="M76 115l90 96q2 -2 21 -18t22.5 -18.5t21 -16t24.5 -16.5t24 -12.5t29 -12t30 -7.5t36.5 -6.5t39.5 -1.5q115 0 181.5 58t76.5 141q13 85 -38 160.5t-163 167.5q-62 51 -102.5 91t-82 95.5t-57.5 116.5t-6 127q16 114 97.5 195.5t222.5 97.5l37 260h133l-35 -258 q66 -9 129 -35t106 -59l-75 -119q-109 86 -224 86q-101 0 -165 -50t-76 -139q-17 -120 196 -288q298 -228 254 -467q-13 -76 -47.5 -134.5t-83.5 -93t-100.5 -54t-108.5 -26.5l-34 -251h-136l37 249q-169 21 -274 142z" />
<glyph unicode="%" horiz-adv-x="1456" d="M100 35l1250 1333l77 -74l-1247 -1339zM168 1042q13 141 110 225.5t224 84.5q123 0 205.5 -85.5t68.5 -224.5q-13 -140 -108 -224.5t-217 -84.5q-124 0 -210.5 85.5t-72.5 223.5zM295 1042q-11 -80 35.5 -142t124.5 -62t131 60.5t63 143.5q12 85 -30 146t-123 61 q-77 0 -132.5 -61t-68.5 -146zM770 289q14 141 110.5 225t221.5 84t206.5 -85t67.5 -224q-13 -140 -108 -224.5t-217 -84.5q-60 0 -114 22t-94.5 61t-60.5 98t-12 128zM897 289q-12 -80 35 -142.5t125 -62.5t130.5 60.5t63.5 144.5q11 83 -32 145t-123 62q-76 0 -132 -62 t-67 -145z" />
<glyph unicode="&#x26;" horiz-adv-x="1228" d="M91 398.5q32 140.5 167 246.5l166 125l-37 66q-72 130 -49 260q24 130 116 198t216 68q114 0 192 -68.5t105 -165.5l-117 -53q-23 67 -71.5 111.5t-110.5 44.5q-74 0 -121.5 -39t-59.5 -107q-21 -97 52 -221l309 -514l233 189l72 -101l-235 -194l155 -244h-178l-90 150 l-107 -80q-46 -41 -120 -64t-153.5 -22.5t-156 35t-121.5 100.5q-88 139 -56 279.5zM232.5 384q-21.5 -87 31.5 -179q38 -60 103 -82t136 -5t130 66l100 76l-241 397l-156 -122q-82 -64 -103.5 -151z" />
<glyph unicode="'" horiz-adv-x="380" d="M199 877l8 561h207l-154 -561h-61z" />
<glyph unicode="(" horiz-adv-x="772" d="M182 616q36 257 182 483.5t363 381.5l76 -90q-402 -350 -461 -783q-62 -442 238 -835l-95 -80q-168 180 -253 424.5t-50 498.5z" />
<glyph unicode=")" horiz-adv-x="772" d="M29 -217q62 54 115 108t112 130t103 154.5t79.5 180t50.5 209.5q63 444 -237 836l94 80q167 -180 252.5 -425t50.5 -499q-36 -257 -182 -483t-363 -381z" />
<glyph unicode="*" horiz-adv-x="780" d="M168 1034l240 99q-150 75 -207 106l67 100l183 -141q1 40 5 120t5 120h117l-52 -238q117 75 209 137l53 -106l-237 -101l207 -104q-14 -19 -37.5 -54.5t-30.5 -45.5l-182 141l-12 -240h-117l51 240l-205 -139z" />
<glyph unicode="+" horiz-adv-x="933" d="M127 635l16 127h310l45 313h133l-45 -313h307l-16 -127h-308l-45 -313h-133l45 313h-309z" />
<glyph unicode="," horiz-adv-x="468" d="M-18 -307l145 530h215l2 -26l-305 -519z" />
<glyph unicode="-" horiz-adv-x="686" d="M90 381l21 143l503 78l-22 -145z" />
<glyph unicode="." horiz-adv-x="468" d="M68 106q5 54 43 90.5t90 36.5q54 0 89 -38t32 -93q-4 -54 -43 -88t-93 -34t-87.5 35.5t-30.5 90.5z" />
<glyph unicode="/" horiz-adv-x="778" d="M-129 -258l887 1753l116 -61l-886 -1753z" />
<glyph unicode="0" horiz-adv-x="1159" d="M127 672q26 197 104 352.5t202.5 246.5t273.5 91t252.5 -92t144.5 -250t16 -354q-27 -196 -105 -352.5t-202 -249.5t-272 -93q-149 0 -253.5 94t-145.5 253.5t-15 353.5zM284.5 380.5q22.5 -129.5 89.5 -206t169 -76.5t189.5 77t145 206t80.5 289q20 164 0 290.5 t-87 202.5t-169 76t-190 -75.5t-146 -204t-81 -289.5q-23 -160 -0.5 -289.5z" />
<glyph unicode="1" horiz-adv-x="651" d="M199 1174l350 176h29l-191 -1350h-156l162 1120l-137 -67z" />
<glyph unicode="2" horiz-adv-x="1030" d="M18 27q320 277 394 345q250 230 336 383q48 86 59 165q11 76 -4 137t-49.5 98.5t-79 57t-94.5 20.5q-152 0 -269 -135h-22l-76 80q50 74 155 129t226 55q72 0 140.5 -27t124.5 -78.5t84 -138t15 -192.5q-21 -170 -144.5 -328t-465.5 -469h529l-19 -129h-831z" />
<glyph unicode="3" horiz-adv-x="999" d="M41 70l51 112l23 2q112 -90 284 -90q57 0 114 17t110.5 51.5t88.5 97t38 143.5q3 74 -26.5 136t-83 99t-126 52t-154.5 -6l-16 25l395 493h-499l18 131h719l8 -24l-414 -521q50 1 107.5 -25t110 -72.5t85 -125t27.5 -170.5q-10 -197 -145.5 -310.5t-345.5 -113.5 q-96 0 -173.5 17t-113.5 34.5t-82 47.5z" />
<glyph unicode="4" horiz-adv-x="1101" d="M18 289l908 1067l49 -13l-137 -974h206l-18 -125h-205l-35 -244h-149l35 244h-631zM262 369h428l92 628z" />
<glyph unicode="5" horiz-adv-x="1003" d="M41 70l51 112l25 2q36 -32 110.5 -61t167.5 -29q49 0 98 13t95 40t81.5 65.5t57.5 93.5t23 120q3 136 -74.5 209.5t-202.5 73.5q-49 0 -89.5 -9.5t-73 -28t-50 -32t-43.5 -36.5q-7 -6 -10 -9l-29 12l172 727h621l-21 -129h-489l-96 -416q60 20 135 25.5t151 -10.5 q108 -29 182 -127t70 -246q-6 -209 -145.5 -334t-366.5 -125q-122 0 -218.5 32t-131.5 67z" />
<glyph unicode="6" horiz-adv-x="1075" d="M119 516q25 168 90 307.5t150 232.5t190.5 160.5t207 100.5t204.5 43l22 -117l-20 -20q-224 -24 -397 -170.5t-249 -358.5q56 64 137.5 93.5t168.5 29.5q163 0 267 -116.5t91 -301.5q-13 -200 -139.5 -314t-319.5 -114q-203 0 -317.5 148.5t-85.5 396.5zM264 416 q-7 -77 20.5 -149.5t91 -121.5t148.5 -49q132 0 213 84t92 215q9 128 -61 219t-184 91q-124 0 -216 -82t-104 -207z" />
<glyph unicode="7" horiz-adv-x="946" d="M131 0l668 1204h-590l16 129h781l12 -26l-711 -1307h-176z" />
<glyph unicode="8" horiz-adv-x="1075" d="M86 406q14 129 99 231.5t202 128.5q-57 29 -93.5 104.5t-25.5 169.5q19 142 126.5 231.5t264.5 88.5q154 -3 244.5 -100.5t75.5 -239.5q-10 -95 -63.5 -167.5t-122.5 -100.5q91 -32 150.5 -135t47.5 -228q-17 -192 -149.5 -305.5t-339.5 -110.5q-199 2 -317.5 123.5 t-98.5 309.5zM240 399q-17 -123 62.5 -210t207.5 -89q132 -3 225 80.5t105 212.5q14 127 -60 211.5t-205 85.5q-134 1 -225 -80t-110 -211zM408 1022q-9 -87 43.5 -154.5t144.5 -68.5q93 0 163 65t79 152q11 87 -43 152.5t-144 68.5q-93 1 -163.5 -63t-79.5 -152z" />
<glyph unicode="9" horiz-adv-x="1075" d="M168 88l20 21q224 23 397 169.5t249 358.5q-56 -64 -137.5 -93.5t-168.5 -29.5q-162 0 -266.5 116.5t-91.5 301.5q15 199 141 313.5t318 114.5q205 0 318.5 -148.5t84.5 -396.5q-25 -168 -89.5 -307.5t-149.5 -232.5t-190.5 -160.5t-207.5 -100.5t-205 -43zM324 936 q-11 -128 59.5 -218.5t185.5 -90.5q123 0 214.5 81.5t103.5 204.5q7 78 -20.5 150.5t-91 122t-148.5 49.5q-132 0 -213 -84.5t-90 -214.5z" />
<glyph unicode=":" horiz-adv-x="479" d="M68 106q5 54 43 90.5t90 36.5q54 0 89 -38t32 -93q-4 -54 -43 -88t-93 -34t-87.5 35.5t-30.5 90.5zM152 717q5 54 43 90.5t90 36.5q54 0 89 -38t32 -93q-4 -54 -43 -88.5t-93 -34.5t-87.5 36t-30.5 91z" />
<glyph unicode=";" horiz-adv-x="477" d="M-18 -307l145 530h215l2 -26l-305 -519zM150 717q5 54 43 90.5t90 36.5q54 0 88.5 -37.5t31.5 -93.5q-4 -54 -42.5 -88.5t-92.5 -34.5t-87.5 36t-30.5 91z" />
<glyph unicode="&#x3c;" horiz-adv-x="1056" d="M102 680l4 29l914 426l-23 -154l-630 -293l548 -289l-18 -145z" />
<glyph unicode="=" horiz-adv-x="991" d="M109 471l18 125h795l-17 -125h-796zM154 797l18 127h795l-17 -127h-796z" />
<glyph unicode="&#x3e;" horiz-adv-x="1056" d="M98 256l23 154l631 292l-549 289l18 146l795 -426l-4 -29z" />
<glyph unicode="?" horiz-adv-x="831" d="M156 1180q122 180 336 180q138 0 238.5 -84t100.5 -217q0 -72 -20.5 -130t-53.5 -98t-74 -75.5t-83.5 -71t-79 -74.5t-64 -96t-36.5 -127h-109q-8 68 8 129.5t47 108t70 89t80 80.5t75 75t55.5 80t21.5 87q0 87 -54 138t-133 51q-76 0 -127.5 -34t-95.5 -93zM205 94v12 q5 54 43 90.5t90 36.5q51 0 85 -34.5t34 -85.5q0 -57 -39 -95t-96 -38q-50 0 -83.5 32t-33.5 82z" />
<glyph unicode="@" horiz-adv-x="1748" d="M113 684q23 169 101 312.5t195.5 245t274 159t332.5 57.5q166 0 309.5 -62.5t237.5 -165.5t139 -241t24 -284q-15 -107 -56.5 -192.5t-99 -137t-122.5 -78.5t-133 -27q-77 0 -140 44t-71 102q-38 -60 -105.5 -101.5t-148.5 -44.5q-142 -3 -230 100t-61 261 q24 148 126 245t245 101q82 3 150 -39.5t94 -103.5l69 94h72l-113 -373q-24 -74 11 -126t118 -52q44 0 88.5 18.5t87 55.5t74 103t43.5 151q18 123 -18 241.5t-113.5 210.5t-202 148.5t-274.5 56.5q-199 0 -367.5 -83t-280.5 -238.5t-141 -356.5q-22 -150 16 -290 t122.5 -245.5t218.5 -169t295 -63.5q258 0 485 127l47 -82q-237 -141 -532 -141q-187 0 -344 73t-255.5 192.5t-144 276.5t-22.5 322zM690 621q-20 -99 30 -168.5t130 -67.5q89 1 157 71.5t89 174.5q19 100 -30.5 167t-133.5 64q-89 -1 -156 -68t-86 -173z" />
<glyph unicode="A" horiz-adv-x="1284" d="M-53 0l837 1456h27l424 -1456h-162l-98 354h-656l-202 -354h-170zM385 479h553l-184 660z" />
<glyph unicode="B" horiz-adv-x="1110" d="M102 2l201 1434q65 12 131 18q43 4 87 4q23 0 49 -1q70 -3 133 -16.5t118 -42.5t93.5 -70.5t57.5 -105.5q14 -48 15 -106q0 -18 -2 -37q-7 -99 -70 -174t-135 -104q122 -25 204 -129q70 -90 71 -215q0 -20 -2 -41q-11 -113 -65 -198.5t-141.5 -135.5t-204.5 -77 q-107 -25 -230 -25h-23q-136 2 -287 22zM274 129q76 -8 156 -10h16q72 1 143 17q79 18 143.5 49.5t109 91.5t55.5 139q3 22 3 43q0 47 -14 87q-22 60 -64 97.5t-95 59.5t-109 24h-260zM375 848h198q100 3 176 67.5t85 159.5q2 15 2 30q0 52 -20 93q-26 52 -70 78t-100 38 q-52 12 -101 12h-8q-52 -1 -97 -11z" />
<glyph unicode="C" horiz-adv-x="1415" d="M100 731q16 219 129 388.5t286.5 258t375.5 88.5q100 0 195 -24t166 -62.5t121 -77.5t83 -77l-96 -109q-81 87 -202 151t-265 64q-160 0 -299.5 -77t-228.5 -216.5t-101 -312.5q-1 -22 -1 -44q1 -139 61 -263q70 -142 204.5 -227t298.5 -85q240 0 428 156l80 -108 q-63 -54 -122.5 -90t-166 -64.5t-237.5 -28.5q-148 0 -284 59.5t-233.5 160t-150.5 242.5q-43 116 -43 241q0 28 2 57z" />
<glyph unicode="D" horiz-adv-x="1359" d="M102 0l201 1436q136 24 250 24q45 0 87 -4q148 -13 258 -47t187.5 -99t128 -135t76.5 -155q28 -85 36 -159q5 -47 4 -92q0 -27 -1 -54q-4 -48 -14 -97.5t-29 -106t-49 -109.5t-70.5 -107.5t-96.5 -100.5t-124 -87t-156 -69t-190 -44q-93 -15 -207 -15q-11 1 -22 1 q-127 2 -269 20zM276 125q75 -9 145 -9q157 0 291 44q195 62 314.5 206t142.5 349q4 39 4 76q0 65 -13 127q-21 97 -76 178.5t-144 136t-213 76.5q-62 11 -133.5 11t-151.5 -11z" />
<glyph unicode="E" horiz-adv-x="1052" d="M102 0l201 1438h752l-19 -129h-596l-59 -422h481l-18 -129h-479l-91 -629h629l-18 -129h-783z" />
<glyph unicode="F" horiz-adv-x="997" d="M102 0l201 1438h746l-17 -129h-592l-59 -422h475l-16 -129h-475l-109 -758h-154z" />
<glyph unicode="G" horiz-adv-x="1486" d="M96 686q0 170 66.5 318t177 248t255 157t300.5 57q91 0 179 -21.5t157 -57t119.5 -70.5t91.5 -74l-94 -115q-86 86 -200.5 144.5t-250.5 58.5q-124 0 -239.5 -48t-202.5 -131.5t-139 -204.5t-52 -259q0 -157 72 -289.5t204.5 -212.5t297.5 -80q219 0 372 99l43 295h-241 l18 127h389l-65 -500q-199 -156 -529 -156q-154 0 -290.5 56.5t-232 153t-151 228t-55.5 277.5z" />
<glyph unicode="H" horiz-adv-x="1267" d="M102 0l201 1438h156l-76 -551h643l76 551h155l-200 -1438h-156l107 758h-643l-107 -758h-156z" />
<glyph unicode="I" horiz-adv-x="481" d="M102 0l201 1438h156l-201 -1438h-156z" />
<glyph unicode="J" horiz-adv-x="817" d="M74 -14l18 133q26 -3 51 -3q120 0 201 70q97 83 123 256l139 996h156l-141 -998q-16 -113 -54 -200t-102 -151.5t-163 -91.5q-63 -17 -137 -17q-43 0 -91 6z" />
<glyph unicode="K" horiz-adv-x="1179" d="M117 0l200 1438h158l-88 -641l660 641h192l-704 -693l559 -745h-197l-526 702l-97 -702h-157z" />
<glyph unicode="L" horiz-adv-x="950" d="M102 0l201 1438h154l-183 -1309h568l-17 -129h-723z" />
<glyph unicode="M" horiz-adv-x="1495" d="M102 0l199 1446l29 10l465 -612l663 612l27 -10l-209 -1446h-156l166 1118l-508 -475h-20l-348 475l-156 -1118h-152z" />
<glyph unicode="N" horiz-adv-x="1280" d="M102 0l203 1442l25 14l704 -612l82 594h152l-201 -1438h-152l93 659l-588 510l-166 -1169h-152z" />
<glyph unicode="O" horiz-adv-x="1622" d="M119 719q14 211 119 381.5t278 268t381 97.5q154 0 288.5 -58t226.5 -158q93 -98 142 -238q41 -116 41 -244q0 -26 -2 -53q-15 -210 -119 -379.5t-278 -267t-385 -97.5q-152 0 -285.5 57.5t-226.5 157t-142 238.5q-40 114 -40 238q0 28 2 57zM281 717q-2 -25 -2 -49 q0 -103 31 -195q38 -114 111 -193t175.5 -124t218.5 -45q156 0 292 75.5t224.5 215.5t100.5 315q2 26 2 51q0 144 -58 264q-68 142 -195 220.5t-284 78.5q-242 0 -419.5 -173.5t-196.5 -440.5z" />
<glyph unicode="P" horiz-adv-x="1052" d="M117 0l200 1430q124 26 232 27q15 0 29 -1q120 -4 216.5 -44.5t162.5 -105.5t97 -156q22 -66 22 -138q0 -28 -3 -58q-18 -172 -122 -296t-265 -178q-119 -40 -254 -41q-47 0 -96 5l-66 -444h-153zM356 584q44 -4 85 -4q181 0 303 82q150 102 174 290q3 23 3 46 q-1 58 -21 112q-28 74 -87 126q-59 50 -153 72q-50 11 -104 12q-48 0 -101 -9z" />
<glyph unicode="Q" horiz-adv-x="1622" d="M119 719q14 211 119 381.5t278 268t381 97.5q154 0 288.5 -58t227 -157.5t141.5 -238.5q41 -116 41 -244q0 -26 -2 -53q-15 -210 -120 -379.5t-275 -265.5l115 -170l-119 -84l-129 194q-125 -39 -254 -39q-152 0 -285.5 57.5t-226.5 157t-142 238.5q-40 114 -40 238 q0 28 2 57zM281 717q-2 -25 -2 -49q0 -103 31 -195q38 -114 111 -193t175.5 -124t218.5 -45q85 0 168 24l-129 195l115 82l147 -219q134 78 219 214.5t97 309.5q2 26 2 51q0 143 -58 264q-68 141 -195 220t-284 79q-242 0 -419.5 -173.5t-196.5 -440.5z" />
<glyph unicode="R" horiz-adv-x="1138" d="M115 0l202 1430q109 26 215 28q9 0 18 -1q97 0 188 -24q100 -27 174 -81t118 -151q39 -87 39 -200v-26q-5 -141 -87.5 -262.5t-240.5 -184.5l349 -528h-197l-313 494q-41 -5 -88 -5q-69 0 -152 11l-68 -500h-157zM360 641q60 -14 122 -15h10q58 0 114 11 q60 12 114.5 39.5t96.5 68t67.5 100.5t28.5 132v21q0 58 -14 106q-17 58 -49.5 97t-77.5 67.5t-96.5 39.5t-107.5 13h-15q-49 0 -98 -12z" />
<glyph unicode="S" horiz-adv-x="997" d="M41 131l86 109q157 -131 311 -131q124 0 205 62.5t90 156.5q2 17 2 32q-1 30 -7 58q-10 42 -25 72t-51.5 67t-65 60.5t-84.5 66.5q-96 73 -154 130q-56 58 -92 136q-31 68 -32 143q0 11 1 21q5 65 33.5 125.5t80 112t134 83t184.5 31.5q93 0 185 -28.5t149 -65.5 l-59 -127q-139 84 -281 84q-116 0 -188.5 -62t-77.5 -157q0 -5 -1 -10q0 -42 16 -78q16 -42 51.5 -80.5t70.5 -67.5t88 -67q166 -115 232 -228q54 -92 54 -200q0 -24 -3 -49q-11 -92 -53 -163t-105.5 -113t-140.5 -63q-74 -20 -156 -20h-8q-127 1 -225 47.5t-164 112.5z" />
<glyph unicode="T" horiz-adv-x="989" d="M172 1309l16 129h899l-16 -129h-373l-184 -1309h-156l185 1309h-371z" />
<glyph unicode="U" horiz-adv-x="1257" d="M141 343q-4 36 -4 73q0 47 6 96l131 926h158l-131 -926q-6 -43 -6 -82q1 -124 61 -210q80 -112 234.5 -111.5t257 110t129.5 293.5l131 926h158l-131 -926q-13 -90 -40.5 -169t-73.5 -148t-107 -118t-145 -77.5t-183 -28.5q-98 0 -179 28t-134 78t-88.5 118t-43.5 148z " />
<glyph unicode="V" horiz-adv-x="1284" d="M182 1438h162l283 -1112l606 1112h166l-803 -1456h-27z" />
<glyph unicode="W" horiz-adv-x="1925" d="M180 1438h162l207 -1076l549 1094h24l234 -1104l522 1086h160l-715 -1456h-31l-235 1112l-549 -1112h-27z" />
<glyph unicode="X" horiz-adv-x="1200" d="M20 0l541 721l-340 717h178l269 -572l430 572h174l-537 -715l342 -723h-172l-276 578l-432 -578h-177z" />
<glyph unicode="Y" horiz-adv-x="1153" d="M178 1438h172l291 -559l449 559h180l-570 -719l-102 -719h-156l101 719z" />
<glyph unicode="Z" horiz-adv-x="1157" d="M37 25l921 1284h-671l16 129h895l10 -25l-919 -1284h708l-16 -129h-930z" />
<glyph unicode="[" horiz-adv-x="733" d="M72 -268l239 1706h443l-17 -125l-286 -2l-205 -1456h286l-18 -123h-442z" />
<glyph unicode="\" horiz-adv-x="778" d="M195 1448l133 33l379 -1753l-129 -31z" />
<glyph unicode="]" horiz-adv-x="733" d="M29 -270l16 125l287 2l205 1456h-287l18 123h443l-240 -1706h-442z" />
<glyph unicode="^" horiz-adv-x="786" d="M117 1030l381 408h26l262 -424l-104 -70l-188 313l-287 -313z" />
<glyph unicode="_" horiz-adv-x="1314" d="M0 -188h1315v-115h-1315v115z" />
<glyph unicode="`" horiz-adv-x="423" d="M131 1184v24h201l106 -256h-98z" />
<glyph unicode="a" d="M68 242q3 125 97 205.5t247 80.5q86 0 174.5 -37t124.5 -81l6 43q2 21 2 41q0 48 -13 90q-19 60 -75 100.5t-142 40.5q-106 0 -200 -53l-53 106q54 32 129 50q71 18 141 18h8q76 -2 140.5 -27.5t113.5 -73.5q49 -47 73 -125q17 -56 17 -124q0 -25 -2 -52l-63 -444h-80 l-35 106q-48 -59 -119 -96t-188 -37q-141 -1 -223 81q-80 80 -80 183v5zM207 252q-1 -6 0 -13q0 -62 54 -108q60 -51 140 -51q112 0 195.5 65.5t97.5 157.5l2 8q-39 44 -112 77q-71 32 -153 32h-5q-97 0 -154 -47t-65 -121z" />
<glyph unicode="b" horiz-adv-x="1050" d="M86 0l201 1438l135 24h14q-22 -144 -58.5 -411.5t-45.5 -333.5q52 61 132 96t171 35q159 0 271 -110t112 -292q0 -107 -35 -196.5t-95.5 -149t-141 -92.5t-171.5 -33q-111 0 -197 52t-128 149l-86 -176h-78zM285 377q0 -127 81 -207t195 -80q129 0 222.5 99.5t93.5 248.5 q0 131 -78.5 212t-196.5 81q-59 0 -114.5 -23t-101.5 -66t-73.5 -112t-27.5 -153z" />
<glyph unicode="c" horiz-adv-x="884" d="M78 410q13 197 144.5 317.5t326.5 120.5q92 0 179.5 -41t143.5 -105l-90 -94q-37 51 -98 87t-139 36q-132 0 -224.5 -91.5t-103.5 -229.5q-1 -13 -1 -25q0 -115 76 -199q84 -92 212 -92q71 0 136 31t112 74l73 -95q-134 -131 -333 -131q-190 1 -308 129 q-107 117 -107 275q0 16 1 33z" />
<glyph unicode="d" horiz-adv-x="1044" d="M76 381q0 141 62.5 249t162 163t217.5 55q107 0 193 -51t131 -144l108 785l150 24l-205 -1462h-76l-39 115q-112 -140 -315 -140q-163 0 -276 111t-113 295zM217 383q0 -130 79.5 -212.5t195.5 -82.5q129 0 222 99t93 253q0 130 -78 210.5t-194 80.5q-132 0 -225 -98.5 t-93 -249.5z" />
<glyph unicode="e" d="M76 385q0 102 38 190t101 147t145.5 92.5t171.5 33.5q176 0 278 -124q86 -106 86 -253q0 -26 -3 -53h-674q-2 -12 -2 -37q0 -132 95.5 -210.5t228.5 -78.5q137 0 250 78q12 -17 33.5 -52t27.5 -44q-120 -99 -336 -99q-188 0 -314 118t-126 292zM244 520h510 q0 90 -67.5 151.5t-162.5 61.5q-105 0 -185 -69.5t-95 -143.5z" />
<glyph unicode="f" horiz-adv-x="624" d="M123 705v16l43 100h104l47 334q11 76 41.5 136.5t71.5 96t92 57.5q49 21 99 21h5q52 -1 105 -14l-26 -121q-31 10 -60 10q-50 0 -97 -29q-73 -46 -87 -159l-47 -332h215l-17 -116h-215l-100 -705h-143l100 705h-131z" />
<glyph unicode="g" horiz-adv-x="978" d="M-43 -260q3 98 86.5 171t173.5 91q-43 13 -74 56q-25 35 -25 75q0 10 1 19q8 61 58 106t134 45q-61 29 -101 104q-35 65 -35 127q0 10 1 19q5 54 28.5 105t65 94.5t107.5 69.5t147 26q65 0 135.5 -26t100.5 -62l223 61h25l-19 -137h-188q33 -47 33 -113v-14 q-7 -137 -101.5 -217.5t-245.5 -83.5q-210 0 -225 -104q-1 -6 -1 -11q0 -35 39 -59q44 -28 120 -31q210 -9 330 -73t124 -189v-14q0 -94 -62 -165q-67 -75 -183 -113t-264 -38q-74 0 -144.5 17t-131.5 49.5t-97 88.5q-35 52 -35 119v7zM98 -256q-1 -7 -1 -13q0 -38 21 -67 q24 -35 65 -53.5t85 -27.5t88 -9q168 0 272 54q101 52 101 144v7q-2 43 -34 74.5t-83 48t-103 24t-108 8.5q-57 0 -123 -20t-121 -65.5t-59 -104.5zM313 551q-1 -7 -1 -14q0 -61 46 -113q51 -57 136 -57q91 0 143 55.5t59 128.5v13q0 62 -44 114q-50 57 -136 57 q-88 0 -143 -56.5t-60 -127.5z" />
<glyph unicode="h" horiz-adv-x="991" d="M86 0l203 1438l135 24h14l-106 -753q44 60 120.5 99.5t159.5 39.5q156 0 248 -104q74 -83 74 -202q0 -29 -4 -61l-68 -481h-145l65 475q3 23 3 44q0 35 -9 67q-15 50 -47 79.5t-73 45.5t-87 16q-49 0 -101 -21.5t-99.5 -72t-65.5 -119.5v-2l-72 -512h-145z" />
<glyph unicode="i" horiz-adv-x="430" d="M104 0l115 821h143l-114 -821h-144zM221 1157q3 49 38 82t81 33t80 -35q30 -31 30 -72q0 -5 -1 -10q-4 -49 -38.5 -81t-82.5 -32q-47 0 -79 34q-28 30 -28 71v10z" />
<glyph unicode="j" horiz-adv-x="430" d="M-201 -516l29 121q25 -5 49 -5q61 0 111 35q70 49 82 144l145 1042h143l-145 -1044q-10 -73 -39.5 -131t-71 -93t-92.5 -57t-104 -22q-3 -1 -5 -1q-51 0 -102 11zM221 1157q4 49 38.5 82t80.5 33t80 -35q29 -31 29 -72v-10q-4 -49 -38.5 -81t-82.5 -32q-47 0 -78 33 q-29 30 -29 74v8z" />
<glyph unicode="k" horiz-adv-x="886" d="M86 0l203 1438l135 24h14l-139 -973l408 332h192l-475 -393l385 -428h-182l-342 379l-54 -379h-145z" />
<glyph unicode="l" horiz-adv-x="403" d="M86 0l203 1438l135 24h14l-207 -1462h-145z" />
<glyph unicode="m" horiz-adv-x="1406" d="M80 0l117 821h75l47 -104q29 54 90.5 92.5t141.5 38.5q92 0 159 -46t95 -124q38 78 113.5 124t160.5 46q141 0 215 -94q58 -72 57 -176q0 -31 -5 -64l-72 -514h-146l72 506q4 27 4 50q0 74 -38 115q-50 54 -132 54q-69 0 -131 -54t-82 -163l-71 -508h-146l72 506 q4 26 4 49q0 73 -40 115q-52 54 -134 55q-72 0 -133.5 -56t-77.5 -167l-72 -502h-143z" />
<glyph unicode="n" horiz-adv-x="983" d="M78 0l117 821h77l43 -119q44 63 124 104.5t165 41.5q156 0 248 -104q74 -83 74 -202q0 -29 -4 -61l-68 -481h-145l65 475q3 23 3 44q0 35 -9 67q-15 50 -47 79.5t-73 45.5t-87 16q-54 0 -110 -25.5t-103.5 -85t-58.5 -141.5l-68 -475h-143z" />
<glyph unicode="o" horiz-adv-x="980" d="M78 414q9 132 74 232t165.5 151t221.5 51q86 0 162.5 -30t133 -84.5t87.5 -137.5q27 -71 27 -155q0 -13 -1 -27q-7 -132 -72 -234t-167 -154.5t-224 -52.5q-177 0 -297 122q-111 113 -111 289q0 15 1 30zM219 414q-1 -16 -1 -31q0 -120 70 -201q80 -92 204 -92 t214.5 91.5t100.5 232.5q1 14 1 28q0 122 -72 202q-80 89 -204 89q-125 0 -214.5 -89t-98.5 -230z" />
<glyph unicode="p" horiz-adv-x="1056" d="M18 -518l189 1339h76l39 -123q56 69 137 108.5t178 39.5q163 0 275 -110t112 -296q0 -140 -61.5 -247.5t-162 -162.5t-220.5 -55q-109 0 -193.5 49.5t-126.5 141.5l-94 -658l-135 -26h-13zM291 377q0 -127 81 -208t195 -81q129 0 222.5 100.5t93.5 249.5q0 131 -78.5 212 t-196.5 81q-59 0 -114.5 -23t-101.5 -66t-73.5 -112t-27.5 -153z" />
<glyph unicode="q" horiz-adv-x="1056" d="M84 381q0 143 61.5 250t160.5 160t220 53q110 0 196 -48t128 -139l88 164h78q-57 -407 -187 -1313l-135 -26h-14q10 68 88 612q-110 -119 -299 -119q-160 0 -272.5 111t-112.5 295zM223 387q0 -131 80 -215t197 -84q128 0 219.5 99t91.5 255q0 129 -76.5 209t-193.5 80 q-129 0 -223.5 -97.5t-94.5 -246.5z" />
<glyph unicode="r" horiz-adv-x="600" d="M78 0q24 160 66.5 462.5t50.5 358.5h81l48 -92q29 50 85.5 83.5t122.5 33.5q51 0 109 -27l-43 -129q-2 0 -6 -1t-6 -1q-41 23 -92 23q-115 0 -187 -119q-42 -282 -84 -592h-145z" />
<glyph unicode="s" horiz-adv-x="759" d="M43 53l55 113q27 -21 101.5 -48.5t144.5 -27.5q47 0 89 9.5t75.5 37t34.5 68.5v7q0 44 -36 72q-39 30 -140 68q-235 80 -235 246q0 10 1 20q10 106 103.5 168t222.5 62q113 0 258 -60l-47 -114q-114 57 -217 57q-70 0 -124.5 -28.5t-60.5 -86.5v-8q0 -45 40 -75 q44 -33 126 -60q120 -35 186 -105q58 -62 57 -144q0 -11 -1 -23q-11 -120 -102 -174t-236 -54q-99 0 -178 26.5t-117 53.5z" />
<glyph unicode="t" horiz-adv-x="593" d="M84 705v14l43 102h119l41 287q67 15 135 27h12l-43 -314h207l-16 -116h-207l-68 -494q-1 -9 -2 -17q-1 -39 27 -63q32 -29 84 -29q26 0 67 13l19 -115q-66 -16 -115 -16q-119 0 -181 64q-48 51 -48 136q0 23 4 49l67 472h-145z" />
<glyph unicode="u" horiz-adv-x="976" d="M94 340l68 481h145l-65 -475q-3 -23 -4 -44q0 -34 10 -66q15 -50 47 -80t73 -46t87 -16q54 0 109.5 26t103 85.5t59.5 140.5l68 475h143l-117 -821h-78l-43 119q-45 -63 -125 -104.5t-163 -41.5q-156 0 -248 104q-74 83 -75 202q0 29 5 61z" />
<glyph unicode="v" horiz-adv-x="882" d="M80 821h151l193 -563l358 563h156l-535 -839h-26z" />
<glyph unicode="w" horiz-adv-x="1302" d="M80 821h145l135 -549l345 574h26l176 -572l299 547h150l-467 -839h-25l-182 600l-350 -600h-27z" />
<glyph unicode="x" horiz-adv-x="925" d="M18 0l385 412l-272 409h170l201 -301l286 301h173l-386 -413l273 -408h-164q-41 58 -119 171t-88 128l-282 -299h-177z" />
<glyph unicode="y" horiz-adv-x="899" d="M-4 -498l350 576l-252 743h154l194 -585l357 585h153l-800 -1339h-144z" />
<glyph unicode="z" horiz-adv-x="811" d="M8 31l578 674h-451l15 116h671l6 -30l-565 -672h463l-16 -119h-691z" />
<glyph unicode="{" horiz-adv-x="851" d="M88 522l16 119h50q51 0 89 15.5t59 36t36.5 56.5t21 62.5t11.5 67.5l35 225q65 338 342 338q56 0 126 -15q-5 -21 -17 -64t-17 -65q-41 9 -72 9q-48 0 -85 -17t-58.5 -41.5t-37.5 -61t-22.5 -66.5t-11.5 -68l-27 -193q-15 -112 -63 -185.5t-121 -103.5q63 -17 93 -83.5 t18 -151.5l-41 -291q-10 -73 28.5 -128.5t132.5 -55.5q34 0 54 4l6 -129q-62 -10 -103 -10q-146 0 -219 90.5t-57 212.5l41 299q13 89 -25 141.5t-131 52.5h-51z" />
<glyph unicode="|" horiz-adv-x="532" d="M205 -268v1732h143v-1732h-143z" />
<glyph unicode="}" horiz-adv-x="851" d="M12 -260q5 21 17.5 64.5t17.5 64.5q36 -8 72 -8q48 0 85 17t58.5 41.5t37.5 61t22.5 66.5t11.5 68l26 192q15 112 63.5 185.5t121.5 103.5q-63 17 -93 83.5t-18 151.5l41 291q10 73 -29 129t-133 56q-33 0 -53 -4l-6 129q62 10 102 10q146 0 219.5 -90.5t57.5 -212.5 l-41 -299q-13 -89 25 -142t131 -53h51l-17 -119h-49q-51 0 -88.5 -15t-59 -36t-37 -56.5t-21 -62t-11.5 -67.5l-35 -226q-65 -337 -342 -337q-61 0 -127 14z" />
<glyph unicode="~" horiz-adv-x="790" d="M74 418q42 190 219 190q43 0 120.5 -30.5t112.5 -30.5q42 0 70 12t53 45l76 -14q-11 -54 -35 -93.5t-55.5 -60.5t-63 -30t-65.5 -9q-44 0 -122 32t-112 32q-43 0 -71.5 -11t-50.5 -44z" />
<glyph unicode="&#xa1;" horiz-adv-x="577" d="M57 -457l207 946h74l-68 -946h-213zM215 774q4 54 42.5 88.5t92.5 34.5q53 0 87 -36t30 -91q-5 -54 -42 -90.5t-91 -36.5t-88.5 38t-30.5 93z" />
<glyph unicode="&#xa2;" horiz-adv-x="876" d="M82 659q0 195 114.5 322.5t297.5 146.5l36 267h129l-36 -269q76 -12 143.5 -48.5t110.5 -88.5l-93 -94q-38 52 -97.5 87.5t-137.5 35.5q-136 0 -232 -98.5t-96 -243.5q0 -128 82.5 -212.5t206.5 -84.5q72 0 136.5 28.5t109.5 69.5l73 -86q-135 -129 -329 -129l-35 -262 h-129l39 276q-132 35 -212.5 140.5t-80.5 242.5z" />
<glyph unicode="&#xa3;" horiz-adv-x="1048" d="M39 0l2 123q116 -4 199.5 42.5t116.5 124.5t10 169h-197l16 127h158q-10 28 -36 91.5t-42 106.5t-26 107t-2 121q23 172 134 261t279 89q104 0 199.5 -51t132.5 -123l-106 -78q-31 50 -98 87.5t-136 37.5q-100 0 -171 -57.5t-87 -171.5q-11 -73 9.5 -147t56 -151.5 t45.5 -121.5h229l-18 -127h-189q11 -68 -4.5 -147.5t-69.5 -141.5q41 -40 82.5 -55t108.5 -15q78 0 151 40.5t109 95.5l90 -89q-57 -94 -156.5 -135t-199.5 -41q-29 0 -54.5 1.5t-48 6t-39.5 8t-35 11t-28 11t-26 13.5t-20.5 13t-19.5 14t-16 12q-35 -21 -73 -35t-74.5 -19 t-62.5 -6.5t-56.5 -1t-36.5 0.5z" />
<glyph unicode="&#xa4;" horiz-adv-x="1222" d="M117 319l137 123q-72 111 -72 246q0 183 119 326q-8 8 -46 52t-60 67q34 30 110 94l103 -115q132 92 280 92q154 0 283 -98l129 121l94 -105l-133 -123q72 -123 72 -247q0 -190 -117 -330l100 -111q-14 -12 -48.5 -45.5t-55.5 -50.5l-101 111q-134 -88 -284 -88 q-151 0 -281 98l-133 -123zM319 696q0 -132 91 -231.5t225 -99.5q99 0 183 54t130.5 139.5t46.5 180.5q0 134 -90 235t-227 101q-142 0 -244.5 -105.5t-111.5 -246.5q0 -4 -1.5 -13.5t-1.5 -13.5z" />
<glyph unicode="&#xa5;" horiz-adv-x="1140" d="M162 389l16 121h328l22 143h-329l16 121h258l-299 559h166l285 -530l436 530h174l-461 -559h254l-16 -121h-330l-20 -143h327l-16 -121h-328l-53 -389h-156l53 389h-327z" />
<glyph unicode="&#xa6;" horiz-adv-x="532" d="M205 -268v694h143v-694h-143zM205 770v694h143v-694h-143z" />
<glyph unicode="&#xa7;" horiz-adv-x="880" d="M-8 -184l65 116q161 -100 281 -100q86 0 149 39t72 113q14 124 -178 235q-61 28 -107.5 59t-89.5 74t-62.5 99t-12.5 120q11 81 65 147t141 91q-132 106 -114 264q14 137 116.5 213t247.5 76q170 0 299 -90l-57 -123q-136 90 -246 90q-81 0 -142 -46t-71 -118 q-9 -66 35 -122.5t119 -94.5q168 -72 239 -162.5t54 -212.5q-10 -82 -68 -146t-131 -83q55 -46 90.5 -116.5t28.5 -147.5q-14 -141 -120 -214t-267 -73q-111 0 -204 38t-132 75zM260 561q-5 -67 53 -125.5t144 -97.5q29 3 57 12t57.5 26.5t49.5 50t24 75.5q6 63 -44 124.5 t-152 102.5q-66 -2 -124 -43t-65 -125z" />
<glyph unicode="&#xa8;" horiz-adv-x="608" d="M135 1083q5 43 35.5 72t71.5 29t70.5 -30.5t25.5 -72.5q-3 -44 -34 -72t-73 -28t-70.5 29.5t-25.5 72.5zM444 1083q3 42 34 71.5t71 29.5q42 0 72 -30.5t26 -72.5q-4 -44 -34.5 -72t-73.5 -28q-41 0 -69.5 29.5t-25.5 72.5z" />
<glyph unicode="&#xa9;" horiz-adv-x="1617" d="M111 717q0 152 55 289t151 237.5t234 159.5t297 59q158 0 296 -59t234.5 -159.5t151.5 -237.5t55 -289q0 -151 -55 -287.5t-151.5 -236.5t-234.5 -159t-296 -59q-159 0 -297 59t-234 159t-151 236t-55 288zM217 717q0 -177 80.5 -325.5t226 -237t324.5 -88.5t325.5 88.5 t228 237t81.5 325.5t-81.5 326t-228 238t-325.5 89q-135 0 -253 -52t-200.5 -140.5t-130 -208.5t-47.5 -252zM494 717q0 154 103.5 263.5t274.5 109.5q78 0 152 -32t121 -77l-66 -82q-93 86 -202 86q-117 0 -185.5 -79.5t-68.5 -190.5q0 -110 72 -188t182 -78q123 0 210 83 l68 -69q-56 -64 -134 -91.5t-151 -27.5q-169 0 -272.5 112t-103.5 261z" />
<glyph unicode="&#xaa;" horiz-adv-x="710" d="M147 1147q11 88 81.5 142t185.5 54q51 0 96.5 -11.5t65 -21t51.5 -28.5l8 35q10 43 -4 88.5t-57 80t-107 34.5q-85 0 -154 -37l-41 84q105 51 211 49q60 -1 112 -21t90.5 -58t56 -98.5t6.5 -135.5l-56 -375h-57l-41 80q-22 -37 -81 -68t-136 -31q-115 0 -178.5 70.5 t-51.5 167.5zM264 1137q-8 -65 35.5 -99t101.5 -34q68 0 124.5 36t72.5 68l16 86q-31 21 -43.5 29t-52.5 20t-86 12q-64 0 -112 -29.5t-56 -88.5z" />
<glyph unicode="&#xab;" horiz-adv-x="1075" d="M70 387l4 23l469 454l96 -90l-401 -385l286 -342l-102 -82zM453 387l4 23l469 454l96 -90l-401 -385l286 -342l-102 -82z" />
<glyph unicode="&#xac;" horiz-adv-x="948" d="M98 442q2 10 19 127h753q-15 -111 -39 -270h-133q11 64 21 143h-621z" />
<glyph unicode="&#xad;" horiz-adv-x="686" d="M90 381l21 143l503 78l-22 -145z" />
<glyph unicode="&#xae;" horiz-adv-x="1617" d="M111 717q0 152 55 289t151 237.5t234 159.5t297 59q158 0 296 -59t234.5 -159.5t151.5 -237.5t55 -289q0 -151 -55 -287.5t-151.5 -236.5t-234.5 -159t-296 -59q-159 0 -297 59t-234 159t-151 236t-55 288zM217 717q0 -177 80.5 -325.5t226 -237t324.5 -88.5t325.5 88.5 t228 237t81.5 325.5t-81.5 326t-228 238t-325.5 89q-135 0 -253 -52t-200.5 -140.5t-130 -208.5t-47.5 -252zM627 362v715q93 19 164 19q150 0 238.5 -67.5t88.5 -176.5q0 -64 -34.5 -116t-84.5 -83q32 -55 92.5 -154t82.5 -137h-138l-145 252q-31 -8 -76 -8q-42 0 -72 6 v-250h-116zM743 713q35 -6 62 -6q89 0 140.5 41.5t51.5 103.5q0 63 -51.5 99t-138.5 36q-41 0 -64 -4v-270z" />
<glyph unicode="&#xaf;" horiz-adv-x="579" d="M137 1026l17 111h450l-16 -111h-451z" />
<glyph unicode="&#xb0;" horiz-adv-x="684" d="M143 1159q12 133 106 220t218 87q125 0 209 -87.5t74 -219.5q-12 -133 -102 -218t-224 -85t-213.5 85.5t-67.5 217.5zM258 1159q-8 -85 39.5 -141.5t130.5 -56.5q84 0 140.5 56t64.5 142q9 86 -38 142.5t-132 56.5q-81 0 -137.5 -56.5t-67.5 -142.5z" />
<glyph unicode="&#xb1;" horiz-adv-x="950" d="M82 283l16 120h754l-16 -120h-754zM147 752l17 120h309l33 222h133l-33 -222h314l-19 -120h-311l-31 -222h-133l31 222h-310z" />
<glyph unicode="&#xb2;" horiz-adv-x="647" d="M125 938q27 21 80.5 61.5t76.5 58.5t65.5 51t61 50.5t48.5 44.5t43.5 45t30 40.5t23.5 42.5t9 40q7 63 -22.5 102.5t-73.5 47t-91.5 -13t-72.5 -66.5h-14l-60 53q29 50 76 80.5t98 38.5t102.5 -4t90 -41.5t59.5 -80.5t13 -114q-3 -24 -9 -46.5t-18.5 -45.5t-22.5 -40.5 t-32 -41.5t-34 -37.5t-41.5 -39.5t-42.5 -37t-48.5 -41t-48.5 -41h274l-12 -91h-502z" />
<glyph unicode="&#xb3;" horiz-adv-x="647" d="M152 950l32 82h23q76 -45 160 -45q66 0 117 34.5t59 100.5q8 72 -56 118t-168 17l-14 21l213 233h-274l12 88h432l8 -24l-219 -244q74 -6 126 -63.5t48 -149.5q-6 -97 -84.5 -161t-206.5 -64q-110 0 -208 57z" />
<glyph unicode="&#xb4;" horiz-adv-x="423" d="M129 952l125 256h201l-2 -24l-226 -232h-98z" />
<glyph unicode="&#xb5;" horiz-adv-x="1021" d="M18 -518l189 1339h147l-69 -475q-14 -94 51 -173t166 -79q55 0 110 25.5t101.5 85t58.5 141.5l68 475h143l-117 -821h-75q-32 78 -46 119q-42 -65 -120 -104.5t-158 -39.5q-151 0 -221 93l-80 -560l-135 -26h-13z" />
<glyph unicode="&#xb6;" horiz-adv-x="1056" d="M164 1036q26 186 173.5 293t356.5 107h430l-18 -129h-125l-221 -1575h-137l223 1575h-96l-226 -1575h-133l121 858q-76 13 -143.5 50t-118 93t-75 135.5t-11.5 167.5z" />
<glyph unicode="&#xb7;" horiz-adv-x="477" d="M123 520q5 54 43 90.5t90 36.5q54 0 89 -38t32 -93q-4 -54 -42.5 -88.5t-92.5 -34.5t-88 36t-31 91z" />
<glyph unicode="&#xb8;" horiz-adv-x="464" d="M-55 -348l22 115q34 -11 71 -12.5t72.5 6.5t60.5 33t30 65q7 47 -14 86t-54 55l2 14l60 23q48 -7 93.5 -69t35.5 -136q-8 -67 -47 -114t-94 -67t-117.5 -20t-120.5 21z" />
<glyph unicode="&#xb9;" horiz-adv-x="481" d="M211 1491l250 127h22l-100 -705h-102l77 557l-106 -55z" />
<glyph unicode="&#xba;" horiz-adv-x="749" d="M188 1262q14 154 107 255t229 101q137 0 214.5 -102t62.5 -254q-15 -153 -106.5 -253t-229.5 -100q-136 0 -214 101.5t-63 251.5zM301 1262q-4 -43 3 -86.5t25 -83t54 -64t84 -24.5q65 0 114.5 43t72.5 99t30 116q5 46 -1 90.5t-23.5 84.5t-53 64.5t-84.5 24.5 q-50 0 -91 -24.5t-67.5 -64.5t-42 -84.5t-20.5 -90.5z" />
<glyph unicode="&#xbb;" horiz-adv-x="1075" d="M51 53l402 385l-287 342l102 82l353 -422l-5 -22l-469 -455zM436 53l402 385l-287 342l102 82l353 -422l-5 -22l-469 -455z" />
<glyph unicode="&#xbc;" horiz-adv-x="1490" d="M139 18l1268 1418l63 -58l-1269 -1417zM223 1286l250 127h23l-101 -704h-102l78 557l-107 -56zM739 147l514 560l33 -15l-69 -493h94l-13 -86h-92l-16 -113h-105l17 113h-342zM905 199h209l41 282z" />
<glyph unicode="&#xbd;" horiz-adv-x="1558" d="M139 18l1268 1418l63 -58l-1269 -1417zM223 1286l250 127h23l-101 -704h-102l78 557l-107 -56zM860 25q27 21 80.5 61.5t76.5 58.5t65.5 51t61 50.5t48.5 44.5t43.5 45t30 40.5t23.5 42.5t9 40q7 63 -22.5 102.5t-73.5 46.5t-91.5 -13.5t-72.5 -66.5h-14l-59 54 q29 50 76 80.5t98 38.5t102 -4t89.5 -41.5t59.5 -80.5t13 -114q-3 -24 -8.5 -46.5t-19 -46t-22.5 -40t-32 -41.5t-34 -37.5t-42 -40t-42 -37.5t-48.5 -41.5t-48.5 -40.5h274l-12 -90h-502z" />
<glyph unicode="&#xbe;" horiz-adv-x="1564" d="M147 745l33 82h23q76 -45 159 -45q66 0 117.5 35t59.5 101q8 72 -56 118t-168 17l-14 20l213 234h-274l12 88h432l8 -25l-219 -244q74 -6 126 -63.5t48 -149.5q-6 -97 -84.5 -161t-206.5 -64q-111 0 -209 57zM213 18l1268 1418l63 -58l-1270 -1417zM815 147l514 560 l33 -15l-70 -493h94l-12 -86h-92l-16 -113h-105l17 113h-342zM981 199h209l41 282z" />
<glyph unicode="&#xbf;" horiz-adv-x="698" d="M-51 -182q0 72 20.5 130t53.5 98t74 75t83.5 70.5t79 74.5t64 96t36.5 127h109q8 -68 -8 -129.5t-46.5 -108t-70 -89t-80 -80.5t-74.5 -75t-55.5 -80t-21.5 -87q0 -87 53.5 -137.5t132.5 -50.5q76 0 127.5 34t95.5 93l103 -82q-122 -180 -336 -180q-138 0 -239 84 t-101 217zM324 764q0 57 39 95t96 38q50 0 83 -32t33 -83v-12q-5 -54 -43 -90.5t-90 -36.5q-51 0 -84.5 35t-33.5 86z" />
<glyph unicode="&#xc0;" horiz-adv-x="1294" d="M-53 0l837 1456h27l424 -1456h-162l-98 354h-656l-202 -354h-170zM385 479h553l-184 660zM535 1765v25h200l107 -256h-99z" />
<glyph unicode="&#xc1;" horiz-adv-x="1294" d="M-53 0l837 1456h27l424 -1456h-162l-98 354h-656l-202 -354h-170zM385 479h553l-184 660zM760 1534l125 256h200l-2 -25l-225 -231h-98z" />
<glyph unicode="&#xc2;" horiz-adv-x="1294" d="M-53 0l837 1456h27l424 -1456h-162l-98 354h-656l-202 -354h-170zM385 479h553l-184 660zM567 1534q38 47 104.5 134.5t92.5 121.5h160l131 -256h-103l-123 129l-155 -129h-107z" />
<glyph unicode="&#xc3;" horiz-adv-x="1294" d="M-53 0l837 1456h27l424 -1456h-162l-98 354h-656l-202 -354h-170zM385 479h553l-184 660zM541 1597q17 77 63 116.5t107 39.5q43 0 110 -28.5t94 -28.5q33 0 52 11t39 38l65 -25q-17 -76 -64.5 -116.5t-111.5 -40.5q-39 0 -106.5 28.5t-92.5 28.5q-34 0 -51.5 -10.5 t-36.5 -40.5z" />
<glyph unicode="&#xc4;" horiz-adv-x="1294" d="M-53 0l837 1456h27l424 -1456h-162l-98 354h-656l-202 -354h-170zM385 479h553l-184 660zM567 1665q5 43 35.5 71.5t71.5 28.5t70.5 -30t25.5 -72q-3 -44 -33.5 -72t-72.5 -28t-71 29.5t-26 72.5zM877 1665q3 42 33.5 71t70.5 29q42 0 72 -30t26 -72q-4 -44 -34.5 -72 t-73.5 -28q-41 0 -69 29.5t-25 72.5z" />
<glyph unicode="&#xc5;" horiz-adv-x="1294" d="M-53 0l770 1352q-68 25 -105.5 84.5t-31.5 138.5q11 99 82 165t167 66q97 0 162 -67t56 -164q-7 -82 -61 -144.5t-132 -84.5l381 -1346h-162l-98 354h-656l-202 -354h-170zM385 479h553l-178 670zM680 1575q-6 -58 27 -99.5t90 -41.5q58 0 101 41.5t48 99.5 q6 58 -28 97.5t-93 39.5q-58 0 -98.5 -39.5t-46.5 -97.5z" />
<glyph unicode="&#xc6;" horiz-adv-x="1906" d="M-94 0l1280 1438h723l-17 -129h-598l-57 -414h479l-18 -129h-479l-91 -637h629l-18 -129h-783l50 352h-590l-320 -352h-190zM524 481h500l100 678z" />
<glyph unicode="&#xc7;" horiz-adv-x="1415" d="M100 731q13 164 82 303.5t175.5 233t244.5 146t289 52.5q101 0 195.5 -23t164.5 -61t120.5 -76.5t84.5 -78.5l-94 -109q-84 86 -204.5 149.5t-264.5 63.5q-159 0 -297.5 -75t-229 -213.5t-104.5 -313.5q-9 -121 30.5 -235.5t114 -199.5t184 -136.5t234.5 -51.5 q244 0 428 156l80 -110q-93 -80 -207.5 -128.5t-291.5 -52.5q47 -64 38 -139q-8 -67 -47 -114t-93.5 -67t-117 -20t-120.5 21l22 115q34 -11 71 -12.5t72.5 6.5t60.5 33t30 65q9 72 -37 118q-135 17 -253 82.5t-202 164t-127 231t-31 276.5z" />
<glyph unicode="&#xc8;" horiz-adv-x="1052" d="M102 0l201 1438h752l-19 -129h-596l-59 -422h481l-18 -129h-479l-91 -629h629l-18 -129h-783zM485 1765v25h201l107 -256h-99z" />
<glyph unicode="&#xc9;" horiz-adv-x="1052" d="M102 0l201 1438h752l-19 -129h-596l-59 -422h481l-18 -129h-479l-91 -629h629l-18 -129h-783zM571 1534l125 256h201l-2 -25l-225 -231h-99z" />
<glyph unicode="&#xca;" horiz-adv-x="1052" d="M102 0l201 1438h752l-19 -129h-596l-59 -422h481l-18 -129h-479l-91 -629h629l-18 -129h-783zM453 1534q37 46 102.5 133.5t93.5 122.5h160l131 -256h-102l-123 129l-156 -129h-106z" />
<glyph unicode="&#xcb;" horiz-adv-x="1052" d="M102 0l201 1438h752l-19 -129h-596l-59 -422h481l-18 -129h-479l-91 -629h629l-18 -129h-783zM453 1665q5 43 35 71.5t71 28.5t70.5 -30t25.5 -72q-3 -44 -33.5 -72t-72.5 -28t-70.5 29.5t-25.5 72.5zM762 1665q3 42 33.5 71t70.5 29q42 0 72.5 -30t26.5 -72 q-4 -44 -35 -72t-74 -28q-41 0 -69 29.5t-25 72.5z" />
<glyph unicode="&#xcc;" horiz-adv-x="481" d="M102 0l201 1438h156l-201 -1438h-156zM133 1765v25h201l106 -256h-98z" />
<glyph unicode="&#xcd;" horiz-adv-x="481" d="M102 0l201 1438h156l-201 -1438h-156zM326 1534l125 256h200l-2 -25l-225 -231h-98z" />
<glyph unicode="&#xce;" horiz-adv-x="481" d="M102 0l201 1438h156l-201 -1438h-156zM143 1534q38 47 104.5 134.5t92.5 121.5h160l131 -256h-103q-25 25 -68.5 71.5t-53.5 57.5l-156 -129h-107z" />
<glyph unicode="&#xcf;" horiz-adv-x="481" d="M102 0l201 1438h156l-201 -1438h-156zM152 1665q5 43 35 71.5t71 28.5t70.5 -30t25.5 -72q-3 -44 -33.5 -72t-72.5 -28t-70.5 29.5t-25.5 72.5zM461 1665q3 42 33.5 71t70.5 29q42 0 72.5 -30t26.5 -72q-4 -44 -35 -72t-74 -28q-41 0 -69 29.5t-25 72.5z" />
<glyph unicode="&#xd0;" horiz-adv-x="1402" d="M35 649l16 127h203l94 660q189 33 336.5 20t258 -47t188 -99t128 -135t77 -155t35 -159t3.5 -146q-5 -71 -24.5 -142t-60 -155.5t-103.5 -153t-157 -134t-220 -99.5t-291 -49t-371 18l91 649h-203zM322 125q365 -43 610.5 119t279.5 471q12 106 -9 203t-75.5 178.5 t-143 136t-212.5 76.5t-285 0l-75 -533h379l-17 -127h-381z" />
<glyph unicode="&#xd1;" horiz-adv-x="1294" d="M102 0l203 1442l25 14l704 -612l82 594h152l-201 -1438h-152l93 659l-588 510l-166 -1169h-152zM545 1597q17 77 63 116.5t107 39.5q43 0 110.5 -28.5t94.5 -28.5q33 0 51 11t39 38l65 -25q-17 -76 -64.5 -116.5t-111.5 -40.5q-39 0 -106.5 28.5t-92.5 28.5 q-34 0 -51.5 -10.5t-36.5 -40.5z" />
<glyph unicode="&#xd2;" horiz-adv-x="1619" d="M121 719q14 211 119 381.5t278 268t381 97.5q154 0 288.5 -58t227 -157.5t141.5 -239t39 -296.5q-15 -210 -119 -379.5t-278 -267t-385 -97.5q-152 0 -285.5 57.5t-226.5 157t-142 238.5t-38 295zM283 717q-9 -130 29 -244t111 -193t175.5 -124t218.5 -45q156 0 292 75.5 t224.5 215.5t100.5 315q12 173 -56 314.5t-195 220.5t-284 79q-242 0 -419.5 -173.5t-196.5 -440.5zM659 1765v25h201l107 -256h-99z" />
<glyph unicode="&#xd3;" horiz-adv-x="1619" d="M121 719q14 211 119 381.5t278 268t381 97.5q154 0 288.5 -58t227 -157.5t141.5 -239t39 -296.5q-15 -210 -119 -379.5t-278 -267t-385 -97.5q-152 0 -285.5 57.5t-226.5 157t-142 238.5t-38 295zM283 717q-9 -130 29 -244t111 -193t175.5 -124t218.5 -45q156 0 292 75.5 t224.5 215.5t100.5 315q12 173 -56 314.5t-195 220.5t-284 79q-242 0 -419.5 -173.5t-196.5 -440.5zM870 1534l125 256h201l-2 -25l-225 -231h-99z" />
<glyph unicode="&#xd4;" horiz-adv-x="1619" d="M121 719q14 211 119 381.5t278 268t381 97.5q154 0 288.5 -58t227 -157.5t141.5 -239t39 -296.5q-15 -210 -119 -379.5t-278 -267t-385 -97.5q-152 0 -285.5 57.5t-226.5 157t-142 238.5t-38 295zM283 717q-9 -130 29 -244t111 -193t175.5 -124t218.5 -45q156 0 292 75.5 t224.5 215.5t100.5 315q12 173 -56 314.5t-195 220.5t-284 79q-242 0 -419.5 -173.5t-196.5 -440.5zM684 1534q38 47 104.5 134.5t92.5 121.5h159l131 -256h-102q-19 19 -39.5 40.5t-45 48t-38.5 40.5l-155 -129h-107z" />
<glyph unicode="&#xd5;" horiz-adv-x="1619" d="M121 719q14 211 119 381.5t278 268t381 97.5q154 0 288.5 -58t227 -157.5t141.5 -239t39 -296.5q-15 -210 -119 -379.5t-278 -267t-385 -97.5q-152 0 -285.5 57.5t-226.5 157t-142 238.5t-38 295zM283 717q-9 -130 29 -244t111 -193t175.5 -124t218.5 -45q156 0 292 75.5 t224.5 215.5t100.5 315q12 173 -56 314.5t-195 220.5t-284 79q-242 0 -419.5 -173.5t-196.5 -440.5zM682 1597q17 77 63 116.5t107 39.5q43 0 110.5 -28.5t94.5 -28.5q33 0 51 11t39 38l65 -25q-17 -76 -64.5 -116.5t-111.5 -40.5q-39 0 -106 28.5t-92 28.5 q-34 0 -51.5 -10.5t-36.5 -40.5z" />
<glyph unicode="&#xd6;" horiz-adv-x="1619" d="M121 719q14 211 119 381.5t278 268t381 97.5q154 0 288.5 -58t227 -157.5t141.5 -239t39 -296.5q-15 -210 -119 -379.5t-278 -267t-385 -97.5q-152 0 -285.5 57.5t-226.5 157t-142 238.5t-38 295zM283 717q-9 -130 29 -244t111 -193t175.5 -124t218.5 -45q156 0 292 75.5 t224.5 215.5t100.5 315q12 173 -56 314.5t-195 220.5t-284 79q-242 0 -419.5 -173.5t-196.5 -440.5zM692 1665q5 43 35.5 71.5t71.5 28.5t70.5 -30t25.5 -72q-3 -44 -34 -72t-73 -28t-70.5 29.5t-25.5 72.5zM1001 1665q3 42 34 71t71 29q42 0 72 -30t26 -72 q-4 -44 -34.5 -72t-73.5 -28q-41 0 -69.5 29.5t-25.5 72.5z" />
<glyph unicode="&#xd7;" horiz-adv-x="925" d="M125 446l285 252l-209 254l100 86l207 -250l283 250l79 -92l-284 -254l211 -252l-101 -88l-209 252l-278 -250z" />
<glyph unicode="&#xd8;" horiz-adv-x="1622" d="M119 719q15 211 120.5 381.5t279 268t382.5 97.5q191 0 352 -90l166 238l99 -62l-168 -243q125 -101 190 -256.5t53 -337.5q-11 -157 -75.5 -294.5t-166.5 -236.5t-243 -156t-299 -57q-184 0 -328 78l-198 -285l-95 68l193 279q-136 101 -205.5 260t-56.5 348zM281 717 q-12 -150 38.5 -274t147.5 -205l707 1017q-127 76 -277 76q-157 0 -293 -77.5t-223 -219t-100 -317.5zM563 170q112 -59 250 -59q155 0 291.5 75.5t225.5 215.5t102 315q9 142 -36.5 261.5t-133.5 203.5z" />
<glyph unicode="&#xd9;" horiz-adv-x="1257" d="M141 343q-8 80 2 169l131 926h158l-131 -926q-25 -180 54.5 -291.5t234.5 -111.5t257.5 109.5t129.5 293.5l131 926h158l-131 -926q-13 -90 -40.5 -169t-73.5 -148t-107 -118t-145 -77.5t-183 -28.5q-98 0 -179 28t-134 78t-88.5 118t-43.5 148zM526 1765v25h201 l107 -256h-99z" />
<glyph unicode="&#xda;" horiz-adv-x="1257" d="M141 343q-8 80 2 169l131 926h158l-131 -926q-25 -180 54.5 -291.5t234.5 -111.5t257.5 109.5t129.5 293.5l131 926h158l-131 -926q-13 -90 -40.5 -169t-73.5 -148t-107 -118t-145 -77.5t-183 -28.5q-98 0 -179 28t-134 78t-88.5 118t-43.5 148zM694 1534l125 256h201 l-2 -25l-225 -231h-99z" />
<glyph unicode="&#xdb;" horiz-adv-x="1257" d="M141 343q-8 80 2 169l131 926h158l-131 -926q-25 -180 54.5 -291.5t234.5 -111.5t257.5 109.5t129.5 293.5l131 926h158l-131 -926q-13 -90 -40.5 -169t-73.5 -148t-107 -118t-145 -77.5t-183 -28.5q-98 0 -179 28t-134 78t-88.5 118t-43.5 148zM528 1534 q38 47 104.5 134.5t92.5 121.5h160l131 -256h-103q-25 25 -68.5 71.5t-53.5 57.5l-156 -129h-107z" />
<glyph unicode="&#xdc;" horiz-adv-x="1257" d="M141 343q-8 80 2 169l131 926h158l-131 -926q-25 -180 54.5 -291.5t234.5 -111.5t257.5 109.5t129.5 293.5l131 926h158l-131 -926q-13 -90 -40.5 -169t-73.5 -148t-107 -118t-145 -77.5t-183 -28.5q-98 0 -179 28t-134 78t-88.5 118t-43.5 148zM535 1665q5 43 35 71.5 t71 28.5t70.5 -30t25.5 -72q-3 -44 -33.5 -72t-72.5 -28t-70.5 29.5t-25.5 72.5zM844 1665q3 42 33.5 71t70.5 29q42 0 72.5 -30t26.5 -72q-4 -44 -35 -72t-74 -28q-41 0 -69 29.5t-25 72.5z" />
<glyph unicode="&#xdd;" horiz-adv-x="1153" d="M178 1438h172l291 -559l449 559h180l-570 -719l-102 -719h-156l101 719zM645 1534l125 256h201l-2 -25l-226 -231h-98z" />
<glyph unicode="&#xde;" horiz-adv-x="1062" d="M115 0l200 1438h156l-29 -219q23 2 68 2q153 0 274 -54t192 -159.5t71 -245.5q0 -172 -87 -296t-236 -185.5t-343 -61.5q-53 0 -80 2l-29 -221h-157zM326 362q54 -4 80 -4q222 0 355.5 104.5t133.5 276.5q0 153 -102 250.5t-287 97.5q-24 0 -82 -4z" />
<glyph unicode="&#xdf;" horiz-adv-x="927" d="M86 0l160 1151q22 149 101.5 232t215.5 83q131 0 212 -84t83 -194l-248 -414q128 -19 210.5 -131.5t72.5 -263.5q-12 -176 -130.5 -289t-295.5 -113q-100 0 -158 17l35 117q49 -17 113 -17q121 0 203.5 83t91.5 214q8 134 -80.5 223.5t-225.5 77.5l-18 29l277 465 q3 61 -39.5 106t-108.5 45q-65 0 -110.5 -49.5t-57.5 -136.5l-162 -1151h-141z" />
<glyph unicode="&#xe0;" d="M68 242q3 125 97 205.5t247 80.5q86 0 174.5 -37t124.5 -81l6 43q8 71 -11 131t-75 100.5t-142 40.5q-106 0 -200 -53l-53 106q54 32 129 50.5t149 17.5q76 -2 140.5 -27.5t113.5 -73.5t73 -125.5t15 -175.5l-63 -444h-80l-35 106q-48 -59 -119 -96t-188 -37 q-141 0 -223 81.5t-80 187.5zM207 252q-6 -70 54 -121t140 -51q112 0 195.5 65.5t97.5 157.5l2 8q-39 44 -112 77t-158 32q-97 0 -154 -47t-65 -121zM315 1184v24h201l107 -256h-99z" />
<glyph unicode="&#xe1;" d="M68 242q3 125 97 205.5t247 80.5q86 0 174.5 -37t124.5 -81l6 43q8 71 -11 131t-75 100.5t-142 40.5q-106 0 -200 -53l-53 106q54 32 129 50.5t149 17.5q76 -2 140.5 -27.5t113.5 -73.5t73 -125.5t15 -175.5l-63 -444h-80l-35 106q-48 -59 -119 -96t-188 -37 q-141 0 -223 81.5t-80 187.5zM207 252q-6 -70 54 -121t140 -51q112 0 195.5 65.5t97.5 157.5l2 8q-39 44 -112 77t-158 32q-97 0 -154 -47t-65 -121zM418 952l125 256h200l-2 -24l-225 -232h-98z" />
<glyph unicode="&#xe2;" d="M68 242q3 125 97 205.5t247 80.5q86 0 174.5 -37t124.5 -81l6 43q8 71 -11 131t-75 100.5t-142 40.5q-106 0 -200 -53l-53 106q54 32 129 50.5t149 17.5q76 -2 140.5 -27.5t113.5 -73.5t73 -125.5t15 -175.5l-63 -444h-80l-35 106q-48 -59 -119 -96t-188 -37 q-141 0 -223 81.5t-80 187.5zM207 252q-6 -70 54 -121t140 -51q112 0 195.5 65.5t97.5 157.5l2 8q-39 44 -112 77t-158 32q-97 0 -154 -47t-65 -121zM305 952q38 47 104.5 134.5t92.5 121.5h160l131 -256h-103q-19 19 -39.5 40.5t-45 48t-38.5 40.5l-155 -129h-107z" />
<glyph unicode="&#xe3;" d="M68 242q3 125 97 205.5t247 80.5q86 0 174.5 -37t124.5 -81l6 43q8 71 -11 131t-75 100.5t-142 40.5q-106 0 -200 -53l-53 106q54 32 129 50.5t149 17.5q76 -2 140.5 -27.5t113.5 -73.5t73 -125.5t15 -175.5l-63 -444h-80l-35 106q-48 -59 -119 -96t-188 -37 q-141 0 -223 81.5t-80 187.5zM207 252q-6 -70 54 -121t140 -51q112 0 195.5 65.5t97.5 157.5l2 8q-39 44 -112 77t-158 32q-97 0 -154 -47t-65 -121zM309 1016q17 76 63 115.5t107 39.5q43 0 110.5 -28.5t94.5 -28.5q33 0 51 11t39 38l66 -24q-17 -76 -64.5 -117t-111.5 -41 q-39 0 -106.5 28.5t-92.5 28.5q-34 0 -51.5 -10.5t-36.5 -40.5z" />
<glyph unicode="&#xe4;" d="M68 242q3 125 97 205.5t247 80.5q86 0 174.5 -37t124.5 -81l6 43q8 71 -11 131t-75 100.5t-142 40.5q-106 0 -200 -53l-53 106q54 32 129 50.5t149 17.5q76 -2 140.5 -27.5t113.5 -73.5t73 -125.5t15 -175.5l-63 -444h-80l-35 106q-48 -59 -119 -96t-188 -37 q-141 0 -223 81.5t-80 187.5zM207 252q-6 -70 54 -121t140 -51q112 0 195.5 65.5t97.5 157.5l2 8q-39 44 -112 77t-158 32q-97 0 -154 -47t-65 -121zM303 1083q5 43 35.5 72t71.5 29t70.5 -30.5t25.5 -72.5q-3 -44 -34 -72t-73 -28t-70.5 29.5t-25.5 72.5zM612 1083 q3 42 34 71.5t71 29.5q42 0 72 -30.5t26 -72.5q-4 -44 -34.5 -72t-73.5 -28q-41 0 -69.5 29.5t-25.5 72.5z" />
<glyph unicode="&#xe5;" d="M68 242q3 125 97 205.5t247 80.5q86 0 174.5 -37t124.5 -81l6 43q8 71 -11 131t-75 100.5t-142 40.5q-106 0 -200 -53l-53 106q69 39 151 56q-54 67 -45 157q11 100 81.5 167t166.5 67q98 0 162.5 -68t54.5 -166q-4 -59 -34.5 -109t-78.5 -83q84 -45 128.5 -135.5 t33.5 -219.5l-63 -444h-80l-35 106q-48 -59 -119 -96t-188 -37q-141 0 -223 81.5t-80 187.5zM207 252q-6 -70 54 -121t140 -51q112 0 195.5 65.5t97.5 157.5l2 8q-39 44 -112 77t-158 32q-97 0 -154 -47t-65 -121zM442 991q-6 -58 27 -99.5t90 -41.5q58 0 101 41.5t49 99.5 q5 58 -29 97.5t-92 39.5t-99.5 -39.5t-46.5 -97.5z" />
<glyph unicode="&#xe6;" horiz-adv-x="1568" d="M68 242q3 125 97 205.5t247 80.5q86 0 174.5 -37t124.5 -81l6 43q8 71 -11 131t-75 100.5t-142 40.5q-106 0 -200 -53l-53 106q54 32 129 50.5t149 17.5q99 -3 178.5 -45t122.5 -121q65 80 158.5 124t197.5 44q176 0 277.5 -124.5t83.5 -305.5h-674q-2 -12 -2 -37 q0 -132 95.5 -210.5t228.5 -78.5q137 0 250 78q12 -17 33.5 -52t27.5 -44q-120 -99 -336 -99q-128 0 -231 57t-158 154q-73 -123 -168 -168t-227 -45q-141 0 -223 81.5t-80 187.5zM207 252q-6 -70 54 -121t140 -51q112 0 195.5 65.5t97.5 157.5l2 8q-39 44 -112 77t-158 32 q-97 0 -154 -47t-65 -121zM883 520h510q0 90 -67.5 151.5t-162.5 61.5q-105 0 -185 -69.5t-95 -143.5z" />
<glyph unicode="&#xe7;" horiz-adv-x="884" d="M78 410q13 197 144.5 317.5t326.5 120.5q92 0 179.5 -41t143.5 -105l-90 -94q-37 51 -98 87t-139 36q-132 0 -224.5 -91.5t-103.5 -229.5q-9 -133 74.5 -224.5t212.5 -91.5q71 0 136 31t112 74l73 -95q-104 -104 -262 -124q51 -69 43 -148q-8 -67 -47 -114t-94 -67 t-117.5 -20t-120.5 21l23 115q34 -11 71 -12.5t72 6.5t60 33t30 65q9 70 -34 116q-173 17 -278 141.5t-93 293.5z" />
<glyph unicode="&#xe8;" d="M76 385q0 102 38 190t101 147t145.5 92.5t171.5 33.5q176 0 277.5 -124.5t83.5 -305.5h-674q-2 -12 -2 -37q0 -132 95.5 -210.5t228.5 -78.5q137 0 250 78q12 -17 33.5 -52t27.5 -44q-120 -99 -336 -99q-188 0 -314 118t-126 292zM244 520h510q0 90 -67.5 151.5 t-162.5 61.5q-105 0 -185 -69.5t-95 -143.5zM326 1184v24h200l107 -256h-98z" />
<glyph unicode="&#xe9;" d="M76 385q0 102 38 190t101 147t145.5 92.5t171.5 33.5q176 0 277.5 -124.5t83.5 -305.5h-674q-2 -12 -2 -37q0 -132 95.5 -210.5t228.5 -78.5q137 0 250 78q12 -17 33.5 -52t27.5 -44q-120 -99 -336 -99q-188 0 -314 118t-126 292zM244 520h510q0 90 -67.5 151.5 t-162.5 61.5q-105 0 -185 -69.5t-95 -143.5zM426 952l125 256h201l-2 -24l-226 -232h-98z" />
<glyph unicode="&#xea;" d="M76 385q0 102 38 190t101 147t145.5 92.5t171.5 33.5q176 0 277.5 -124.5t83.5 -305.5h-674q-2 -12 -2 -37q0 -132 95.5 -210.5t228.5 -78.5q137 0 250 78q12 -17 33.5 -52t27.5 -44q-120 -99 -336 -99q-188 0 -314 118t-126 292zM244 520h510q0 90 -67.5 151.5 t-162.5 61.5q-105 0 -185 -69.5t-95 -143.5zM291 952q37 46 102.5 133.5t93.5 122.5h160l131 -256h-102q-19 19 -39.5 40.5t-45 48t-38.5 40.5l-156 -129h-106z" />
<glyph unicode="&#xeb;" d="M76 385q0 102 38 190t101 147t145.5 92.5t171.5 33.5q176 0 277.5 -124.5t83.5 -305.5h-674q-2 -12 -2 -37q0 -132 95.5 -210.5t228.5 -78.5q137 0 250 78q12 -17 33.5 -52t27.5 -44q-120 -99 -336 -99q-188 0 -314 118t-126 292zM244 520h510q0 90 -67.5 151.5 t-162.5 61.5q-105 0 -185 -69.5t-95 -143.5zM305 1083q5 43 35.5 72t71.5 29t70.5 -30.5t25.5 -72.5q-3 -44 -34 -72t-73 -28t-70.5 29.5t-25.5 72.5zM614 1083q3 42 34 71.5t71 29.5q42 0 72 -30.5t26 -72.5q-4 -44 -34.5 -72t-73.5 -28q-41 0 -69.5 29.5t-25.5 72.5z" />
<glyph unicode="&#xec;" horiz-adv-x="430" d="M68 1184v24h200l107 -256h-99zM106 0l115 821h141l-114 -821h-142z" />
<glyph unicode="&#xed;" horiz-adv-x="430" d="M106 0l115 821h141l-114 -821h-142zM238 952l124 256h201l-2 -24l-225 -232h-98z" />
<glyph unicode="&#xee;" horiz-adv-x="430" d="M66 952q37 46 103 133.5t93 122.5h160l131 -256h-102q-19 19 -39.5 40.5t-45 48t-38.5 40.5l-156 -129h-106zM106 0l115 821h141l-114 -821h-142z" />
<glyph unicode="&#xef;" horiz-adv-x="430" d="M76 1083q5 43 35 72t71 29t71 -30.5t26 -72.5q-3 -44 -34 -72t-73 -28t-70.5 29.5t-25.5 72.5zM106 0l115 821h141l-114 -821h-142zM385 1083q3 42 33.5 71.5t70.5 29.5q42 0 72.5 -30.5t26.5 -72.5q-4 -44 -35 -72t-74 -28q-41 0 -69 29.5t-25 72.5z" />
<glyph unicode="&#xf0;" horiz-adv-x="1003" d="M78 408q12 194 142.5 317t320.5 123q197 0 278 -166q6 299 -174 479l-123 -137l-80 63l123 140q-103 77 -256 114l-14 21l49 102q179 -44 307 -139l131 145l80 -67l-127 -139q305 -289 228 -832q-33 -226 -159 -342.5t-310 -116.5q-185 0 -305.5 122t-110.5 313zM217 408 q-8 -90 30.5 -163.5t107 -113t149.5 -39.5q116 0 203 88.5t100 225.5q15 134 -65 230.5t-199 96.5q-136 0 -225 -87.5t-101 -237.5z" />
<glyph unicode="&#xf1;" horiz-adv-x="999" d="M78 0l117 821h77l43 -119q44 63 124 104.5t165 41.5q156 0 248.5 -104t69.5 -263l-68 -481h-145l65 475q9 61 -6 110.5t-47 79.5t-73 46t-87 16q-54 0 -110 -25.5t-103.5 -85t-58.5 -141.5l-68 -475h-143zM352 1016q17 76 63 115.5t107 39.5q43 0 110.5 -28.5t94.5 -28.5 q33 0 51 11t39 38l66 -24q-17 -76 -64.5 -117t-111.5 -41q-39 0 -106.5 28.5t-92.5 28.5q-34 0 -51.5 -10.5t-36.5 -40.5z" />
<glyph unicode="&#xf2;" horiz-adv-x="980" d="M78 414q9 132 74 232t165.5 151t221.5 51q86 0 162.5 -30t133 -84.5t87.5 -137.5t26 -182q-7 -132 -72 -234t-167 -154.5t-224 -52.5q-177 0 -297 122t-110 319zM219 414q-10 -140 69.5 -232t203.5 -92t214.5 91.5t100.5 232.5q9 141 -71.5 230t-203.5 89 q-125 0 -214.5 -89t-98.5 -230zM338 1184v24h201l106 -256h-98z" />
<glyph unicode="&#xf3;" horiz-adv-x="980" d="M78 414q9 132 74 232t165.5 151t221.5 51q86 0 162.5 -30t133 -84.5t87.5 -137.5t26 -182q-7 -132 -72 -234t-167 -154.5t-224 -52.5q-177 0 -297 122t-110 319zM219 414q-10 -140 69.5 -232t203.5 -92t214.5 91.5t100.5 232.5q9 141 -71.5 230t-203.5 89 q-125 0 -214.5 -89t-98.5 -230zM473 952l125 256h201l-2 -24l-226 -232h-98z" />
<glyph unicode="&#xf4;" horiz-adv-x="980" d="M78 414q9 132 74 232t165.5 151t221.5 51q86 0 162.5 -30t133 -84.5t87.5 -137.5t26 -182q-7 -132 -72 -234t-167 -154.5t-224 -52.5q-177 0 -297 122t-110 319zM219 414q-10 -140 69.5 -232t203.5 -92t214.5 91.5t100.5 232.5q9 141 -71.5 230t-203.5 89 q-125 0 -214.5 -89t-98.5 -230zM315 952q38 47 104.5 134.5t92.5 121.5h160l131 -256h-103q-25 25 -68.5 71.5t-53.5 57.5l-156 -129h-107z" />
<glyph unicode="&#xf5;" horiz-adv-x="980" d="M78 414q9 132 74 232t165.5 151t221.5 51q86 0 162.5 -30t133 -84.5t87.5 -137.5t26 -182q-7 -132 -72 -234t-167 -154.5t-224 -52.5q-177 0 -297 122t-110 319zM219 414q-10 -140 69.5 -232t203.5 -92t214.5 91.5t100.5 232.5q9 141 -71.5 230t-203.5 89 q-125 0 -214.5 -89t-98.5 -230zM309 1016q17 76 63 115.5t107 39.5q43 0 110.5 -28.5t94.5 -28.5q33 0 51 11t39 38l66 -24q-17 -76 -64.5 -117t-111.5 -41q-39 0 -106.5 28.5t-92.5 28.5q-34 0 -51.5 -10.5t-36.5 -40.5z" />
<glyph unicode="&#xf6;" horiz-adv-x="980" d="M78 414q9 132 74 232t165.5 151t221.5 51q86 0 162.5 -30t133 -84.5t87.5 -137.5t26 -182q-7 -132 -72 -234t-167 -154.5t-224 -52.5q-177 0 -297 122t-110 319zM219 414q-10 -140 69.5 -232t203.5 -92t214.5 91.5t100.5 232.5q9 141 -71.5 230t-203.5 89 q-125 0 -214.5 -89t-98.5 -230zM315 1083q5 43 35.5 72t71.5 29t70.5 -30.5t25.5 -72.5q-3 -44 -33.5 -72t-72.5 -28t-71 29.5t-26 72.5zM625 1083q3 42 33.5 71.5t70.5 29.5q42 0 72 -30.5t26 -72.5q-4 -44 -34.5 -72t-73.5 -28q-41 0 -69 29.5t-25 72.5z" />
<glyph unicode="&#xf7;" horiz-adv-x="927" d="M117 635l20 127h756l-19 -127h-757zM352 387q3 47 37 80t80 33q47 0 77 -33.5t27 -81.5q-3 -47 -37 -78t-81 -31q-46 0 -76.5 32t-26.5 79zM442 1026q3 47 37 79t80 32q47 0 77.5 -33t27.5 -80q-3 -49 -37 -80t-82 -31q-47 0 -77 32t-26 81z" />
<glyph unicode="&#xf8;" horiz-adv-x="980" d="M74 -143l143 209q-71 59 -108 147.5t-31 200.5q9 132 74 232t165.5 151t221.5 51q102 0 186 -41l125 180l86 -45l-129 -186q71 -57 109 -145t32 -197q-7 -132 -72 -234t-167 -154.5t-224 -52.5q-98 0 -186 43l-145 -211zM219 414q-12 -142 74 -234l362 522 q-54 31 -123 31q-125 0 -214.5 -89t-98.5 -230zM369 121q51 -31 123 -31q124 0 214.5 91.5t100.5 232.5q9 137 -78 227z" />
<glyph unicode="&#xf9;" horiz-adv-x="976" d="M96 334l68 487h147l-67 -475q-9 -61 6 -110.5t47 -79.5t73.5 -46t88.5 -16q54 0 109.5 26t102.5 85.5t58 140.5l68 475h143l-117 -821h-75l-46 119q-49 -65 -127 -105.5t-165 -40.5q-156 0 -246.5 101t-67.5 260zM322 1184v24h200l107 -256h-99z" />
<glyph unicode="&#xfa;" horiz-adv-x="976" d="M96 334l68 487h147l-67 -475q-9 -61 6 -110.5t47 -79.5t73.5 -46t88.5 -16q54 0 109.5 26t102.5 85.5t58 140.5l68 475h143l-117 -821h-75l-46 119q-49 -65 -127 -105.5t-165 -40.5q-156 0 -246.5 101t-67.5 260zM446 952l125 256h201l-2 -24l-225 -232h-99z" />
<glyph unicode="&#xfb;" horiz-adv-x="976" d="M92 274q0 40 4 60l68 487h145l-65 -475q-2 -12 -2 -37q0 -88 63.5 -151.5t151.5 -63.5q55 0 110.5 25.5t102.5 85t59 141.5l68 475h143l-117 -821h-78l-43 119q-49 -65 -127 -104.5t-167 -39.5q-140 0 -228 82t-88 217zM319 952q38 47 104.5 134.5t92.5 121.5h160 l131 -256h-102q-19 19 -39.5 40.5t-45 48t-38.5 40.5l-156 -129h-107z" />
<glyph unicode="&#xfc;" horiz-adv-x="976" d="M96 334l68 487h147l-67 -475q-9 -61 6 -110.5t47 -79.5t73.5 -46t88.5 -16q54 0 109.5 26t102.5 85.5t58 140.5l68 475h143l-117 -821h-75l-46 119q-49 -65 -127 -105.5t-165 -40.5q-156 0 -246.5 101t-67.5 260zM319 1083q3 42 34 71.5t71 29.5q42 0 72 -30.5t26 -72.5 q-4 -44 -34.5 -72t-73.5 -28q-41 0 -69.5 29.5t-25.5 72.5zM627 1083q5 43 35 72t71 29t70.5 -30.5t25.5 -72.5q-3 -44 -33.5 -72t-72.5 -28t-70.5 29.5t-25.5 72.5z" />
<glyph unicode="&#xfd;" horiz-adv-x="899" d="M-4 -498l350 576l-252 743h154l194 -585l357 585h153l-800 -1339h-144zM424 952l125 256h201l-2 -24l-226 -232h-98z" />
<glyph unicode="&#xfe;" horiz-adv-x="1050" d="M12 -518l275 1956l135 24h14l-114 -762q111 146 309 146q163 0 275 -108.5t112 -291.5q0 -213 -128.5 -342t-316.5 -129q-109 0 -193 49.5t-126 141.5l-94 -658l-135 -26h-13zM285 377q0 -127 81 -208t195 -81q129 0 222.5 100.5t93.5 249.5q0 131 -78.5 212t-196.5 81 q-59 0 -114.5 -23t-101.5 -66t-73.5 -112t-27.5 -153z" />
<glyph unicode="&#xff;" horiz-adv-x="899" d="M-4 -498l350 576l-252 743h154l194 -585l357 585h153l-800 -1339h-144zM295 1083q5 43 35 72t71 29t71 -30.5t26 -72.5q-3 -44 -34 -72t-73 -28t-70.5 29.5t-25.5 72.5zM604 1083q3 42 34 71.5t71 29.5q42 0 72 -30.5t26 -72.5q-4 -44 -35 -72t-74 -28q-41 0 -69 29.5 t-25 72.5z" />
<glyph unicode="&#x152;" horiz-adv-x="1869" d="M117 678q0 59 12 124t41.5 142t74 148.5t116.5 139t162 117t216.5 79.5t274.5 30q128 0 262 -20h596l-19 -129h-593l-62 -422h481l-18 -129h-479l-88 -631h626l-18 -127h-643q-114 -18 -209 -18q-117 0 -217 24t-173.5 64t-133 96t-98 118t-64 131.5t-36.5 134t-11 128.5 zM274 670q0 -147 65 -271.5t190 -202t286 -77.5q70 0 121 10l166 1184q-55 8 -121 8q-138 0 -264.5 -44.5t-225.5 -125.5t-158 -206t-59 -275z" />
<glyph unicode="&#x153;" horiz-adv-x="1658" d="M78 414q9 132 74 232t165.5 151t221.5 51q111 0 205 -49.5t147 -139.5q64 89 163 139t210 50q176 0 277 -124.5t83 -305.5h-674q-2 -12 -2 -37q0 -132 95.5 -210.5t228.5 -78.5q137 0 250 78q12 -17 33.5 -52t27.5 -44q-120 -99 -336 -99q-122 0 -221.5 52t-157.5 141 q-62 -93 -163.5 -144t-219.5 -51q-177 0 -297 122t-110 319zM219 414q-10 -140 69.5 -232t203.5 -92t214.5 91.5t100.5 232.5q9 141 -71.5 230t-203.5 89q-125 0 -214.5 -89t-98.5 -230zM975 520h510q0 90 -67.5 151.5t-162.5 61.5q-105 0 -185 -69.5t-95 -143.5z" />
<glyph unicode="&#x178;" horiz-adv-x="1153" d="M178 1438h172l291 -559l449 559h180l-570 -719l-102 -719h-156l101 719zM489 1665q5 43 35.5 71.5t71.5 28.5t70.5 -30t25.5 -72q-3 -44 -33.5 -72t-72.5 -28t-71 29.5t-26 72.5zM799 1665q3 42 33.5 71t70.5 29q42 0 72 -30t26 -72q-4 -44 -34.5 -72t-73.5 -28 q-41 0 -69 29.5t-25 72.5z" />
<glyph unicode="&#x2c6;" horiz-adv-x="595" d="M111 952q37 46 102.5 133.5t93.5 122.5h160l131 -256h-102q-19 19 -39.5 40.5t-45 48t-38.5 40.5l-156 -129h-106z" />
<glyph unicode="&#x2dc;" horiz-adv-x="636" d="M135 1016q17 76 63 115.5t107 39.5q43 0 110.5 -28.5t94.5 -28.5q33 0 51 11t39 38l66 -24q-17 -76 -65 -117t-112 -41q-39 0 -106 28.5t-92 28.5q-34 0 -51.5 -10.5t-36.5 -40.5z" />
<glyph unicode="&#x2000;" horiz-adv-x="903" />
<glyph unicode="&#x2001;" horiz-adv-x="1806" />
<glyph unicode="&#x2002;" horiz-adv-x="903" />
<glyph unicode="&#x2003;" horiz-adv-x="1806" />
<glyph unicode="&#x2004;" horiz-adv-x="602" />
<glyph unicode="&#x2005;" horiz-adv-x="451" />
<glyph unicode="&#x2006;" horiz-adv-x="301" />
<glyph unicode="&#x2007;" horiz-adv-x="301" />
<glyph unicode="&#x2008;" horiz-adv-x="225" />
<glyph unicode="&#x2009;" horiz-adv-x="361" />
<glyph unicode="&#x200a;" horiz-adv-x="100" />
<glyph unicode="&#x2010;" horiz-adv-x="686" d="M90 381l21 143l503 78l-22 -145z" />
<glyph unicode="&#x2011;" horiz-adv-x="686" d="M90 381l21 143l503 78l-22 -145z" />
<glyph unicode="&#x2012;" horiz-adv-x="686" d="M90 381l21 143l503 78l-22 -145z" />
<glyph unicode="&#x2013;" horiz-adv-x="952" d="M92 442l19 127h772l-21 -127h-770z" />
<glyph unicode="&#x2014;" horiz-adv-x="1517" d="M92 442l19 127h1337l-18 -127h-1338z" />
<glyph unicode="&#x2018;" horiz-adv-x="487" d="M172 946l305 518l58 -14l-146 -530h-215z" />
<glyph unicode="&#x2019;" horiz-adv-x="487" d="M172 907l145 531h215l3 -27l-306 -518z" />
<glyph unicode="&#x201a;" horiz-adv-x="468" d="M-10 -307l145 530h215l2 -26l-305 -519z" />
<glyph unicode="&#x201c;" horiz-adv-x="815" d="M172 946l305 518l58 -14l-146 -530h-215zM498 946l305 518l57 -14l-145 -530h-215z" />
<glyph unicode="&#x201d;" horiz-adv-x="815" d="M172 907l145 531h215l3 -27l-306 -518zM498 907l145 531h215l2 -27l-305 -518z" />
<glyph unicode="&#x201e;" horiz-adv-x="796" d="M-10 -307l145 530h215l2 -26l-305 -519zM317 -307l146 530h215l2 -26l-305 -519z" />
<glyph unicode="&#x2022;" horiz-adv-x="647" d="M164 506q6 76 58.5 126t123.5 50q72 0 123 -52.5t45 -127.5q-7 -76 -59 -124t-125 -48t-122.5 51t-43.5 125z" />
<glyph unicode="&#x2026;" horiz-adv-x="1423" d="M96 106q5 54 43 90.5t90 36.5q54 0 89 -38t32 -93q-4 -54 -42.5 -88t-92.5 -34t-88 35.5t-31 90.5zM571 106q5 54 43.5 90.5t90.5 36.5q54 0 88.5 -37.5t31.5 -93.5q-4 -54 -42.5 -88t-92.5 -34t-88 35.5t-31 90.5zM1051 106q5 54 43 90.5t90 36.5q54 0 89 -38t32 -93 q-4 -54 -43 -88t-93 -34t-87.5 35.5t-30.5 90.5z" />
<glyph unicode="&#x202f;" horiz-adv-x="361" />
<glyph unicode="&#x2039;" horiz-adv-x="690" d="M70 387l4 23l469 454l96 -90l-401 -385l286 -342l-102 -82z" />
<glyph unicode="&#x203a;" horiz-adv-x="690" d="M51 53l402 385l-287 342l102 82l353 -422l-5 -22l-469 -455z" />
<glyph unicode="&#x205f;" horiz-adv-x="451" />
<glyph unicode="&#x20ac;" horiz-adv-x="1396" d="M10 469v2v12l33 90h176q-2 14 -2 43q0 48 6 97l4 39h-133v4q2 4 2 12l31 90h125q36 125 107 223t162 158.5t194.5 91.5t212.5 31q150 0 274 -58t207 -133l-90 -100q-71 66 -170 113t-213 47q-79 0 -155.5 -21.5t-147 -65t-127 -117t-86.5 -169.5h678q1 -13 -4.5 -31.5 t-15.5 -42t-13 -32.5h-678q-12 -86 -12 -134q0 -31 2 -45h635v-4v-12l-33 -88h-578q45 -166 180.5 -268.5t299.5 -102.5q117 0 198 25.5t170 83.5q13 -17 35 -52t35 -53q-88 -71 -196 -101t-275 -30q-213 0 -386 140t-224 358h-228z" />
<glyph unicode="&#x2122;" horiz-adv-x="1560" d="M190 1337l15 101h579l-14 -101h-231l-97 -671h-116l94 671h-230zM791 666l114 772l33 8l244 -348l354 348l33 -8l-109 -772h-110l82 542l-261 -256h-14l-174 256l-82 -542h-110z" />
<glyph unicode="&#x25fc;" horiz-adv-x="819" d="M0 0v819h819v-819h-819z" />
</font>
</defs>
</svg>
