<?xml version="1.0" standalone="no"?>
<!DOCTYPE svg PUBLIC "-//W3C//DTD SVG 20010904//EN"
 "http://www.w3.org/TR/2001/REC-SVG-20010904/DTD/svg10.dtd">
<svg version="1.0" xmlns="http://www.w3.org/2000/svg"
 width="260.000000pt" height="260.000000pt" viewBox="0 0 260.000000 260.000000"
 preserveAspectRatio="xMidYMid meet">
<metadata>
Created by potrace 1.11, written by Peter Selinger 2001-2013
</metadata>
<g transform="translate(0.000000,260.000000) scale(0.100000,-0.100000)"
fill="#000000" stroke="none">
<path d="M762 2373 c-53 -48 -117 -106 -142 -128 -110 -99 -134 -131 -174
-226 -22 -52 -51 -119 -65 -149 -14 -30 -30 -89 -36 -130 l-11 -75 -41 -15
-42 -16 59 -37 c33 -20 65 -37 72 -37 24 0 -6 -15 -50 -26 l-47 -10 64 -31 64
-32 -36 -17 c-20 -10 -37 -20 -37 -24 0 -3 22 -28 50 -54 l49 -47 -18 -47
c-39 -102 -152 -384 -166 -415 -59 -135 -74 -185 -66 -213 8 -29 49 -131 77
-191 8 -17 14 -35 14 -40 0 -4 13 -40 29 -78 16 -39 36 -86 44 -106 l15 -37
99 30 c54 16 143 43 198 59 55 17 121 37 148 45 26 8 71 21 100 29 28 9 59 18
67 20 120 36 109 36 231 -5 63 -21 220 -73 349 -115 l235 -76 135 7 c74 4 150
7 168 8 29 0 44 11 100 73 67 74 158 225 147 243 -4 6 -21 17 -38 26 -18 8
-76 61 -130 117 l-98 102 6 120 c5 101 3 134 -14 204 -18 77 -20 134 -6 209 2
9 4 31 4 48 1 19 16 50 40 82 33 45 38 58 34 90 -3 20 -7 39 -9 41 -2 3 9 19
26 36 l31 32 -31 13 c-42 17 -44 25 -15 52 l25 24 -30 29 c-16 16 -30 34 -30
41 0 11 61 183 81 229 18 41 119 317 119 325 0 5 -16 4 -36 -2 -20 -5 -44 -11
-53 -13 -9 -2 -153 -38 -321 -80 l-305 -76 -235 -2 -234 -2 -26 25 c-14 14
-59 66 -100 115 -41 50 -89 107 -107 128 l-33 37 -98 -87z m759 -1405 c20 -28
25 -43 11 -34 -4 2 -28 7 -52 11 -25 4 -74 13 -110 22 -36 8 -78 17 -94 19
-16 2 -31 5 -33 8 -5 5 140 86 155 86 5 0 15 7 22 15 11 13 18 7 47 -42 19
-32 43 -70 54 -85z m467 98 l29 -43 -44 -22 -44 -21 7 47 c4 27 7 56 6 66 -1
29 15 19 46 -27z"/>
</g>
</svg>
